G04*
G04 #@! TF.GenerationSoftware,Altium Limited,Altium Designer,23.10.1 (27)*
G04*
G04 Layer_Physical_Order=1*
G04 Layer_Color=255*
%FSLAX25Y25*%
%MOIN*%
G70*
G04*
G04 #@! TF.SameCoordinates,AA2C939F-CB16-4FEC-AD20-74F2314AF5A0*
G04*
G04*
G04 #@! TF.FilePolarity,Positive*
G04*
G01*
G75*
%ADD15C,0.05000*%
%ADD17R,0.04134X0.02362*%
%ADD18R,0.06102X0.09252*%
%ADD19R,0.04134X0.06890*%
%ADD20R,0.06693X0.05118*%
%ADD21R,0.03780X0.05472*%
%ADD22R,0.08661X0.08465*%
%ADD23R,0.06890X0.04134*%
%ADD24R,0.08858X0.08071*%
%ADD48C,0.15000*%
%ADD49C,0.10000*%
%ADD50C,0.03500*%
%ADD51C,0.03000*%
%ADD52C,0.12992*%
%ADD53C,0.07087*%
%ADD54R,0.07087X0.07087*%
%ADD55C,0.06496*%
%ADD56C,0.11693*%
%ADD57C,0.31496*%
%ADD58C,0.04500*%
%ADD59C,0.09449*%
%ADD60C,0.18366*%
%ADD61C,0.07736*%
%ADD62R,0.05906X0.05906*%
%ADD63C,0.05906*%
%ADD64C,0.08268*%
%ADD65C,0.07972*%
%ADD66R,0.07972X0.07972*%
G36*
X252799Y838113D02*
X252904Y837827D01*
X253079Y837575D01*
X253324Y837356D01*
X253639Y837171D01*
X254024Y837019D01*
X254479Y836901D01*
X255004Y836817D01*
X255599Y836767D01*
X256264Y836750D01*
Y835805D01*
Y832305D01*
X255599Y832298D01*
X254024Y832187D01*
X253639Y832121D01*
X253324Y832039D01*
X253079Y831944D01*
X252904Y831833D01*
X252799Y831707D01*
X252764Y831567D01*
X252752Y837555D01*
X252764Y837444D01*
Y838433D01*
X252799Y838113D01*
D02*
G37*
G36*
X237236Y831567D02*
X237201Y831707D01*
X237096Y831833D01*
X236921Y831944D01*
X236676Y832039D01*
X236361Y832121D01*
X235976Y832187D01*
X235521Y832239D01*
X234401Y832298D01*
X233736Y832305D01*
Y835805D01*
X234401Y835823D01*
X234996Y835875D01*
X235521Y835963D01*
X235976Y836085D01*
X236361Y836243D01*
X236676Y836435D01*
X236921Y836663D01*
X237096Y836925D01*
X237201Y837223D01*
X237236Y837555D01*
Y831567D01*
D02*
G37*
G36*
X266464Y828533D02*
X266809Y828254D01*
X267164Y828009D01*
X267530Y827797D01*
X267907Y827618D01*
X268295Y827473D01*
X268693Y827361D01*
X269102Y827282D01*
X269522Y827236D01*
X269953Y827224D01*
X265276Y822547D01*
X265264Y822978D01*
X265218Y823398D01*
X265139Y823807D01*
X265027Y824205D01*
X264882Y824593D01*
X264703Y824970D01*
X264491Y825336D01*
X264246Y825692D01*
X263967Y826036D01*
X263655Y826370D01*
X266130Y828845D01*
X266464Y828533D01*
D02*
G37*
G36*
X221188Y821697D02*
X220955Y821460D01*
X220271Y820668D01*
X220161Y820509D01*
X220076Y820366D01*
X220016Y820238D01*
X219980Y820126D01*
X219968Y820030D01*
X217045Y822953D01*
X217142Y822964D01*
X217254Y823000D01*
X217382Y823061D01*
X217525Y823146D01*
X217684Y823255D01*
X218049Y823548D01*
X218476Y823939D01*
X218713Y824172D01*
X221188Y821697D01*
D02*
G37*
G36*
X191463Y817815D02*
X191410Y817710D01*
X191362Y817577D01*
X191321Y817416D01*
X191286Y817226D01*
X191235Y816761D01*
X191210Y816182D01*
X191207Y815850D01*
X187707D01*
X187704Y816182D01*
X187627Y817226D01*
X187593Y817416D01*
X187551Y817577D01*
X187504Y817710D01*
X187450Y817815D01*
X187390Y817891D01*
X191524D01*
X191463Y817815D01*
D02*
G37*
G36*
X136345D02*
X136291Y817710D01*
X136244Y817577D01*
X136203Y817416D01*
X136168Y817226D01*
X136117Y816761D01*
X136092Y816182D01*
X136089Y815850D01*
X132589D01*
X132585Y816182D01*
X132509Y817226D01*
X132475Y817416D01*
X132433Y817577D01*
X132386Y817710D01*
X132332Y817815D01*
X132272Y817891D01*
X136406D01*
X136345Y817815D01*
D02*
G37*
G36*
X81227D02*
X81173Y817710D01*
X81126Y817577D01*
X81085Y817416D01*
X81050Y817226D01*
X80999Y816761D01*
X80974Y816182D01*
X80971Y815850D01*
X77470D01*
X77467Y816182D01*
X77391Y817226D01*
X77356Y817416D01*
X77315Y817577D01*
X77268Y817710D01*
X77214Y817815D01*
X77153Y817891D01*
X81287D01*
X81227Y817815D01*
D02*
G37*
G36*
X206200Y819874D02*
X206236Y819762D01*
X206297Y819634D01*
X206382Y819491D01*
X206491Y819332D01*
X206784Y818967D01*
X207176Y818540D01*
X207408Y818303D01*
X204933Y815828D01*
X204696Y816061D01*
X203905Y816745D01*
X203746Y816854D01*
X203602Y816940D01*
X203474Y817000D01*
X203362Y817036D01*
X203266Y817047D01*
X206189Y819971D01*
X206200Y819874D01*
D02*
G37*
G36*
X340398Y815313D02*
X340325Y815363D01*
X340224Y815408D01*
X340093Y815448D01*
X339934Y815482D01*
X339746Y815511D01*
X339282Y815553D01*
X338703Y815574D01*
X338370Y815577D01*
X338114Y819077D01*
X338445Y819080D01*
X339269Y819135D01*
X339487Y819168D01*
X339677Y819207D01*
X339839Y819255D01*
X339973Y819309D01*
X340078Y819371D01*
X340156Y819440D01*
X340398Y815313D01*
D02*
G37*
G36*
X323787Y820152D02*
X324152Y819926D01*
X324527Y819727D01*
X324914Y819555D01*
X325311Y819409D01*
X325718Y819289D01*
X326137Y819196D01*
X326566Y819130D01*
X327006Y819090D01*
X327456Y819077D01*
X328008Y815577D01*
X327546Y815560D01*
X327106Y815508D01*
X326688Y815422D01*
X326292Y815302D01*
X325919Y815147D01*
X325568Y814958D01*
X325239Y814735D01*
X324933Y814478D01*
X324649Y814186D01*
X324387Y813859D01*
X323433Y820404D01*
X323787Y820152D01*
D02*
G37*
G36*
X316755Y813859D02*
X316494Y814186D01*
X316209Y814478D01*
X315903Y814735D01*
X315574Y814958D01*
X315223Y815147D01*
X314850Y815302D01*
X314455Y815422D01*
X314037Y815508D01*
X313597Y815560D01*
X313135Y815577D01*
X313686Y819077D01*
X314137Y819090D01*
X314577Y819130D01*
X315006Y819196D01*
X315424Y819289D01*
X315832Y819409D01*
X316229Y819555D01*
X316615Y819727D01*
X316991Y819926D01*
X317356Y820152D01*
X317710Y820404D01*
X316755Y813859D01*
D02*
G37*
G36*
X305870Y819888D02*
X305975Y819718D01*
X306150Y819567D01*
X306395Y819437D01*
X306710Y819327D01*
X307095Y819237D01*
X307550Y819167D01*
X308075Y819117D01*
X309335Y819077D01*
Y815577D01*
X308670Y815559D01*
X308075Y815507D01*
X307550Y815419D01*
X307095Y815297D01*
X306710Y815139D01*
X306395Y814947D01*
X306150Y814719D01*
X305975Y814457D01*
X305870Y814159D01*
X305835Y813827D01*
Y820078D01*
X305870Y819888D01*
D02*
G37*
G36*
X371948Y815315D02*
X371894Y815210D01*
X371846Y815077D01*
X371805Y814916D01*
X371770Y814726D01*
X371720Y814261D01*
X371694Y813682D01*
X371691Y813350D01*
X368191D01*
X368188Y813682D01*
X368112Y814726D01*
X368077Y814916D01*
X368036Y815077D01*
X367988Y815210D01*
X367934Y815315D01*
X367874Y815391D01*
X372008D01*
X371948Y815315D01*
D02*
G37*
G36*
X294391Y813224D02*
X294159Y813460D01*
X293868Y813588D01*
X293519Y813608D01*
X293112Y813521D01*
X292646Y813326D01*
X292122Y813024D01*
X291539Y812613D01*
X290898Y812096D01*
X289441Y810737D01*
X287833Y814078D01*
X288488Y814758D01*
X289528Y815995D01*
X289912Y816551D01*
X290206Y817067D01*
X290409Y817541D01*
X290522Y817975D01*
X290545Y818367D01*
X290478Y818718D01*
X290320Y819028D01*
X294391Y813224D01*
D02*
G37*
G36*
X163765Y818180D02*
X163763Y817955D01*
X164036Y817964D01*
X163982Y817890D01*
X163933Y817787D01*
X163890Y817655D01*
X163853Y817494D01*
X163822Y817305D01*
X163776Y816840D01*
X163755Y816316D01*
X163750Y813215D01*
X160250D01*
X160239Y816208D01*
X160164Y817153D01*
X160126Y817343D01*
X160081Y817505D01*
X160029Y817638D01*
X159971Y817744D01*
X159905Y817821D01*
X160233Y817832D01*
X160231Y818233D01*
X163769D01*
X163765Y818180D01*
D02*
G37*
G36*
X108655Y818069D02*
X108654Y817960D01*
X108924Y817970D01*
X108870Y817896D01*
X108821Y817793D01*
X108779Y817661D01*
X108742Y817500D01*
X108711Y817311D01*
X108665Y816847D01*
X108645Y816328D01*
X108640Y813104D01*
X105140D01*
X105128Y816236D01*
X105084Y816929D01*
X105053Y817147D01*
X105015Y817337D01*
X104970Y817499D01*
X104918Y817633D01*
X104859Y817738D01*
X104793Y817816D01*
X105122Y817828D01*
X105121Y818123D01*
X108659D01*
X108655Y818069D01*
D02*
G37*
G36*
X385727Y795630D02*
X385673Y795525D01*
X385626Y795392D01*
X385585Y795231D01*
X385550Y795041D01*
X385499Y794576D01*
X385474Y793997D01*
X385471Y793665D01*
X381971D01*
X381967Y793997D01*
X381891Y795041D01*
X381856Y795231D01*
X381815Y795392D01*
X381768Y795525D01*
X381714Y795630D01*
X381653Y795706D01*
X385787D01*
X385727Y795630D01*
D02*
G37*
G36*
X80989Y783767D02*
X77452D01*
X77455Y783820D01*
X77464Y784579D01*
X77470Y788785D01*
X80971D01*
X80989Y783767D01*
D02*
G37*
G36*
X163767Y783890D02*
X163817Y783295D01*
X163901Y782770D01*
X164019Y782315D01*
X164171Y781930D01*
X164356Y781615D01*
X164575Y781370D01*
X164827Y781195D01*
X165113Y781090D01*
X165433Y781055D01*
X158567D01*
X158887Y781090D01*
X159173Y781195D01*
X159425Y781370D01*
X159644Y781615D01*
X159829Y781930D01*
X159981Y782315D01*
X160099Y782770D01*
X160183Y783295D01*
X160233Y783890D01*
X160250Y784555D01*
X163750D01*
X163767Y783890D01*
D02*
G37*
G36*
X191224Y783599D02*
X191277Y783004D01*
X191364Y782479D01*
X191487Y782024D01*
X191644Y781639D01*
X191837Y781324D01*
X192064Y781079D01*
X192327Y780904D01*
X192624Y780799D01*
X192957Y780764D01*
X186567D01*
X186784Y780799D01*
X186977Y780904D01*
X187148Y781079D01*
X187296Y781324D01*
X187422Y781639D01*
X187524Y782024D01*
X187604Y782479D01*
X187661Y783004D01*
X187707Y784264D01*
X191207D01*
X191224Y783599D01*
D02*
G37*
G36*
X108646Y784040D02*
X108657Y783599D01*
X108710Y783004D01*
X108797Y782479D01*
X108920Y782024D01*
X109077Y781639D01*
X109270Y781324D01*
X109497Y781079D01*
X109760Y780904D01*
X110057Y780799D01*
X110390Y780764D01*
X108658D01*
X108659Y780586D01*
X105121D01*
X105124Y780639D01*
X105126Y780764D01*
X103567D01*
X103866Y780799D01*
X104133Y780904D01*
X104369Y781079D01*
X104574Y781324D01*
X104747Y781639D01*
X104888Y782024D01*
X104998Y782479D01*
X105077Y783004D01*
X105124Y783599D01*
X105137Y784165D01*
X105140Y785604D01*
X108640D01*
X108646Y784040D01*
D02*
G37*
G36*
X136094Y784059D02*
X136106Y783599D01*
X136159Y783004D01*
X136246Y782479D01*
X136369Y782024D01*
X136526Y781639D01*
X136719Y781324D01*
X136946Y781079D01*
X137209Y780904D01*
X137506Y780799D01*
X137839Y780764D01*
X136106D01*
X136107Y780475D01*
X132570D01*
X132573Y780529D01*
X132576Y780764D01*
X131567D01*
X131761Y780799D01*
X131935Y780904D01*
X132088Y781079D01*
X132221Y781324D01*
X132333Y781639D01*
X132425Y782024D01*
X132497Y782479D01*
X132548Y783004D01*
X132587Y784199D01*
X132589Y785494D01*
X136089D01*
X136094Y784059D01*
D02*
G37*
G36*
X247453Y777776D02*
X247022Y777764D01*
X246602Y777718D01*
X246193Y777639D01*
X245795Y777527D01*
X245407Y777382D01*
X245030Y777203D01*
X244664Y776991D01*
X244308Y776746D01*
X243964Y776467D01*
X243630Y776155D01*
X241155Y778630D01*
X241467Y778964D01*
X241746Y779309D01*
X241991Y779664D01*
X242203Y780030D01*
X242382Y780407D01*
X242527Y780795D01*
X242639Y781193D01*
X242718Y781602D01*
X242763Y782022D01*
X242776Y782453D01*
X247453Y777776D01*
D02*
G37*
G36*
X238556Y771046D02*
X238240Y770625D01*
X238044Y770254D01*
X237967Y769932D01*
X238010Y769660D01*
X238172Y769437D01*
X238454Y769264D01*
X238855Y769140D01*
X239376Y769066D01*
X240016Y769041D01*
X232291Y765541D01*
X228066Y769041D01*
X228756Y769066D01*
X229426Y769140D01*
X230074Y769264D01*
X230702Y769437D01*
X231310Y769660D01*
X231897Y769932D01*
X232464Y770254D01*
X233010Y770625D01*
X233536Y771046D01*
X234041Y771516D01*
X238991D01*
X238556Y771046D01*
D02*
G37*
G36*
X193468Y769288D02*
X193573Y769237D01*
X193748Y769191D01*
X193993Y769151D01*
X194308Y769118D01*
X195673Y769054D01*
X196933Y769041D01*
Y765541D01*
X196268Y765538D01*
X193748Y765392D01*
X193573Y765346D01*
X193468Y765294D01*
X193433Y765236D01*
Y769346D01*
X193468Y769288D01*
D02*
G37*
G36*
X165433Y765528D02*
X165208Y765493D01*
X165007Y765388D01*
X164830Y765213D01*
X164676Y764968D01*
X164546Y764653D01*
X164439Y764268D01*
X164357Y763813D01*
X164297Y763288D01*
X164262Y762693D01*
X164250Y762028D01*
X160750D01*
X160732Y762694D01*
X160680Y763291D01*
X160592Y763818D01*
X160470Y764274D01*
X160312Y764660D01*
X160120Y764976D01*
X159892Y765222D01*
X159630Y765398D01*
X159333Y765504D01*
X159000Y765540D01*
X165433Y765528D01*
D02*
G37*
G36*
X138113Y765201D02*
X137827Y765096D01*
X137575Y764921D01*
X137356Y764676D01*
X137171Y764361D01*
X137019Y763976D01*
X136901Y763521D01*
X136817Y762996D01*
X136767Y762401D01*
X136750Y761736D01*
X133250D01*
X133233Y762401D01*
X133183Y762996D01*
X133098Y763521D01*
X132981Y763976D01*
X132829Y764361D01*
X132644Y764676D01*
X132425Y764921D01*
X132173Y765096D01*
X131887Y765201D01*
X131567Y765236D01*
X138433D01*
X138113Y765201D01*
D02*
G37*
G36*
X110113D02*
X109827Y765096D01*
X109575Y764921D01*
X109356Y764676D01*
X109171Y764361D01*
X109019Y763976D01*
X108902Y763521D01*
X108817Y762996D01*
X108767Y762401D01*
X108750Y761736D01*
X105250D01*
X105233Y762401D01*
X105183Y762996D01*
X105098Y763521D01*
X104981Y763976D01*
X104829Y764361D01*
X104644Y764676D01*
X104425Y764921D01*
X104173Y765096D01*
X103887Y765201D01*
X103567Y765236D01*
X110433D01*
X110113Y765201D01*
D02*
G37*
G36*
X82113D02*
X81827Y765096D01*
X81575Y764921D01*
X81356Y764676D01*
X81171Y764361D01*
X81019Y763976D01*
X80901Y763521D01*
X80817Y762996D01*
X80767Y762401D01*
X80750Y761736D01*
X77250D01*
X77233Y762401D01*
X77183Y762996D01*
X77099Y763521D01*
X76981Y763976D01*
X76829Y764361D01*
X76644Y764676D01*
X76425Y764921D01*
X76173Y765096D01*
X75887Y765201D01*
X75567Y765236D01*
X82433D01*
X82113Y765201D01*
D02*
G37*
G36*
X372836Y716461D02*
X373444Y715959D01*
X373748Y715747D01*
X374053Y715561D01*
X374358Y715400D01*
X374664Y715266D01*
X374970Y715157D01*
X375277Y715074D01*
X375584Y715018D01*
X370920Y711591D01*
X370953Y711904D01*
X370951Y712217D01*
X370912Y712529D01*
X370838Y712840D01*
X370728Y713151D01*
X370581Y713461D01*
X370399Y713771D01*
X370181Y714080D01*
X369928Y714389D01*
X369638Y714697D01*
X372533Y716751D01*
X372836Y716461D01*
D02*
G37*
G36*
X329144Y710499D02*
X329184Y710124D01*
X329252Y709760D01*
X329349Y709407D01*
X329475Y709064D01*
X329630Y708732D01*
X329814Y708410D01*
X330026Y708099D01*
X330268Y707798D01*
X330538Y707508D01*
X328417Y705387D01*
X328127Y705657D01*
X327826Y705899D01*
X327515Y706111D01*
X327193Y706295D01*
X326861Y706450D01*
X326518Y706576D01*
X326165Y706673D01*
X325801Y706742D01*
X325426Y706781D01*
X325041Y706792D01*
X329134Y710884D01*
X329144Y710499D01*
D02*
G37*
G36*
X508563Y755021D02*
X508361Y754887D01*
X507436Y753961D01*
X506708Y752873D01*
X506207Y751663D01*
X505952Y750379D01*
Y750124D01*
X512598D01*
Y749324D01*
X505952D01*
Y749070D01*
X506207Y747786D01*
X506708Y746576D01*
X507436Y745487D01*
X508361Y744562D01*
X509450Y743834D01*
X510660Y743333D01*
X511944Y743078D01*
X512598D01*
Y736647D01*
X511944D01*
X510660Y736391D01*
X509450Y735890D01*
X508361Y735163D01*
X507436Y734237D01*
X506708Y733148D01*
X506207Y731939D01*
X505952Y730655D01*
Y730400D01*
X512598D01*
Y729600D01*
X505952D01*
Y729345D01*
X506207Y728061D01*
X506708Y726852D01*
X507436Y725763D01*
X508361Y724837D01*
X509450Y724110D01*
X510660Y723609D01*
X511944Y723353D01*
X512598D01*
Y716961D01*
X511944D01*
X510660Y716706D01*
X509450Y716205D01*
X508361Y715478D01*
X507436Y714552D01*
X506708Y713463D01*
X506207Y712254D01*
X505952Y710970D01*
Y710715D01*
X512598D01*
Y709915D01*
X505952D01*
Y709660D01*
X506207Y708376D01*
X506708Y707167D01*
X507436Y706078D01*
X508314Y705200D01*
X508264Y704831D01*
X508224Y704700D01*
X489374D01*
X489334Y704831D01*
X489285Y705200D01*
X490163Y706078D01*
X490890Y707167D01*
X491391Y708376D01*
X491646Y709660D01*
Y709915D01*
X485000D01*
Y710715D01*
X491646D01*
Y710970D01*
X491391Y712254D01*
X490890Y713463D01*
X490163Y714552D01*
X489237Y715478D01*
X488148Y716205D01*
X486939Y716706D01*
X485655Y716961D01*
X485000D01*
Y723353D01*
X485655D01*
X486939Y723609D01*
X488148Y724110D01*
X489237Y724837D01*
X490163Y725763D01*
X490890Y726852D01*
X491391Y728061D01*
X491646Y729345D01*
Y729600D01*
X485000D01*
Y730400D01*
X491646D01*
Y730655D01*
X491391Y731939D01*
X490890Y733148D01*
X490163Y734237D01*
X489237Y735163D01*
X488148Y735890D01*
X486939Y736391D01*
X485655Y736647D01*
X485000D01*
Y743078D01*
X485655D01*
X486939Y743333D01*
X488148Y743834D01*
X489237Y744562D01*
X490163Y745487D01*
X490890Y746576D01*
X491391Y747786D01*
X491646Y749070D01*
Y749324D01*
X485000D01*
Y750124D01*
X491646D01*
Y750379D01*
X491391Y751663D01*
X490890Y752873D01*
X490163Y753961D01*
X489237Y754887D01*
X489036Y755021D01*
X489181Y755500D01*
X508418D01*
X508563Y755021D01*
D02*
G37*
G36*
X195880Y708371D02*
X196318Y708023D01*
X196782Y707716D01*
X197270Y707450D01*
X197783Y707224D01*
X198321Y707040D01*
X198883Y706897D01*
X199471Y706795D01*
X200083Y706733D01*
X200720Y706713D01*
Y701713D01*
X200083Y701692D01*
X199471Y701631D01*
X198883Y701528D01*
X198321Y701385D01*
X197783Y701201D01*
X197270Y700976D01*
X196782Y700709D01*
X196318Y700402D01*
X195880Y700054D01*
X195466Y699665D01*
Y708760D01*
X195880Y708371D01*
D02*
G37*
G36*
X175687Y703580D02*
X175751Y703024D01*
X175861Y702479D01*
X176018Y701946D01*
X176222Y701424D01*
X176472Y700913D01*
X176768Y700414D01*
X177111Y699926D01*
X177501Y699450D01*
X177937Y698985D01*
X174401Y695449D01*
X173936Y695885D01*
X173460Y696275D01*
X172972Y696618D01*
X172473Y696914D01*
X171962Y697164D01*
X171440Y697368D01*
X170907Y697525D01*
X170362Y697635D01*
X169806Y697699D01*
X169238Y697717D01*
X175669Y704148D01*
X175687Y703580D01*
D02*
G37*
G36*
X380640Y694405D02*
X380350Y694100D01*
X380092Y693793D01*
X379865Y693484D01*
X379668Y693175D01*
X379502Y692863D01*
X379367Y692550D01*
X379262Y692235D01*
X379189Y691919D01*
X379146Y691601D01*
X379134Y691282D01*
X375041Y695374D01*
X375361Y695386D01*
X375679Y695429D01*
X375995Y695503D01*
X376310Y695607D01*
X376623Y695742D01*
X376934Y695908D01*
X377244Y696105D01*
X377553Y696332D01*
X377859Y696591D01*
X378165Y696880D01*
X380640Y694405D01*
D02*
G37*
G36*
X372141Y696591D02*
X372447Y696332D01*
X372756Y696105D01*
X373066Y695908D01*
X373377Y695742D01*
X373690Y695607D01*
X374005Y695503D01*
X374321Y695429D01*
X374639Y695386D01*
X374959Y695374D01*
X370866Y691282D01*
X370854Y691601D01*
X370811Y691919D01*
X370738Y692235D01*
X370633Y692550D01*
X370498Y692863D01*
X370332Y693175D01*
X370135Y693484D01*
X369908Y693793D01*
X369650Y694100D01*
X369360Y694405D01*
X371835Y696880D01*
X372141Y696591D01*
D02*
G37*
G36*
X292520Y688346D02*
X292286Y688564D01*
X292031Y688758D01*
X291755Y688930D01*
X291458Y689078D01*
X291141Y689204D01*
X290804Y689307D01*
X290445Y689387D01*
X290067Y689444D01*
X289667Y689479D01*
X289247Y689490D01*
Y692990D01*
X289667Y693002D01*
X290067Y693036D01*
X290445Y693093D01*
X290804Y693173D01*
X291141Y693276D01*
X291458Y693402D01*
X291755Y693551D01*
X292031Y693722D01*
X292286Y693917D01*
X292520Y694134D01*
Y688346D01*
D02*
G37*
G36*
X329144Y690814D02*
X329184Y690439D01*
X329252Y690075D01*
X329349Y689722D01*
X329475Y689379D01*
X329630Y689047D01*
X329814Y688725D01*
X330026Y688414D01*
X330268Y688113D01*
X330538Y687823D01*
X328417Y685702D01*
X328127Y685972D01*
X327826Y686214D01*
X327515Y686426D01*
X327193Y686610D01*
X326861Y686765D01*
X326518Y686891D01*
X326165Y686988D01*
X325801Y687057D01*
X325426Y687096D01*
X325041Y687107D01*
X329134Y691199D01*
X329144Y690814D01*
D02*
G37*
G36*
X408564Y690204D02*
X408556Y689842D01*
X408582Y689489D01*
X408645Y689144D01*
X408742Y688807D01*
X408875Y688479D01*
X409042Y688158D01*
X409245Y687847D01*
X409483Y687543D01*
X409757Y687248D01*
X407286Y685476D01*
X407002Y685744D01*
X406706Y685989D01*
X406400Y686212D01*
X406082Y686412D01*
X405754Y686591D01*
X405414Y686747D01*
X405063Y686880D01*
X404701Y686992D01*
X404327Y687081D01*
X403943Y687148D01*
X408607Y690574D01*
X408564Y690204D01*
D02*
G37*
G36*
X343500Y674240D02*
X340500Y670619D01*
X340479Y671210D01*
X340415Y671784D01*
X340309Y672340D01*
X340161Y672878D01*
X339970Y673399D01*
X339736Y673903D01*
X339461Y674388D01*
X339142Y674857D01*
X338782Y675307D01*
X338379Y675740D01*
Y679983D01*
X338782Y679610D01*
X339142Y679339D01*
X339461Y679171D01*
X339736Y679105D01*
X339970Y679142D01*
X340161Y679281D01*
X340309Y679522D01*
X340415Y679866D01*
X340479Y680313D01*
X340500Y680862D01*
X343500Y674240D01*
D02*
G37*
G36*
X227977Y683088D02*
X229345Y681957D01*
X230012Y681497D01*
X230666Y681108D01*
X231310Y680790D01*
X231942Y680542D01*
X232562Y680366D01*
X233171Y680260D01*
X233768Y680224D01*
X230012Y674776D01*
X229959Y674672D01*
X229800Y674691D01*
X229535Y674833D01*
X229164Y675097D01*
X228686Y675484D01*
X226618Y677380D01*
X224709Y679256D01*
X227276Y683760D01*
X227977Y683088D01*
D02*
G37*
G36*
X401668Y676906D02*
X401975Y676647D01*
X402283Y676420D01*
X402593Y676223D01*
X402905Y676057D01*
X403218Y675922D01*
X403533Y675818D01*
X403849Y675744D01*
X404167Y675701D01*
X404486Y675689D01*
X400394Y671596D01*
X400382Y671916D01*
X400339Y672234D01*
X400265Y672550D01*
X400161Y672865D01*
X400026Y673178D01*
X399859Y673490D01*
X399663Y673800D01*
X399435Y674108D01*
X399177Y674415D01*
X398888Y674720D01*
X401363Y677195D01*
X401668Y676906D01*
D02*
G37*
G36*
X322141D02*
X322447Y676647D01*
X322756Y676420D01*
X323066Y676223D01*
X323377Y676057D01*
X323690Y675922D01*
X324005Y675818D01*
X324321Y675744D01*
X324639Y675701D01*
X324959Y675689D01*
X320866Y671596D01*
X320854Y671916D01*
X320811Y672234D01*
X320738Y672550D01*
X320633Y672865D01*
X320498Y673178D01*
X320332Y673490D01*
X320135Y673800D01*
X319908Y674108D01*
X319650Y674415D01*
X319360Y674720D01*
X321835Y677195D01*
X322141Y676906D01*
D02*
G37*
G36*
X241149Y660047D02*
X234481D01*
X234763Y660097D01*
X235015Y660247D01*
X235237Y660497D01*
X235430Y660847D01*
X235594Y661297D01*
X235727Y661847D01*
X235831Y662497D01*
X235905Y663247D01*
X235965Y665047D01*
X240965D01*
X241149Y660047D01*
D02*
G37*
G36*
X233047Y660052D02*
X230520Y657514D01*
X225961Y660047D01*
X229507Y663583D01*
X233047Y660052D01*
D02*
G37*
G36*
X240968Y654953D02*
X241149D01*
X241114Y654903D01*
X241083Y654753D01*
X241055Y654503D01*
X241013Y653741D01*
X241149Y650047D01*
X240966D01*
X240965Y649953D01*
X235965D01*
X235963Y650047D01*
X234481D01*
X234763Y650097D01*
X235015Y650247D01*
X235237Y650497D01*
X235430Y650847D01*
X235594Y651297D01*
X235727Y651847D01*
X235831Y652497D01*
X235831Y652500D01*
X235831Y652503D01*
X235727Y653153D01*
X235594Y653703D01*
X235430Y654153D01*
X235237Y654503D01*
X235015Y654753D01*
X234763Y654903D01*
X234481Y654953D01*
X235962D01*
X235965Y655047D01*
X240965D01*
X240968Y654953D01*
D02*
G37*
G36*
X229686D02*
X230520D01*
X230361Y654903D01*
X230219Y654753D01*
X230094Y654503D01*
X229985Y654153D01*
X229894Y653703D01*
X229819Y653153D01*
X229790Y652750D01*
X229894Y651297D01*
X229985Y650847D01*
X230094Y650497D01*
X230219Y650247D01*
X230361Y650097D01*
X230520Y650047D01*
X229687D01*
X229685Y649953D01*
X224685D01*
X224684Y650047D01*
X223851D01*
X224009Y650097D01*
X224151Y650247D01*
X224276Y650497D01*
X224385Y650847D01*
X224476Y651297D01*
X224552Y651847D01*
X224580Y652250D01*
X224476Y653703D01*
X224385Y654153D01*
X224276Y654503D01*
X224151Y654753D01*
X224009Y654903D01*
X223851Y654953D01*
X224683D01*
X224685Y655047D01*
X229685D01*
X229686Y654953D01*
D02*
G37*
G36*
X330370Y649218D02*
X330099Y648858D01*
X329931Y648539D01*
X329865Y648264D01*
X329902Y648030D01*
X330041Y647839D01*
X330282Y647691D01*
X330626Y647585D01*
X331072Y647521D01*
X331621Y647500D01*
X325000Y644500D01*
X321379Y647500D01*
X321970Y647521D01*
X322544Y647585D01*
X323100Y647691D01*
X323638Y647839D01*
X324159Y648030D01*
X324662Y648264D01*
X325148Y648539D01*
X325616Y648858D01*
X326067Y649218D01*
X326500Y649621D01*
X330743D01*
X330370Y649218D01*
D02*
G37*
G36*
X241114Y644903D02*
X241083Y644753D01*
X241055Y644503D01*
X241011Y643703D01*
X240965Y639953D01*
X235965D01*
X235950Y640903D01*
X235831Y642503D01*
X235727Y643153D01*
X235594Y643703D01*
X235430Y644153D01*
X235237Y644503D01*
X235015Y644753D01*
X234763Y644903D01*
X234481Y644953D01*
X241149D01*
X241114Y644903D01*
D02*
G37*
G36*
X230361D02*
X230219Y644753D01*
X230094Y644503D01*
X229985Y644153D01*
X229894Y643703D01*
X229819Y643153D01*
X229718Y641753D01*
X229685Y639953D01*
X224685D01*
X224677Y640903D01*
X224476Y643703D01*
X224385Y644153D01*
X224276Y644503D01*
X224151Y644753D01*
X224009Y644903D01*
X223851Y644953D01*
X230520D01*
X230361Y644903D01*
D02*
G37*
G36*
X240984Y638073D02*
X241137Y636473D01*
X241271Y635823D01*
X241444Y635273D01*
X241655Y634823D01*
X241904Y634473D01*
X242192Y634223D01*
X242517Y634073D01*
X242882Y634023D01*
X234047D01*
X234412Y634073D01*
X234738Y634223D01*
X235025Y634473D01*
X235274Y634823D01*
X235485Y635273D01*
X235658Y635823D01*
X235792Y636473D01*
X235888Y637223D01*
X235945Y638073D01*
X235965Y639023D01*
X240965D01*
X240984Y638073D01*
D02*
G37*
G36*
X242517Y625927D02*
X242192Y625777D01*
X241904Y625527D01*
X241655Y625177D01*
X241444Y624727D01*
X241271Y624177D01*
X241137Y623527D01*
X241041Y622777D01*
X240984Y621927D01*
X240965Y620977D01*
X235965D01*
X235945Y621927D01*
X235792Y623527D01*
X235658Y624177D01*
X235485Y624727D01*
X235274Y625177D01*
X235025Y625527D01*
X234738Y625777D01*
X234412Y625927D01*
X234047Y625977D01*
X242882D01*
X242517Y625927D01*
D02*
G37*
G36*
X486760Y621352D02*
X486836Y620615D01*
X486903Y620280D01*
X486989Y619968D01*
X487095Y619678D01*
X487219Y619412D01*
X487363Y619167D01*
X487526Y618946D01*
X487708Y618747D01*
X482292D01*
X482474Y618946D01*
X482637Y619167D01*
X482781Y619412D01*
X482905Y619678D01*
X483011Y619968D01*
X483097Y620280D01*
X483164Y620615D01*
X483212Y620972D01*
X483240Y621352D01*
X483250Y621755D01*
X486750D01*
X486760Y621352D01*
D02*
G37*
G36*
X457630Y621078D02*
X458204Y620607D01*
X458487Y620414D01*
X458767Y620249D01*
X459045Y620112D01*
X459320Y620004D01*
X459592Y619925D01*
X459862Y619873D01*
X460128Y619850D01*
X456137Y616190D01*
X456136Y616460D01*
X456105Y616733D01*
X456042Y617009D01*
X455949Y617286D01*
X455825Y617566D01*
X455670Y617848D01*
X455485Y618133D01*
X455268Y618420D01*
X455022Y618710D01*
X454744Y619002D01*
X457339Y621356D01*
X457630Y621078D01*
D02*
G37*
G36*
X301112Y615665D02*
X300823Y615359D01*
X300565Y615053D01*
X300337Y614744D01*
X300141Y614434D01*
X299974Y614123D01*
X299839Y613810D01*
X299735Y613495D01*
X299661Y613179D01*
X299618Y612861D01*
X299606Y612541D01*
X295514Y616634D01*
X295833Y616646D01*
X296151Y616689D01*
X296467Y616762D01*
X296782Y616867D01*
X297095Y617002D01*
X297407Y617168D01*
X297717Y617365D01*
X298025Y617592D01*
X298332Y617850D01*
X298637Y618140D01*
X301112Y615665D01*
D02*
G37*
G36*
X371537Y617572D02*
X371845Y617318D01*
X372154Y617101D01*
X372464Y616919D01*
X372774Y616772D01*
X373085Y616662D01*
X373396Y616588D01*
X373708Y616549D01*
X374021Y616547D01*
X374334Y616580D01*
X371120Y612205D01*
X374959Y608366D01*
X374639Y608354D01*
X374321Y608311D01*
X374005Y608238D01*
X373690Y608133D01*
X373377Y607998D01*
X373066Y607832D01*
X372756Y607635D01*
X372447Y607408D01*
X372141Y607150D01*
X371835Y606860D01*
X369360Y609335D01*
X369650Y609641D01*
X369908Y609947D01*
X370135Y610256D01*
X370332Y610566D01*
X370498Y610877D01*
X370633Y611190D01*
X370738Y611505D01*
X370811Y611821D01*
X370854Y612139D01*
X370856Y612193D01*
X370851Y612223D01*
X370768Y612530D01*
X370659Y612836D01*
X370525Y613142D01*
X370365Y613447D01*
X370178Y613752D01*
X369966Y614056D01*
X369728Y614360D01*
X369174Y614967D01*
X371229Y617862D01*
X371537Y617572D01*
D02*
G37*
G36*
X295431Y608366D02*
X295112Y608354D01*
X294794Y608311D01*
X294477Y608238D01*
X294163Y608133D01*
X293850Y607998D01*
X293538Y607832D01*
X293228Y607635D01*
X292920Y607408D01*
X292613Y607150D01*
X292308Y606860D01*
X289833Y609335D01*
X290122Y609641D01*
X290380Y609947D01*
X290608Y610256D01*
X290804Y610566D01*
X290970Y610877D01*
X291106Y611190D01*
X291210Y611505D01*
X291284Y611821D01*
X291327Y612139D01*
X291339Y612459D01*
X295431Y608366D01*
D02*
G37*
G36*
X327887Y609541D02*
X327669Y609307D01*
X327474Y609052D01*
X327302Y608777D01*
X327153Y608481D01*
X327027Y608164D01*
X326924Y607827D01*
X326843Y607468D01*
X326786Y607090D01*
X326752Y606690D01*
X326740Y606270D01*
X323240Y606279D01*
X323229Y606699D01*
X323195Y607099D01*
X323137Y607478D01*
X323058Y607836D01*
X322955Y608174D01*
X322829Y608491D01*
X322681Y608788D01*
X322510Y609064D01*
X322316Y609320D01*
X322099Y609555D01*
X327887Y609541D01*
D02*
G37*
G36*
X407374Y609466D02*
X407192Y609202D01*
X407030Y608918D01*
X406891Y608615D01*
X406773Y608292D01*
X406676Y607951D01*
X406601Y607589D01*
X406547Y607209D01*
X406515Y606808D01*
X406504Y606389D01*
X403004Y606177D01*
X402992Y606598D01*
X402956Y606997D01*
X402896Y607373D01*
X402811Y607728D01*
X402703Y608061D01*
X402570Y608372D01*
X402414Y608660D01*
X402233Y608927D01*
X402029Y609171D01*
X401800Y609394D01*
X407579Y609711D01*
X407374Y609466D01*
D02*
G37*
G36*
X258154Y603949D02*
X258016Y603734D01*
X257895Y603482D01*
X257790Y603191D01*
X257702Y602863D01*
X257629Y602497D01*
X257573Y602094D01*
X257508Y601173D01*
X257500Y600657D01*
X252500D01*
X252492Y601173D01*
X252427Y602094D01*
X252371Y602497D01*
X252298Y602863D01*
X252209Y603191D01*
X252104Y603482D01*
X251983Y603734D01*
X251846Y603949D01*
X251693Y604126D01*
X258307D01*
X258154Y603949D01*
D02*
G37*
G36*
X482630Y604582D02*
X483204Y604111D01*
X483487Y603918D01*
X483767Y603753D01*
X484045Y603616D01*
X484320Y603508D01*
X484592Y603429D01*
X484862Y603377D01*
X485128Y603354D01*
X481137Y599694D01*
X481136Y599964D01*
X481105Y600237D01*
X481042Y600513D01*
X480949Y600790D01*
X480825Y601070D01*
X480670Y601353D01*
X480485Y601637D01*
X480268Y601924D01*
X480022Y602214D01*
X479744Y602506D01*
X482339Y604860D01*
X482630Y604582D01*
D02*
G37*
G36*
X457630D02*
X458204Y604111D01*
X458487Y603918D01*
X458767Y603753D01*
X459045Y603616D01*
X459320Y603508D01*
X459592Y603429D01*
X459862Y603377D01*
X460128Y603354D01*
X456137Y599694D01*
X456136Y599964D01*
X456105Y600237D01*
X456042Y600513D01*
X455949Y600790D01*
X455825Y601070D01*
X455670Y601353D01*
X455485Y601637D01*
X455268Y601924D01*
X455022Y602214D01*
X454744Y602506D01*
X457339Y604860D01*
X457630Y604582D01*
D02*
G37*
G36*
X406519Y597449D02*
X406565Y596854D01*
X406640Y596329D01*
X406746Y595874D01*
X406883Y595489D01*
X407050Y595174D01*
X407246Y594929D01*
X407474Y594754D01*
X407731Y594649D01*
X408019Y594614D01*
X401941D01*
X402143Y594649D01*
X402324Y594754D01*
X402483Y594929D01*
X402621Y595174D01*
X402738Y595489D01*
X402834Y595874D01*
X402908Y596329D01*
X402961Y596854D01*
X403004Y598114D01*
X406504D01*
X406519Y597449D01*
D02*
G37*
G36*
X326753D02*
X326855Y596329D01*
X326945Y595874D01*
X327060Y595489D01*
X327201Y595174D01*
X327367Y594929D01*
X327559Y594754D01*
X327776Y594649D01*
X328019Y594614D01*
X321941D01*
X322188Y594649D01*
X322409Y594754D01*
X322604Y594929D01*
X322773Y595174D01*
X322915Y595489D01*
X323032Y595874D01*
X323123Y596329D01*
X323188Y596854D01*
X323227Y597449D01*
X323240Y598114D01*
X326740D01*
X326753Y597449D01*
D02*
G37*
G36*
X366044Y596268D02*
X366191Y593748D01*
X366236Y593573D01*
X366288Y593468D01*
X366346Y593433D01*
X362236D01*
X362294Y593468D01*
X362346Y593573D01*
X362392Y593748D01*
X362432Y593993D01*
X362465Y594308D01*
X362529Y595673D01*
X362541Y596933D01*
X366041D01*
X366044Y596268D01*
D02*
G37*
G36*
X288544D02*
X288691Y593748D01*
X288737Y593573D01*
X288788Y593468D01*
X288846Y593433D01*
X284736D01*
X284794Y593468D01*
X284846Y593573D01*
X284892Y593748D01*
X284932Y593993D01*
X284965Y594308D01*
X285029Y595673D01*
X285041Y596933D01*
X288541D01*
X288544Y596268D01*
D02*
G37*
G36*
X306993Y586500D02*
X306957Y586833D01*
X306852Y587130D01*
X306676Y587393D01*
X306431Y587620D01*
X306115Y587813D01*
X305728Y587970D01*
X305272Y588093D01*
X304745Y588180D01*
X304148Y588233D01*
X303620Y588246D01*
X303099Y588233D01*
X302504Y588183D01*
X301979Y588098D01*
X301524Y587981D01*
X301139Y587829D01*
X300824Y587644D01*
X300579Y587425D01*
X300404Y587173D01*
X300299Y586887D01*
X300264Y586567D01*
Y593433D01*
X300299Y593113D01*
X300404Y592827D01*
X300579Y592575D01*
X300824Y592356D01*
X301139Y592171D01*
X301524Y592019D01*
X301979Y591901D01*
X302504Y591817D01*
X303099Y591767D01*
X303620Y591754D01*
X304148Y591768D01*
X304745Y591820D01*
X305272Y591908D01*
X305728Y592030D01*
X306115Y592188D01*
X306431Y592380D01*
X306676Y592607D01*
X306852Y592870D01*
X306957Y593167D01*
X306993Y593500D01*
Y586500D01*
D02*
G37*
G36*
X327905Y591555D02*
X327898Y591141D01*
X327999Y590669D01*
X328208Y590138D01*
X328526Y589548D01*
X328951Y588900D01*
X329484Y588194D01*
X330875Y586605D01*
X331732Y585723D01*
X329594Y582911D01*
X328806Y583675D01*
X327424Y584858D01*
X326831Y585278D01*
X326440Y585504D01*
X326340Y585478D01*
X325865Y585274D01*
X325350Y584981D01*
X324794Y584598D01*
X324199Y584125D01*
X323562Y583563D01*
X322886Y582911D01*
X319466Y584441D01*
X320203Y585202D01*
X321351Y586547D01*
X321762Y587131D01*
X322065Y587656D01*
X322259Y588121D01*
X322345Y588527D01*
X322323Y588874D01*
X322192Y589162D01*
X321953Y589391D01*
X325478Y586998D01*
X328019Y591911D01*
X327905Y591555D01*
D02*
G37*
G36*
X377799Y593113D02*
X377904Y592827D01*
X378079Y592575D01*
X378324Y592356D01*
X378639Y592171D01*
X379024Y592019D01*
X379479Y591901D01*
X380004Y591817D01*
X380599Y591767D01*
X381264Y591750D01*
Y588250D01*
X380599Y588233D01*
X380004Y588183D01*
X379479Y588098D01*
X379024Y587981D01*
X378639Y587829D01*
X378324Y587644D01*
X378079Y587425D01*
X377904Y587173D01*
X377799Y586887D01*
X377764Y586567D01*
Y593433D01*
X377799Y593113D01*
D02*
G37*
G36*
X386993Y586500D02*
X386957Y586833D01*
X386852Y587130D01*
X386676Y587393D01*
X386431Y587620D01*
X386115Y587813D01*
X385728Y587970D01*
X385272Y588093D01*
X384745Y588180D01*
X384148Y588233D01*
X383481Y588250D01*
Y591750D01*
X384148Y591768D01*
X384745Y591820D01*
X385272Y591908D01*
X385728Y592030D01*
X386115Y592188D01*
X386431Y592380D01*
X386676Y592607D01*
X386852Y592870D01*
X386957Y593167D01*
X386993Y593500D01*
Y586500D01*
D02*
G37*
G36*
X482093Y587896D02*
X482383Y587651D01*
X482671Y587437D01*
X482956Y587256D01*
X483238Y587107D01*
X483518Y586989D01*
X483796Y586904D01*
X484071Y586851D01*
X484343Y586830D01*
X484614Y586841D01*
X481144Y582683D01*
X481110Y582945D01*
X481048Y583210D01*
X480959Y583479D01*
X480843Y583750D01*
X480700Y584025D01*
X480530Y584303D01*
X480333Y584585D01*
X480108Y584869D01*
X479577Y585448D01*
X481801Y588174D01*
X482093Y587896D01*
D02*
G37*
G36*
X243385Y588862D02*
X244671Y587749D01*
X244939Y587559D01*
X245187Y587405D01*
X245414Y587287D01*
X245440Y587276D01*
X245530Y587296D01*
X245794Y587389D01*
X246074Y587520D01*
X246368Y587689D01*
X246678Y587896D01*
X247004Y588142D01*
X247700Y588747D01*
X248071Y589107D01*
X251607Y585571D01*
X251247Y585200D01*
X250642Y584504D01*
X250396Y584178D01*
X250189Y583868D01*
X250020Y583573D01*
X249889Y583294D01*
X249796Y583030D01*
X249741Y582781D01*
X249724Y582547D01*
X245397Y586874D01*
X241626Y584271D01*
Y579193D01*
X241449Y579346D01*
X241234Y579484D01*
X240982Y579604D01*
X240691Y579709D01*
X240363Y579798D01*
X239997Y579871D01*
X239594Y579927D01*
X238673Y579992D01*
X238307Y579998D01*
X237941Y579992D01*
X237020Y579927D01*
X236617Y579871D01*
X236251Y579798D01*
X235923Y579709D01*
X235633Y579604D01*
X235380Y579484D01*
X235165Y579346D01*
X234988Y579193D01*
Y585807D01*
X235165Y585654D01*
X235380Y585517D01*
X235633Y585395D01*
X235923Y585290D01*
X236251Y585202D01*
X236617Y585129D01*
X237020Y585073D01*
X237941Y585008D01*
X238307Y585002D01*
X238673Y585008D01*
X239594Y585073D01*
X239846Y585108D01*
X239643Y585398D01*
X239371Y585741D01*
X238699Y586469D01*
X243011Y589229D01*
X243385Y588862D01*
D02*
G37*
G36*
X457238Y580285D02*
X456993Y580514D01*
X456734Y580719D01*
X456459Y580900D01*
X456170Y581057D01*
X455865Y581190D01*
X455545Y581299D01*
X455210Y581383D01*
X454859Y581444D01*
X454494Y581480D01*
X454114Y581492D01*
Y584492D01*
X454494Y584504D01*
X454859Y584540D01*
X455210Y584601D01*
X455545Y584685D01*
X455865Y584794D01*
X456170Y584927D01*
X456459Y585084D01*
X456734Y585265D01*
X456993Y585470D01*
X457238Y585700D01*
Y580285D01*
D02*
G37*
G36*
X407774Y585351D02*
X407555Y585246D01*
X407362Y585071D01*
X407194Y584826D01*
X407053Y584511D01*
X406937Y584126D01*
X406846Y583671D01*
X406782Y583146D01*
X406743Y582551D01*
X406730Y581886D01*
X404191D01*
X404980Y579980D01*
X406316Y578230D01*
X406175Y578206D01*
X405997Y578131D01*
X405782Y578008D01*
X405529Y577834D01*
X403707Y576226D01*
X403230Y575755D01*
X400755Y578230D01*
X401226Y578735D01*
X401646Y579261D01*
X402018Y579808D01*
X402339Y580374D01*
X402612Y580962D01*
X402834Y581569D01*
X403008Y582198D01*
X403131Y582846D01*
X403163Y583136D01*
X403114Y583671D01*
X403024Y584126D01*
X402908Y584511D01*
X402766Y584826D01*
X402599Y585071D01*
X402405Y585246D01*
X402186Y585351D01*
X401941Y585386D01*
X408019D01*
X407774Y585351D01*
D02*
G37*
G36*
X334268Y579521D02*
X334321Y579085D01*
X334409Y578692D01*
X334533Y578340D01*
X334693Y578030D01*
X334888Y577763D01*
X335118Y577537D01*
X335383Y577354D01*
X335684Y577212D01*
X336021Y577113D01*
X330480Y573876D01*
X330532Y574090D01*
X330577Y574378D01*
X330653Y575176D01*
X330726Y576927D01*
X330750Y579343D01*
X334250Y579999D01*
X334268Y579521D01*
D02*
G37*
G36*
X410692Y578104D02*
X411040Y577830D01*
X411395Y577598D01*
X411759Y577407D01*
X412130Y577258D01*
X412509Y577151D01*
X412896Y577085D01*
X413290Y577061D01*
X413692Y577079D01*
X414102Y577138D01*
X410345Y571695D01*
X410258Y572121D01*
X410146Y572535D01*
X410010Y572938D01*
X409850Y573330D01*
X409664Y573712D01*
X409454Y574082D01*
X409220Y574441D01*
X408960Y574790D01*
X408676Y575127D01*
X408368Y575454D01*
X410352Y578420D01*
X410692Y578104D01*
D02*
G37*
G36*
X482547Y571590D02*
X482829Y571354D01*
X483117Y571144D01*
X483412Y570957D01*
X483713Y570795D01*
X484021Y570658D01*
X484335Y570544D01*
X484656Y570456D01*
X484984Y570391D01*
X485318Y570351D01*
X481152Y566891D01*
X481171Y567221D01*
X481158Y567546D01*
X481114Y567865D01*
X481040Y568178D01*
X480934Y568486D01*
X480797Y568788D01*
X480629Y569085D01*
X480429Y569376D01*
X480199Y569661D01*
X479937Y569941D01*
X482272Y571849D01*
X482547Y571590D01*
D02*
G37*
G36*
X457041Y564004D02*
X456862Y564193D01*
X456657Y564361D01*
X456427Y564510D01*
X456172Y564639D01*
X455892Y564748D01*
X455586Y564837D01*
X455256Y564907D01*
X454900Y564956D01*
X454520Y564986D01*
X454114Y564996D01*
Y567996D01*
X454520Y568006D01*
X454900Y568036D01*
X455256Y568085D01*
X455586Y568155D01*
X455892Y568244D01*
X456172Y568353D01*
X456427Y568482D01*
X456657Y568631D01*
X456862Y568799D01*
X457041Y568988D01*
Y564004D01*
D02*
G37*
G36*
X484961Y562628D02*
X484626Y562618D01*
X484298Y562579D01*
X483975Y562513D01*
X483660Y562420D01*
X483350Y562298D01*
X483047Y562149D01*
X482750Y561971D01*
X482460Y561766D01*
X482176Y561534D01*
X481898Y561273D01*
X479777Y563394D01*
X480038Y563672D01*
X480270Y563956D01*
X480475Y564246D01*
X480652Y564543D01*
X480802Y564846D01*
X480923Y565156D01*
X481017Y565472D01*
X481083Y565794D01*
X481122Y566122D01*
X481132Y566457D01*
X484961Y562628D01*
D02*
G37*
G36*
X382320Y553567D02*
X382087Y553804D01*
X381795Y553933D01*
X381446Y553955D01*
X381038Y553869D01*
X380572Y553675D01*
X380048Y553374D01*
X379466Y552965D01*
X378825Y552449D01*
X377370Y551092D01*
X375762Y554433D01*
X376415Y555112D01*
X377452Y556347D01*
X377835Y556903D01*
X378128Y557419D01*
X378330Y557893D01*
X378443Y558327D01*
X378464Y558720D01*
X378395Y559072D01*
X378236Y559383D01*
X382320Y553567D01*
D02*
G37*
G36*
X393896Y553532D02*
X394014Y553427D01*
X394118Y553252D01*
X394208Y553007D01*
X394285Y552692D01*
X394347Y552307D01*
X394396Y551852D01*
X394452Y550732D01*
X394459Y550067D01*
X390959D01*
X390946Y550732D01*
X390841Y551852D01*
X390750Y552307D01*
X390632Y552692D01*
X390489Y553007D01*
X390319Y553252D01*
X390124Y553427D01*
X389902Y553532D01*
X389654Y553567D01*
X393764D01*
X393896Y553532D01*
D02*
G37*
G36*
X313820Y546567D02*
X313587Y546804D01*
X313295Y546933D01*
X312946Y546955D01*
X312538Y546869D01*
X312072Y546675D01*
X311548Y546374D01*
X310966Y545965D01*
X310326Y545448D01*
X308870Y544092D01*
X306024Y546196D01*
X306913Y547110D01*
X308890Y549458D01*
X309319Y550109D01*
X309632Y550695D01*
X309831Y551216D01*
X309915Y551670D01*
X309883Y552059D01*
X309736Y552383D01*
X313820Y546567D01*
D02*
G37*
G36*
X241626Y540098D02*
X241449Y540252D01*
X241234Y540389D01*
X240982Y540510D01*
X240691Y540615D01*
X240363Y540704D01*
X239997Y540776D01*
X239594Y540833D01*
X238673Y540897D01*
X238307Y540903D01*
X237941Y540897D01*
X237020Y540833D01*
X236617Y540776D01*
X236251Y540704D01*
X235923Y540615D01*
X235633Y540510D01*
X235380Y540389D01*
X235165Y540252D01*
X234988Y540098D01*
Y546713D01*
X235165Y546559D01*
X235380Y546422D01*
X235633Y546301D01*
X235923Y546196D01*
X236251Y546107D01*
X236617Y546035D01*
X237020Y545978D01*
X237941Y545914D01*
X238307Y545908D01*
X238673Y545914D01*
X239594Y545978D01*
X239997Y546035D01*
X240363Y546107D01*
X240691Y546196D01*
X240982Y546301D01*
X241234Y546422D01*
X241449Y546559D01*
X241626Y546713D01*
Y540098D01*
D02*
G37*
G36*
X462010Y546695D02*
X461746Y546515D01*
X461510Y546312D01*
X461302Y546086D01*
X461122Y545836D01*
X460969Y545565D01*
X460844Y545270D01*
X460747Y544952D01*
X460678Y544611D01*
X460636Y544248D01*
X460622Y543861D01*
X457622Y544628D01*
X457613Y545004D01*
X457542Y545724D01*
X457480Y546069D01*
X457401Y546404D01*
X457303Y546728D01*
X457188Y547042D01*
X457055Y547347D01*
X456904Y547641D01*
X456736Y547924D01*
X462010Y546695D01*
D02*
G37*
G36*
X325195Y546537D02*
X325133Y546447D01*
X325078Y546297D01*
X325031Y546087D01*
X324991Y545817D01*
X324933Y545097D01*
X324900Y543567D01*
X321900D01*
X321892Y544137D01*
X321781Y545487D01*
X321713Y545817D01*
X321631Y546087D01*
X321534Y546297D01*
X321422Y546447D01*
X321295Y546537D01*
X321154Y546567D01*
X325264D01*
X325195Y546537D01*
D02*
G37*
G36*
X251233Y547517D02*
X250942Y547200D01*
X250682Y546864D01*
X250453Y546507D01*
X250255Y546131D01*
X250089Y545734D01*
X249953Y545318D01*
X249849Y544881D01*
X249776Y544425D01*
X249735Y543949D01*
X249724Y543453D01*
X248578Y544599D01*
X247501Y543405D01*
X247535Y543300D01*
X247640Y543130D01*
X247816Y542897D01*
X248378Y542244D01*
X248492Y542126D01*
X249724Y543358D01*
X249735Y542862D01*
X249776Y542386D01*
X249849Y541930D01*
X249953Y541493D01*
X250089Y541077D01*
X250255Y540681D01*
X250453Y540304D01*
X250682Y539947D01*
X250942Y539611D01*
X251233Y539294D01*
X249112Y537173D01*
X248795Y537464D01*
X248458Y537724D01*
X248101Y537953D01*
X247725Y538150D01*
X247328Y538317D01*
X246912Y538452D01*
X246476Y538556D01*
X246020Y538629D01*
X245543Y538671D01*
X245047Y538681D01*
X246193Y539827D01*
X244998Y540906D01*
X247498Y543405D01*
X244998Y545905D01*
X245106Y545941D01*
X245276Y546046D01*
X245508Y546222D01*
X246161Y546783D01*
X246280Y546897D01*
X245047Y548130D01*
X245543Y548140D01*
X246020Y548182D01*
X246476Y548255D01*
X246912Y548359D01*
X247328Y548494D01*
X247725Y548661D01*
X248101Y548858D01*
X248458Y549087D01*
X248795Y549347D01*
X249112Y549638D01*
X251233Y547517D01*
D02*
G37*
G36*
X373389Y545244D02*
X373509Y543284D01*
X373565Y542969D01*
X373630Y542724D01*
X373705Y542549D01*
X373790Y542444D01*
X373886Y542409D01*
X369776D01*
X369796Y542444D01*
X369815Y542549D01*
X369831Y542724D01*
X369867Y543669D01*
X369884Y545909D01*
X373384D01*
X373389Y545244D01*
D02*
G37*
G36*
X301767D02*
X301820Y544649D01*
X301907Y544124D01*
X302030Y543669D01*
X302187Y543284D01*
X302380Y542969D01*
X302607Y542724D01*
X302870Y542549D01*
X303168Y542444D01*
X303500Y542409D01*
X299776D01*
X299486Y542444D01*
X299226Y542549D01*
X298998Y542724D01*
X298799Y542969D01*
X298631Y543284D01*
X298494Y543669D01*
X298387Y544124D01*
X298311Y544649D01*
X298265Y545244D01*
X298250Y545909D01*
X301750D01*
X301767Y545244D01*
D02*
G37*
G36*
X394462Y543268D02*
X394608Y540748D01*
X394654Y540573D01*
X394706Y540468D01*
X394764Y540433D01*
X390654D01*
X390712Y540468D01*
X390763Y540573D01*
X390809Y540748D01*
X390849Y540993D01*
X390882Y541308D01*
X390947Y542673D01*
X390959Y543933D01*
X394459D01*
X394462Y543268D01*
D02*
G37*
G36*
X361670Y541676D02*
X364877Y538818D01*
X365082Y538706D01*
X365224Y538669D01*
X361114Y536331D01*
X361090Y536535D01*
X361015Y536770D01*
X360892Y537036D01*
X360718Y537332D01*
X360496Y537659D01*
X360223Y538017D01*
X359530Y538823D01*
X358640Y539752D01*
X360960Y542381D01*
X361670Y541676D01*
D02*
G37*
G36*
X379236Y533567D02*
X379201Y533707D01*
X379096Y533833D01*
X378921Y533944D01*
X378676Y534039D01*
X378361Y534121D01*
X377976Y534187D01*
X377521Y534239D01*
X376401Y534298D01*
X375736Y534305D01*
Y537805D01*
X376403Y537823D01*
X377000Y537875D01*
X377526Y537963D01*
X377982Y538085D01*
X378369Y538243D01*
X378685Y538435D01*
X378931Y538663D01*
X379107Y538925D01*
X379213Y539223D01*
X379248Y539555D01*
X379236Y533567D01*
D02*
G37*
G36*
X324904Y533363D02*
X325031Y531413D01*
X325078Y531203D01*
X325133Y531053D01*
X325195Y530963D01*
X325264Y530933D01*
X321154D01*
X321295Y530963D01*
X321422Y531053D01*
X321534Y531203D01*
X321631Y531413D01*
X321713Y531683D01*
X321781Y532013D01*
X321833Y532403D01*
X321892Y533363D01*
X321900Y533933D01*
X324900D01*
X324904Y533363D01*
D02*
G37*
G36*
X303910Y534491D02*
X303985Y534048D01*
X304108Y533598D01*
X304282Y533143D01*
X304504Y532681D01*
X304777Y532213D01*
X305098Y531739D01*
X305470Y531259D01*
X305890Y530773D01*
X306361Y530281D01*
X302814Y528878D01*
X302115Y529584D01*
X299766Y532257D01*
X299682Y532442D01*
X299685Y532554D01*
X299776Y532591D01*
X303886Y534929D01*
X303910Y534491D01*
D02*
G37*
G36*
X487676Y530679D02*
X487524Y530451D01*
X487390Y530202D01*
X487273Y529930D01*
X487174Y529637D01*
X487093Y529322D01*
X487031Y528985D01*
X486986Y528626D01*
X486959Y528245D01*
X486950Y527843D01*
X483450Y527639D01*
X483440Y528042D01*
X483410Y528421D01*
X483359Y528777D01*
X483288Y529109D01*
X483197Y529417D01*
X483086Y529702D01*
X482955Y529963D01*
X482803Y530201D01*
X482631Y530415D01*
X482439Y530605D01*
X487847Y530885D01*
X487676Y530679D01*
D02*
G37*
G36*
X462478Y530497D02*
X462273Y530238D01*
X462092Y529963D01*
X461935Y529673D01*
X461802Y529369D01*
X461693Y529049D01*
X461609Y528714D01*
X461548Y528364D01*
X461512Y527998D01*
X461500Y527618D01*
X458500D01*
X458488Y527998D01*
X458452Y528364D01*
X458391Y528714D01*
X458307Y529049D01*
X458198Y529369D01*
X458065Y529673D01*
X457908Y529963D01*
X457727Y530238D01*
X457522Y530497D01*
X457292Y530742D01*
X462708D01*
X462478Y530497D01*
D02*
G37*
G36*
X309736Y524431D02*
X309706Y524681D01*
X309614Y524906D01*
X309460Y525104D01*
X309245Y525275D01*
X308969Y525420D01*
X308631Y525539D01*
X308232Y525631D01*
X307772Y525697D01*
X307250Y525737D01*
X306667Y525750D01*
Y529250D01*
X307250Y529263D01*
X307772Y529303D01*
X308232Y529369D01*
X308631Y529461D01*
X308969Y529580D01*
X309245Y529725D01*
X309460Y529896D01*
X309614Y530094D01*
X309706Y530319D01*
X309736Y530569D01*
Y524431D01*
D02*
G37*
G36*
X325113Y528717D02*
X325053Y528418D01*
X325071Y528084D01*
X325167Y527714D01*
X325341Y527308D01*
X325593Y526865D01*
X325924Y526387D01*
X326333Y525873D01*
X326820Y525323D01*
X327385Y524736D01*
X325933Y521946D01*
X325287Y522571D01*
X324142Y523547D01*
X323644Y523898D01*
X323195Y524157D01*
X322795Y524324D01*
X322445Y524400D01*
X322144Y524385D01*
X321892Y524278D01*
X321690Y524079D01*
X325252Y528979D01*
X325113Y528717D01*
D02*
G37*
G36*
X326926Y458093D02*
X326568Y458436D01*
X326202Y458743D01*
X325828Y459015D01*
X325445Y459249D01*
X325055Y459448D01*
X324657Y459611D01*
X324251Y459737D01*
X323837Y459828D01*
X323607Y459857D01*
X323377Y459828D01*
X322963Y459737D01*
X322557Y459611D01*
X322159Y459448D01*
X321769Y459249D01*
X321387Y459015D01*
X321012Y458743D01*
X320646Y458436D01*
X320288Y458093D01*
Y464707D01*
X320646Y464364D01*
X321012Y464056D01*
X321387Y463786D01*
X321769Y463551D01*
X322159Y463352D01*
X322557Y463189D01*
X322963Y463063D01*
X323377Y462972D01*
X323607Y462943D01*
X323837Y462972D01*
X324251Y463063D01*
X324657Y463189D01*
X325055Y463352D01*
X325445Y463551D01*
X325828Y463786D01*
X326202Y464056D01*
X326568Y464364D01*
X326926Y464707D01*
Y458093D01*
D02*
G37*
G36*
X334032Y464364D02*
X334398Y464056D01*
X334772Y463786D01*
X335155Y463551D01*
X335545Y463352D01*
X335943Y463189D01*
X336349Y463063D01*
X336763Y462972D01*
X337185Y462918D01*
X337615Y462900D01*
Y459900D01*
X337185Y459882D01*
X336763Y459828D01*
X336349Y459737D01*
X335943Y459611D01*
X335545Y459448D01*
X335155Y459249D01*
X334772Y459015D01*
X334398Y458743D01*
X334032Y458436D01*
X333674Y458093D01*
Y464707D01*
X334032Y464364D01*
D02*
G37*
G36*
X513274Y444800D02*
X512436Y443961D01*
X511708Y442873D01*
X511207Y441663D01*
X510952Y440379D01*
Y440124D01*
X517598D01*
Y439724D01*
X517998D01*
Y433078D01*
X518253D01*
X518714Y433170D01*
X519100Y432852D01*
Y426872D01*
X518714Y426555D01*
X518253Y426647D01*
X517998D01*
Y420000D01*
Y413353D01*
X518253D01*
X518714Y413445D01*
X519100Y413128D01*
Y407187D01*
X518714Y406870D01*
X518253Y406961D01*
X517998D01*
Y400315D01*
X517598D01*
Y399915D01*
X510952D01*
Y399660D01*
X511207Y398376D01*
X511708Y397167D01*
X512436Y396078D01*
X513362Y395152D01*
X513472Y395078D01*
X513327Y394600D01*
X497135D01*
X495188Y392653D01*
X494803Y393004D01*
X494391Y393317D01*
X493949Y393593D01*
X493479Y393831D01*
X492981Y394031D01*
X492453Y394194D01*
X491898Y394319D01*
X491313Y394407D01*
X490700Y394457D01*
X490059Y394469D01*
X495505Y399915D01*
X490000D01*
Y400315D01*
X489600D01*
Y406961D01*
X489345D01*
X488687Y406830D01*
X488300Y407148D01*
Y413167D01*
X488687Y413485D01*
X489345Y413353D01*
X489600D01*
Y420000D01*
Y426647D01*
X489345D01*
X488687Y426515D01*
X488300Y426833D01*
Y432892D01*
X488687Y433209D01*
X489345Y433078D01*
X489600D01*
Y439724D01*
X490000D01*
Y440124D01*
X496646D01*
Y440379D01*
X496391Y441663D01*
X495890Y442873D01*
X495163Y443961D01*
X494324Y444800D01*
X494447Y445300D01*
X513151D01*
X513274Y444800D01*
D02*
G37*
G36*
X366953Y429776D02*
X366719Y429759D01*
X366470Y429704D01*
X366206Y429611D01*
X365927Y429480D01*
X365632Y429311D01*
X365322Y429104D01*
X364996Y428858D01*
X364300Y428253D01*
X363929Y427893D01*
X360393Y431429D01*
X360753Y431800D01*
X361358Y432496D01*
X361603Y432822D01*
X361811Y433132D01*
X361980Y433427D01*
X362111Y433706D01*
X362204Y433970D01*
X362259Y434219D01*
X362276Y434453D01*
X366953Y429776D01*
D02*
G37*
G36*
X326926Y418998D02*
X326749Y419152D01*
X326534Y419289D01*
X326282Y419410D01*
X325991Y419515D01*
X325663Y419604D01*
X325297Y419676D01*
X324894Y419733D01*
X323973Y419797D01*
X323607Y419803D01*
X323241Y419797D01*
X322320Y419733D01*
X321917Y419676D01*
X321551Y419604D01*
X321223Y419515D01*
X320933Y419410D01*
X320680Y419289D01*
X320465Y419152D01*
X320288Y418998D01*
Y425613D01*
X320465Y425459D01*
X320680Y425322D01*
X320933Y425201D01*
X321223Y425096D01*
X321551Y425007D01*
X321917Y424935D01*
X322320Y424878D01*
X323241Y424814D01*
X323607Y424808D01*
X323973Y424814D01*
X324894Y424878D01*
X325297Y424935D01*
X325663Y425007D01*
X325991Y425096D01*
X326282Y425201D01*
X326534Y425322D01*
X326749Y425459D01*
X326926Y425613D01*
Y418998D01*
D02*
G37*
G36*
X333851Y425459D02*
X334066Y425322D01*
X334318Y425201D01*
X334609Y425096D01*
X334937Y425007D01*
X335303Y424935D01*
X335706Y424878D01*
X336627Y424814D01*
X337143Y424805D01*
Y419805D01*
X336627Y419797D01*
X335706Y419733D01*
X335303Y419676D01*
X334937Y419604D01*
X334609Y419515D01*
X334318Y419410D01*
X334066Y419289D01*
X333851Y419152D01*
X333674Y418998D01*
Y425613D01*
X333851Y425459D01*
D02*
G37*
G36*
X333454Y418754D02*
X333316Y418540D01*
X333195Y418287D01*
X333090Y417997D01*
X333002Y417669D01*
X332929Y417303D01*
X332873Y416899D01*
X332808Y415979D01*
X332800Y415462D01*
X327800D01*
X327792Y415979D01*
X327727Y416899D01*
X327671Y417303D01*
X327598Y417669D01*
X327509Y417997D01*
X327404Y418287D01*
X327284Y418540D01*
X327146Y418754D01*
X326993Y418932D01*
X333607D01*
X333454Y418754D01*
D02*
G37*
G36*
X58828Y408341D02*
X59298Y408164D01*
X59941Y408008D01*
X60760Y407874D01*
X62919Y407666D01*
X67466Y407510D01*
X69330Y407500D01*
Y402500D01*
X67466Y402490D01*
X59941Y401992D01*
X59298Y401836D01*
X58828Y401659D01*
X58533Y401462D01*
Y408538D01*
X58828Y408341D01*
D02*
G37*
G36*
X332803Y403170D02*
X333027Y399170D01*
X333080Y399120D01*
X325300D01*
X325775Y399170D01*
X326200Y399320D01*
X326575Y399570D01*
X326900Y399920D01*
X327175Y400370D01*
X327400Y400920D01*
X327575Y401570D01*
X327700Y402320D01*
X327775Y403170D01*
X327800Y404120D01*
X332800D01*
X332803Y403170D01*
D02*
G37*
G36*
X333080Y390680D02*
X333027Y390630D01*
X332979Y390480D01*
X332937Y390230D01*
X332901Y389880D01*
X332825Y388230D01*
X332800Y385680D01*
X327800D01*
X327775Y386631D01*
X327700Y387483D01*
X327575Y388234D01*
X327400Y388886D01*
X327175Y389437D01*
X326900Y389888D01*
X326575Y390239D01*
X326200Y390490D01*
X325775Y390641D01*
X325300Y390692D01*
X333080Y390680D01*
D02*
G37*
G36*
X332785Y383997D02*
X332660Y382397D01*
X332552Y381747D01*
X332412Y381197D01*
X332242Y380747D01*
X332040Y380397D01*
X331808Y380147D01*
X331544Y379997D01*
X331249Y379947D01*
X325300D01*
X325775Y379997D01*
X326200Y380147D01*
X326575Y380397D01*
X326900Y380747D01*
X327175Y381197D01*
X327400Y381747D01*
X327575Y382397D01*
X327700Y383147D01*
X327775Y383997D01*
X327800Y384947D01*
X332800D01*
X332785Y383997D01*
D02*
G37*
G36*
X319793D02*
X319994Y381197D01*
X320085Y380747D01*
X320194Y380397D01*
X320319Y380147D01*
X320461Y379997D01*
X320620Y379947D01*
X313951D01*
X314109Y379997D01*
X314251Y380147D01*
X314376Y380397D01*
X314485Y380747D01*
X314576Y381197D01*
X314651Y381747D01*
X314752Y383147D01*
X314785Y384947D01*
X319785D01*
X319793Y383997D01*
D02*
G37*
G36*
X116508Y376327D02*
X116573Y375406D01*
X116629Y375003D01*
X116702Y374637D01*
X116791Y374309D01*
X116895Y374018D01*
X117016Y373766D01*
X117154Y373551D01*
X117307Y373374D01*
X110693D01*
X110846Y373551D01*
X110984Y373766D01*
X111105Y374018D01*
X111209Y374309D01*
X111298Y374637D01*
X111371Y375003D01*
X111427Y375406D01*
X111492Y376327D01*
X111500Y376843D01*
X116500D01*
X116508Y376327D01*
D02*
G37*
G36*
X331249Y374853D02*
X331544Y374803D01*
X331808Y374653D01*
X332040Y374403D01*
X332242Y374053D01*
X332412Y373603D01*
X332552Y373053D01*
X332660Y372403D01*
X332738Y371653D01*
X332797Y369947D01*
X332800D01*
X332799Y369883D01*
X332800Y369853D01*
X332799D01*
X332785Y368997D01*
X332660Y367397D01*
X332552Y366747D01*
X332412Y366197D01*
X332242Y365747D01*
X332040Y365397D01*
X331808Y365147D01*
X331544Y364997D01*
X331249Y364947D01*
X325300D01*
X325775Y364997D01*
X326200Y365147D01*
X326575Y365397D01*
X326900Y365747D01*
X327175Y366197D01*
X327400Y366747D01*
X327575Y367397D01*
X327700Y368147D01*
X327775Y368997D01*
X327799Y369900D01*
X327775Y370804D01*
X327700Y371656D01*
X327575Y372407D01*
X327400Y373058D01*
X327175Y373609D01*
X326900Y374061D01*
X326575Y374412D01*
X326200Y374663D01*
X325775Y374814D01*
X325300Y374865D01*
X331249Y374853D01*
D02*
G37*
G36*
X320461Y374803D02*
X320319Y374653D01*
X320194Y374403D01*
X320085Y374053D01*
X319994Y373603D01*
X319919Y373053D01*
X319818Y371653D01*
X319786Y369883D01*
X319793Y368997D01*
X319994Y366197D01*
X320085Y365747D01*
X320194Y365397D01*
X320319Y365147D01*
X320461Y364997D01*
X320620Y364947D01*
X313951D01*
X314109Y364997D01*
X314251Y365147D01*
X314376Y365397D01*
X314485Y365747D01*
X314576Y366197D01*
X314651Y366747D01*
X314752Y368147D01*
X314785Y369917D01*
X314777Y370803D01*
X314576Y373603D01*
X314485Y374053D01*
X314376Y374403D01*
X314251Y374653D01*
X314109Y374803D01*
X313951Y374853D01*
X320620D01*
X320461Y374803D01*
D02*
G37*
G36*
X139154Y366449D02*
X139016Y366234D01*
X138895Y365982D01*
X138791Y365691D01*
X138702Y365363D01*
X138629Y364997D01*
X138573Y364594D01*
X138508Y363673D01*
X138500Y363157D01*
X133500D01*
X133492Y363673D01*
X133427Y364594D01*
X133371Y364997D01*
X133298Y365363D01*
X133209Y365691D01*
X133105Y365982D01*
X132984Y366234D01*
X132846Y366449D01*
X132693Y366626D01*
X139307D01*
X139154Y366449D01*
D02*
G37*
G36*
X320506Y363476D02*
X320497Y363278D01*
X320581Y363012D01*
X320757Y362677D01*
X321025Y362274D01*
X321387Y361803D01*
X322387Y360657D01*
X323758Y359238D01*
X320222Y355702D01*
X319333Y356579D01*
X316056Y359429D01*
X315635Y359692D01*
X315293Y359852D01*
X315028Y359910D01*
X314841Y359865D01*
X320607Y363606D01*
X320506Y363476D01*
D02*
G37*
G36*
X331249Y359853D02*
X331544Y359803D01*
X331808Y359653D01*
X332040Y359403D01*
X332242Y359053D01*
X332412Y358603D01*
X332552Y358053D01*
X332660Y357403D01*
X332738Y356653D01*
X332800Y354853D01*
X327800D01*
X327775Y355804D01*
X327700Y356656D01*
X327575Y357407D01*
X327400Y358058D01*
X327175Y358609D01*
X326900Y359061D01*
X326575Y359412D01*
X326200Y359663D01*
X325775Y359814D01*
X325300Y359865D01*
X331249Y359853D01*
D02*
G37*
G36*
X138528Y360390D02*
X139202Y351898D01*
X139510Y350332D01*
X139875Y348990D01*
X140296Y347870D01*
X140773Y346973D01*
X141307Y346300D01*
X130693D01*
X131227Y346973D01*
X131704Y347870D01*
X132125Y348990D01*
X132490Y350332D01*
X132798Y351898D01*
X133051Y353686D01*
X133388Y357933D01*
X133500Y363071D01*
X138500D01*
X138528Y360390D01*
D02*
G37*
G36*
X390507Y285160D02*
X390604Y283810D01*
X390662Y283480D01*
X390734Y283210D01*
X390818Y283000D01*
X390915Y282850D01*
X391026Y282760D01*
X391149Y282730D01*
X387039D01*
X387127Y282760D01*
X387205Y282850D01*
X387274Y283000D01*
X387334Y283210D01*
X387385Y283480D01*
X387426Y283810D01*
X387482Y284650D01*
X387500Y285730D01*
X390500D01*
X390507Y285160D01*
D02*
G37*
G36*
X429100Y282000D02*
X429076Y280681D01*
X425954Y281098D01*
X425982Y281132D01*
X426007Y281191D01*
X426028Y281274D01*
X426047Y281382D01*
X426063Y281515D01*
X426094Y282061D01*
X426100Y282548D01*
X429100Y282000D01*
D02*
G37*
G36*
X428784Y277603D02*
X428763Y277571D01*
X428744Y277515D01*
X428728Y277433D01*
X428714Y277326D01*
X428692Y277039D01*
X428674Y276163D01*
X425674Y276394D01*
X425639Y277783D01*
X428784Y277603D01*
D02*
G37*
G36*
X402616Y282554D02*
X402766Y282397D01*
X403016Y282258D01*
X403366Y282137D01*
X403816Y282035D01*
X404366Y281952D01*
X405766Y281841D01*
X407566Y281804D01*
Y276804D01*
X406616Y276795D01*
X404366Y276654D01*
X403816Y276569D01*
X403366Y276466D01*
X403016Y276343D01*
X402766Y276202D01*
X402616Y276043D01*
X402566Y275864D01*
Y282730D01*
X402616Y282554D01*
D02*
G37*
G36*
X389889Y275845D02*
X389634Y275754D01*
X389409Y275602D01*
X389214Y275391D01*
X389049Y275120D01*
X388914Y274789D01*
X388809Y274398D01*
X388734Y273946D01*
X388689Y273435D01*
X388674Y272864D01*
X385674D01*
X387039Y275864D01*
X390174Y275876D01*
X389889Y275845D01*
D02*
G37*
G36*
X428808Y257124D02*
X425053D01*
X425171Y257154D01*
X425277Y257244D01*
X425370Y257394D01*
X425451Y257604D01*
X425519Y257874D01*
X425575Y258204D01*
X425618Y258594D01*
X425668Y259554D01*
X425674Y260124D01*
X428674D01*
X428808Y257124D01*
D02*
G37*
G36*
X85430Y256092D02*
X86373Y255713D01*
X87531Y255414D01*
X88905Y255194D01*
X90494Y255054D01*
X92299Y254994D01*
X96557Y255112D01*
X101679Y255549D01*
X102212Y250577D01*
X99549Y250263D01*
X91177Y248688D01*
X89653Y248214D01*
X88357Y247708D01*
X87289Y247170D01*
X86449Y246600D01*
X85836Y245998D01*
X85537Y248784D01*
X84105Y248536D01*
X83850Y248465D01*
X83636Y248390D01*
X83464Y248312D01*
X83333Y248231D01*
X83244Y248146D01*
X82627Y253901D01*
X82732Y253837D01*
X82877Y253785D01*
X83062Y253746D01*
X83286Y253718D01*
X83551Y253703D01*
X84200Y253709D01*
X85003Y253764D01*
X84704Y256550D01*
X85430Y256092D01*
D02*
G37*
G36*
X418832Y251676D02*
X418797Y251861D01*
X418692Y252027D01*
X418517Y252173D01*
X418272Y252299D01*
X417957Y252406D01*
X417572Y252494D01*
X417118Y252562D01*
X416593Y252611D01*
X415333Y252650D01*
Y256150D01*
X415998Y256160D01*
X417118Y256238D01*
X417572Y256306D01*
X417957Y256394D01*
X418272Y256501D01*
X418517Y256627D01*
X418692Y256773D01*
X418797Y256939D01*
X418832Y257124D01*
Y251676D01*
D02*
G37*
G36*
X397326Y256846D02*
X397431Y256689D01*
X397606Y256551D01*
X397851Y256431D01*
X398166Y256329D01*
X398551Y256246D01*
X399006Y256181D01*
X399531Y256135D01*
X400791Y256098D01*
Y252598D01*
X400126Y252588D01*
X399006Y252506D01*
X398551Y252434D01*
X398166Y252342D01*
X397851Y252229D01*
X397606Y252096D01*
X397431Y251942D01*
X397326Y251767D01*
X397291Y251572D01*
Y257021D01*
X397326Y256846D01*
D02*
G37*
G36*
X116998Y251352D02*
X116806Y251485D01*
X116577Y251599D01*
X116313Y251692D01*
X116014Y251766D01*
X115678Y251819D01*
X115306Y251852D01*
X114899Y251865D01*
X113977Y251831D01*
X113462Y251784D01*
X112929Y256756D01*
X113442Y256819D01*
X114350Y256981D01*
X114745Y257081D01*
X115101Y257192D01*
X115418Y257315D01*
X115696Y257450D01*
X115934Y257598D01*
X116133Y257757D01*
X116293Y257928D01*
X116998Y251352D01*
D02*
G37*
G36*
X413837Y253163D02*
X413786Y253111D01*
X405849Y250124D01*
X406284Y250594D01*
X406600Y251014D01*
X406796Y251386D01*
X406873Y251707D01*
X406830Y251980D01*
X406668Y252202D01*
X406386Y252376D01*
X405984Y252499D01*
X405464Y252574D01*
X404823Y252598D01*
X412548Y254348D01*
X413837Y253163D01*
D02*
G37*
G36*
X428737Y251646D02*
X428673Y251556D01*
X428616Y251406D01*
X428567Y251196D01*
X428525Y250926D01*
X428465Y250206D01*
X428431Y248676D01*
X425431D01*
X425427Y249246D01*
X425295Y251196D01*
X425246Y251406D01*
X425189Y251556D01*
X425125Y251646D01*
X425053Y251676D01*
X428808D01*
X428737Y251646D01*
D02*
G37*
G36*
X448111Y248213D02*
X447847Y247884D01*
X447613Y247539D01*
X447410Y247178D01*
X447239Y246801D01*
X447099Y246408D01*
X446990Y245999D01*
X446912Y245574D01*
X446866Y245134D01*
X446850Y244677D01*
X443350D01*
X443334Y245134D01*
X443288Y245574D01*
X443210Y245999D01*
X443101Y246408D01*
X442961Y246801D01*
X442790Y247178D01*
X442587Y247539D01*
X442353Y247884D01*
X442089Y248213D01*
X441793Y248526D01*
X448407D01*
X448111Y248213D01*
D02*
G37*
G36*
X464601Y226705D02*
X464677Y225559D01*
X464694Y225529D01*
X461546Y225430D01*
X461556Y225454D01*
X461565Y225504D01*
X461574Y225580D01*
X461591Y225962D01*
X461600Y226834D01*
X464600Y226961D01*
X464601Y226705D01*
D02*
G37*
G36*
X238170Y226313D02*
X238039Y225655D01*
Y225400D01*
X244685D01*
Y225000D01*
X245085D01*
Y218354D01*
X245340D01*
X246624Y218609D01*
X247833Y219110D01*
X248922Y219837D01*
X249800Y220715D01*
X250169Y220666D01*
X250300Y220626D01*
Y201776D01*
X250169Y201736D01*
X249800Y201686D01*
X248922Y202564D01*
X247833Y203292D01*
X246624Y203793D01*
X245340Y204048D01*
X245085D01*
Y197402D01*
X244685D01*
Y197002D01*
X238039D01*
Y196747D01*
X238150Y196186D01*
X237833Y195800D01*
X231852D01*
X231535Y196186D01*
X231646Y196747D01*
Y197002D01*
X225000D01*
X218354D01*
Y196747D01*
X218465Y196186D01*
X218148Y195800D01*
X212128D01*
X211811Y196186D01*
X211922Y196747D01*
Y197002D01*
X205276D01*
Y197402D01*
X204876D01*
Y204048D01*
X204621D01*
X203337Y203793D01*
X202127Y203292D01*
X201039Y202564D01*
X200300Y201825D01*
X199800Y202033D01*
Y220369D01*
X200300Y220576D01*
X201039Y219837D01*
X202127Y219110D01*
X203337Y218609D01*
X204621Y218354D01*
X204876D01*
Y225000D01*
X205276D01*
Y225400D01*
X211922D01*
Y225655D01*
X211791Y226313D01*
X212108Y226700D01*
X218167D01*
X218485Y226313D01*
X218354Y225655D01*
Y225400D01*
X225000D01*
X231646D01*
Y225655D01*
X231515Y226313D01*
X231833Y226700D01*
X237852D01*
X238170Y226313D01*
D02*
G37*
G36*
X431715Y202641D02*
X431862Y200121D01*
X431907Y199946D01*
X431959Y199841D01*
X432017Y199806D01*
X427907D01*
X427965Y199841D01*
X428017Y199946D01*
X428063Y200121D01*
X428102Y200366D01*
X428136Y200681D01*
X428200Y202046D01*
X428212Y203306D01*
X431712D01*
X431715Y202641D01*
D02*
G37*
G36*
X447651Y198890D02*
X448434Y198873D01*
Y193873D01*
X447651Y193866D01*
Y191759D01*
X447601Y192161D01*
X447451Y192520D01*
X447201Y192837D01*
X446851Y193112D01*
X446401Y193345D01*
X445851Y193535D01*
X445207Y193682D01*
X444685Y193640D01*
X444235Y193537D01*
X443885Y193416D01*
X443635Y193276D01*
X443484Y193118D01*
X443434Y192940D01*
Y193856D01*
X442651Y193873D01*
Y198873D01*
X443434Y198891D01*
Y199806D01*
X443484Y199629D01*
X443635Y199470D01*
X443885Y199330D01*
X444235Y199209D01*
X444685Y199106D01*
X445062Y199049D01*
X445201Y199064D01*
X445851Y199212D01*
X446401Y199402D01*
X446851Y199634D01*
X447201Y199909D01*
X447451Y200226D01*
X447601Y200586D01*
X447651Y200987D01*
Y198890D01*
D02*
G37*
G36*
X431103Y192952D02*
X430910Y193228D01*
X430651Y193387D01*
X430324Y193430D01*
X429930Y193356D01*
X429468Y193165D01*
X428940Y192858D01*
X428344Y192435D01*
X427681Y191895D01*
X426153Y190465D01*
X424195Y193457D01*
X425045Y194332D01*
X426960Y196616D01*
X427385Y197263D01*
X427704Y197853D01*
X427917Y198387D01*
X428024Y198863D01*
X428025Y199282D01*
X427919Y199644D01*
X431103Y192952D01*
D02*
G37*
G36*
X468445Y191724D02*
X468226Y191619D01*
X468033Y191444D01*
X467865Y191199D01*
X467724Y190884D01*
X467607Y190499D01*
X467517Y190044D01*
X467453Y189519D01*
X467414Y188924D01*
X467401Y188259D01*
X463901D01*
X463888Y188924D01*
X463785Y190044D01*
X463695Y190499D01*
X463579Y190884D01*
X463437Y191199D01*
X463270Y191444D01*
X463076Y191619D01*
X462857Y191724D01*
X462612Y191759D01*
X468690D01*
X468445Y191724D01*
D02*
G37*
G36*
X385787Y165817D02*
X386042Y165622D01*
X386318Y165451D01*
X386614Y165302D01*
X386931Y165176D01*
X387269Y165073D01*
X387627Y164993D01*
X388006Y164936D01*
X388405Y164902D01*
X388825Y164890D01*
Y161390D01*
X388405Y161379D01*
X388006Y161344D01*
X387627Y161287D01*
X387269Y161207D01*
X386931Y161104D01*
X386614Y160978D01*
X386318Y160830D01*
X386042Y160658D01*
X385787Y160464D01*
X385552Y160247D01*
Y166034D01*
X385787Y165817D01*
D02*
G37*
G36*
X415314D02*
X415569Y165622D01*
X415845Y165451D01*
X416142Y165302D01*
X416459Y165176D01*
X416796Y165073D01*
X417155Y164993D01*
X417533Y164936D01*
X417933Y164902D01*
X418353Y164890D01*
Y161405D01*
X422560Y164890D01*
X430285Y161390D01*
X429644Y161365D01*
X429124Y161291D01*
X428722Y161167D01*
X428441Y160994D01*
X428278Y160771D01*
X428236Y160499D01*
X428312Y160178D01*
X428509Y159806D01*
X428824Y159386D01*
X429260Y158915D01*
X424310D01*
X423805Y159386D01*
X423279Y159806D01*
X422733Y160178D01*
X422166Y160499D01*
X421579Y160771D01*
X420971Y160994D01*
X420343Y161167D01*
X419694Y161291D01*
X419025Y161365D01*
X418343Y161390D01*
X417933Y161379D01*
X417533Y161344D01*
X417155Y161287D01*
X416796Y161207D01*
X416459Y161104D01*
X416142Y160978D01*
X415845Y160830D01*
X415569Y160658D01*
X415314Y160464D01*
X415080Y160247D01*
Y166034D01*
X415314Y165817D01*
D02*
G37*
G36*
X437386Y104680D02*
X436894Y104687D01*
X436422Y104660D01*
X435968Y104599D01*
X435534Y104506D01*
X435119Y104379D01*
X434724Y104219D01*
X434347Y104026D01*
X433990Y103800D01*
X433652Y103541D01*
X433333Y103248D01*
X431291Y105449D01*
X431581Y105763D01*
X431841Y106098D01*
X432073Y106454D01*
X432275Y106830D01*
X432448Y107227D01*
X432592Y107644D01*
X432707Y108082D01*
X432793Y108541D01*
X432850Y109020D01*
X432877Y109520D01*
X437386Y104680D01*
D02*
G37*
G36*
X410915Y90711D02*
X413310Y88585D01*
X413453Y88608D01*
X413805Y88695D01*
X414147Y88813D01*
X414479Y88962D01*
X414801Y89142D01*
X415113Y89352D01*
X415414Y89592D01*
X415706Y89863D01*
X417735Y87650D01*
X417465Y87361D01*
X417223Y87062D01*
X417008Y86751D01*
X416819Y86430D01*
X416658Y86098D01*
X416524Y85755D01*
X416417Y85401D01*
X416338Y85036D01*
X416285Y84661D01*
X416259Y84274D01*
X413015Y87792D01*
X408589Y86537D01*
X408735Y86819D01*
X408833Y87104D01*
X408884Y87391D01*
X408887Y87681D01*
X408843Y87973D01*
X408751Y88268D01*
X408611Y88565D01*
X408424Y88864D01*
X408189Y89167D01*
X407907Y89471D01*
X410403Y91218D01*
X410915Y90711D01*
D02*
G37*
G36*
X379648Y81506D02*
X379368Y81771D01*
X379076Y82008D01*
X378770Y82217D01*
X378451Y82398D01*
X378120Y82552D01*
X377775Y82677D01*
X377418Y82775D01*
X377047Y82844D01*
X376664Y82886D01*
X376268Y82900D01*
Y85900D01*
X376664Y85914D01*
X377047Y85956D01*
X377418Y86025D01*
X377775Y86123D01*
X378120Y86248D01*
X378451Y86402D01*
X378770Y86583D01*
X379076Y86792D01*
X379368Y87029D01*
X379648Y87294D01*
Y81506D01*
D02*
G37*
G36*
X58465Y66214D02*
X58354Y65655D01*
Y65400D01*
X65000D01*
Y65000D01*
X65400D01*
Y58354D01*
X65655D01*
X66939Y58609D01*
X68148Y59110D01*
X69237Y59837D01*
X70163Y60763D01*
X70222Y60851D01*
X70700Y60706D01*
Y41695D01*
X70222Y41550D01*
X70163Y41638D01*
X69237Y42564D01*
X68148Y43292D01*
X66939Y43793D01*
X65655Y44048D01*
X65400D01*
Y37402D01*
X65000D01*
Y37002D01*
X58354D01*
Y36747D01*
X58445Y36287D01*
X58128Y35900D01*
X52148D01*
X51830Y36287D01*
X51922Y36747D01*
Y37002D01*
X38629D01*
Y36747D01*
X38721Y36287D01*
X38403Y35900D01*
X32463D01*
X32145Y36287D01*
X32237Y36747D01*
Y37002D01*
X25591D01*
Y37402D01*
X25190D01*
Y44048D01*
X24936D01*
X23652Y43793D01*
X22442Y43292D01*
X21354Y42564D01*
X20600Y41811D01*
X20100Y42018D01*
Y60384D01*
X20600Y60591D01*
X21354Y59837D01*
X22442Y59110D01*
X23652Y58609D01*
X24936Y58354D01*
X25190D01*
Y65000D01*
X25591D01*
Y65400D01*
X32237D01*
Y65655D01*
X32126Y66214D01*
X32443Y66600D01*
X38423D01*
X38740Y66214D01*
X38629Y65655D01*
Y65400D01*
X51922D01*
Y65655D01*
X51811Y66214D01*
X52128Y66600D01*
X58148D01*
X58465Y66214D01*
D02*
G37*
G36*
X382559Y60581D02*
X382239Y60569D01*
X381921Y60526D01*
X381605Y60453D01*
X381290Y60348D01*
X380977Y60213D01*
X380666Y60047D01*
X380356Y59850D01*
X380047Y59623D01*
X379741Y59364D01*
X379435Y59075D01*
X376960Y61550D01*
X377250Y61856D01*
X377508Y62162D01*
X377735Y62471D01*
X377932Y62781D01*
X378098Y63092D01*
X378233Y63405D01*
X378338Y63720D01*
X378411Y64036D01*
X378454Y64354D01*
X378466Y64674D01*
X382559Y60581D01*
D02*
G37*
G36*
X414804Y61528D02*
X414609Y61273D01*
X414438Y60997D01*
X414289Y60701D01*
X414163Y60384D01*
X414060Y60046D01*
X413980Y59688D01*
X413923Y59309D01*
X413889Y58910D01*
X413878Y58490D01*
X410378D01*
X410366Y58910D01*
X410332Y59309D01*
X410275Y59688D01*
X410195Y60046D01*
X410092Y60384D01*
X409966Y60701D01*
X409817Y60997D01*
X409646Y61273D01*
X409451Y61528D01*
X409234Y61763D01*
X415021D01*
X414804Y61528D01*
D02*
G37*
G36*
X375461Y30228D02*
X375493Y29840D01*
X375547Y29474D01*
X375623Y29131D01*
X375720Y28810D01*
X375838Y28512D01*
X375979Y28236D01*
X376140Y27983D01*
X376324Y27752D01*
X376529Y27544D01*
X370952Y27346D01*
X371141Y27567D01*
X371311Y27809D01*
X371461Y28071D01*
X371591Y28355D01*
X371700Y28660D01*
X371790Y28986D01*
X371860Y29333D01*
X371910Y29701D01*
X371940Y30091D01*
X371950Y30501D01*
X375450Y30639D01*
X375461Y30228D01*
D02*
G37*
G36*
X393022Y27747D02*
X392740Y27449D01*
X392488Y27152D01*
X392268Y26855D01*
X392079Y26559D01*
X391921Y26263D01*
X391795Y25969D01*
X391700Y25674D01*
X391636Y25381D01*
X391603Y25088D01*
X391602Y24796D01*
X387504Y28585D01*
X387794Y28607D01*
X388085Y28659D01*
X388376Y28740D01*
X388669Y28850D01*
X388962Y28988D01*
X389256Y29156D01*
X389551Y29352D01*
X389846Y29577D01*
X390142Y29831D01*
X390440Y30114D01*
X393022Y27747D01*
D02*
G37*
G36*
X406861Y27586D02*
X406578Y27289D01*
X406325Y26992D01*
X406103Y26695D01*
X405910Y26400D01*
X405748Y26105D01*
X405615Y25811D01*
X405513Y25517D01*
X405440Y25224D01*
X405398Y24931D01*
X405386Y24640D01*
X401440Y28586D01*
X401731Y28598D01*
X402024Y28640D01*
X402317Y28713D01*
X402610Y28815D01*
X402905Y28947D01*
X403200Y29110D01*
X403495Y29303D01*
X403792Y29526D01*
X404089Y29778D01*
X404386Y30061D01*
X406861Y27586D01*
D02*
G37*
G36*
X417961Y27489D02*
X418210Y27334D01*
X418479Y27197D01*
X418768Y27078D01*
X419078Y26978D01*
X419408Y26896D01*
X419757Y26832D01*
X420127Y26787D01*
X420518Y26759D01*
X420928Y26750D01*
X421322Y23250D01*
X420911Y23239D01*
X420523Y23204D01*
X420160Y23147D01*
X419821Y23067D01*
X419506Y22965D01*
X419215Y22839D01*
X418948Y22691D01*
X418705Y22520D01*
X418486Y22326D01*
X418292Y22109D01*
X417732Y27662D01*
X417961Y27489D01*
D02*
G37*
%LPC*%
G36*
X517198Y439324D02*
X510952D01*
Y439070D01*
X511207Y437786D01*
X511708Y436576D01*
X512436Y435488D01*
X513362Y434562D01*
X514450Y433834D01*
X515660Y433333D01*
X516944Y433078D01*
X517198D01*
Y439324D01*
D02*
G37*
G36*
X496646Y439324D02*
X490400D01*
Y433078D01*
X490655D01*
X491939Y433333D01*
X493148Y433834D01*
X494237Y434562D01*
X495163Y435488D01*
X495890Y436576D01*
X496391Y437786D01*
X496646Y439070D01*
Y439324D01*
D02*
G37*
G36*
X517198Y426647D02*
X516944D01*
X515660Y426391D01*
X514450Y425890D01*
X513362Y425163D01*
X512436Y424237D01*
X511708Y423148D01*
X511207Y421939D01*
X510952Y420655D01*
Y420400D01*
X517198D01*
Y426647D01*
D02*
G37*
G36*
X490655D02*
X490400D01*
Y420400D01*
X496646D01*
Y420655D01*
X496391Y421939D01*
X495890Y423148D01*
X495163Y424237D01*
X494237Y425163D01*
X493148Y425890D01*
X491939Y426391D01*
X490655Y426647D01*
D02*
G37*
G36*
X517198Y419600D02*
X510952D01*
Y419345D01*
X511207Y418061D01*
X511708Y416852D01*
X512436Y415763D01*
X513362Y414837D01*
X514450Y414110D01*
X515660Y413609D01*
X516944Y413353D01*
X517198D01*
Y419600D01*
D02*
G37*
G36*
X496646Y419600D02*
X490400D01*
Y413353D01*
X490655D01*
X491939Y413609D01*
X493148Y414110D01*
X494237Y414837D01*
X495163Y415763D01*
X495890Y416852D01*
X496391Y418061D01*
X496646Y419345D01*
Y419600D01*
D02*
G37*
G36*
X517198Y406961D02*
X516944D01*
X515660Y406706D01*
X514450Y406205D01*
X513362Y405478D01*
X512436Y404552D01*
X511708Y403463D01*
X511207Y402254D01*
X510952Y400970D01*
Y400715D01*
X517198D01*
Y406961D01*
D02*
G37*
G36*
X490655D02*
X490400D01*
Y400715D01*
X496646D01*
Y400970D01*
X496391Y402254D01*
X495890Y403463D01*
X495163Y404552D01*
X494237Y405478D01*
X493148Y406205D01*
X491939Y406706D01*
X490655Y406961D01*
D02*
G37*
G36*
X496646Y399915D02*
X495853D01*
X495858Y399615D01*
X495908Y399002D01*
X495996Y398417D01*
X496121Y397861D01*
X496145Y397783D01*
X496391Y398376D01*
X496646Y399660D01*
Y399915D01*
D02*
G37*
G36*
X244285Y224600D02*
X238039D01*
Y224345D01*
X238294Y223061D01*
X238795Y221852D01*
X239522Y220763D01*
X240448Y219837D01*
X241537Y219110D01*
X242746Y218609D01*
X244030Y218354D01*
X244285D01*
Y224600D01*
D02*
G37*
G36*
X231646D02*
X225400D01*
Y218354D01*
X225655D01*
X226939Y218609D01*
X228148Y219110D01*
X229237Y219837D01*
X230163Y220763D01*
X230890Y221852D01*
X231391Y223061D01*
X231646Y224345D01*
Y224600D01*
D02*
G37*
G36*
X224600D02*
X218354D01*
Y224345D01*
X218609Y223061D01*
X219110Y221852D01*
X219837Y220763D01*
X220763Y219837D01*
X221852Y219110D01*
X223061Y218609D01*
X224345Y218354D01*
X224600D01*
Y224600D01*
D02*
G37*
G36*
X211922D02*
X205676D01*
Y218354D01*
X205930D01*
X207214Y218609D01*
X208424Y219110D01*
X209512Y219837D01*
X210438Y220763D01*
X211166Y221852D01*
X211667Y223061D01*
X211922Y224345D01*
Y224600D01*
D02*
G37*
G36*
X205930Y204048D02*
X205676D01*
Y197802D01*
X211922D01*
Y198056D01*
X211667Y199340D01*
X211166Y200550D01*
X210438Y201638D01*
X209512Y202564D01*
X208424Y203292D01*
X207214Y203793D01*
X205930Y204048D01*
D02*
G37*
G36*
X225655D02*
X225400D01*
Y197802D01*
X231646D01*
Y198056D01*
X231391Y199340D01*
X230890Y200550D01*
X230163Y201638D01*
X229237Y202564D01*
X228148Y203292D01*
X226939Y203793D01*
X225655Y204048D01*
D02*
G37*
G36*
X244285D02*
X244030D01*
X242746Y203793D01*
X241537Y203292D01*
X240448Y202564D01*
X239522Y201638D01*
X238795Y200550D01*
X238294Y199340D01*
X238039Y198056D01*
Y197802D01*
X244285D01*
Y204048D01*
D02*
G37*
G36*
X224600D02*
X224345D01*
X223061Y203793D01*
X221852Y203292D01*
X220763Y202564D01*
X219837Y201638D01*
X219110Y200550D01*
X218609Y199340D01*
X218354Y198056D01*
Y197802D01*
X224600D01*
Y204048D01*
D02*
G37*
G36*
X64600Y64600D02*
X58354D01*
Y64345D01*
X58609Y63061D01*
X59110Y61852D01*
X59837Y60763D01*
X60763Y59837D01*
X61852Y59110D01*
X63061Y58609D01*
X64345Y58354D01*
X64600D01*
Y64600D01*
D02*
G37*
G36*
X51922D02*
X45676D01*
Y58354D01*
X45930D01*
X47214Y58609D01*
X48424Y59110D01*
X49512Y59837D01*
X50438Y60763D01*
X51166Y61852D01*
X51667Y63061D01*
X51922Y64345D01*
Y64600D01*
D02*
G37*
G36*
X44876D02*
X38629D01*
Y64345D01*
X38885Y63061D01*
X39386Y61852D01*
X40113Y60763D01*
X41039Y59837D01*
X42127Y59110D01*
X43337Y58609D01*
X44621Y58354D01*
X44876D01*
Y64600D01*
D02*
G37*
G36*
X32237D02*
X25991D01*
Y58354D01*
X26245D01*
X27529Y58609D01*
X28739Y59110D01*
X29827Y59837D01*
X30753Y60763D01*
X31481Y61852D01*
X31982Y63061D01*
X32237Y64345D01*
Y64600D01*
D02*
G37*
G36*
X64600Y44048D02*
X64345D01*
X63061Y43793D01*
X61852Y43292D01*
X60763Y42564D01*
X59837Y41638D01*
X59110Y40550D01*
X58609Y39340D01*
X58354Y38056D01*
Y37802D01*
X64600D01*
Y44048D01*
D02*
G37*
G36*
X45930D02*
X45676D01*
Y37802D01*
X51922D01*
Y38056D01*
X51667Y39340D01*
X51166Y40550D01*
X50438Y41638D01*
X49512Y42564D01*
X48424Y43292D01*
X47214Y43793D01*
X45930Y44048D01*
D02*
G37*
G36*
X44876D02*
X44621D01*
X43337Y43793D01*
X42127Y43292D01*
X41039Y42564D01*
X40113Y41638D01*
X39386Y40550D01*
X38885Y39340D01*
X38629Y38056D01*
Y37802D01*
X44876D01*
Y44048D01*
D02*
G37*
G36*
X26245D02*
X25991D01*
Y37802D01*
X32237D01*
Y38056D01*
X31982Y39340D01*
X31481Y40550D01*
X30753Y41638D01*
X29827Y42564D01*
X28739Y43292D01*
X27529Y43793D01*
X26245Y44048D01*
D02*
G37*
%LPD*%
D15*
X231614Y543405D02*
X245000D01*
X225000Y682500D02*
X231279Y676221D01*
X311970Y334370D02*
X319200Y341600D01*
X330300Y362400D02*
Y422305D01*
Y343616D02*
Y362400D01*
X328210Y330610D02*
Y339164D01*
X292600Y295000D02*
X328210Y330610D01*
X354805Y422305D02*
X367000Y434500D01*
X330300Y422305D02*
X354805D01*
X250000Y295000D02*
X292600D01*
X311537Y394900D02*
X317285Y389152D01*
Y377400D02*
Y389152D01*
X311439Y394900D02*
X311537D01*
X317285Y362400D02*
Y377400D01*
X318131Y361328D02*
X321990Y357470D01*
X318072Y362400D02*
X318131Y362341D01*
X321990Y349900D02*
Y357470D01*
X318131Y361328D02*
Y362341D01*
X317285Y362400D02*
X318072D01*
X321990Y341900D02*
Y349900D01*
X321616Y341900D02*
X321990D01*
X250000Y334370D02*
X311970D01*
X328584Y341900D02*
X330300Y343616D01*
X328210Y341900D02*
X328584D01*
X316914Y422305D02*
X330300D01*
X400519Y279304D02*
X417295D01*
X441379Y196373D02*
X450691D01*
X169173Y704213D02*
X190886Y682500D01*
X225000D01*
X255000Y592500D02*
Y607500D01*
X245000Y582500D02*
X255000Y592500D01*
X231614Y582500D02*
X245000D01*
X221929Y630000D02*
X227185Y635256D01*
Y647500D01*
X221535Y630000D02*
X221929D01*
X227185Y657500D02*
Y657725D01*
Y647500D02*
Y657500D01*
Y657725D02*
X231279Y661820D01*
Y667264D01*
Y667736D02*
Y676221D01*
X238465Y630000D02*
Y681535D01*
Y590239D02*
X245000Y583704D01*
X238465Y590239D02*
Y630000D01*
X245000Y582500D02*
Y583704D01*
X215787Y704213D02*
X238465Y681535D01*
X190827Y704213D02*
X215787D01*
X106890Y778819D02*
X107000Y778709D01*
X106780Y820000D02*
X106890Y819890D01*
X161898Y820000D02*
X162000D01*
X134339Y778709D02*
X135000D01*
X79000Y782000D02*
X79220D01*
X136000Y341000D02*
Y370000D01*
X103000Y405000D02*
X114000Y394000D01*
Y370000D02*
Y394000D01*
X55000Y405000D02*
X103000D01*
X80000Y250709D02*
X120000Y255000D01*
D17*
X371831Y533760D02*
D03*
Y541240D02*
D03*
X363169Y537500D02*
D03*
X301831Y533760D02*
D03*
Y541240D02*
D03*
X293169Y537500D02*
D03*
D18*
X450691Y196373D02*
D03*
X465651D02*
D03*
X390020Y590000D02*
D03*
X404980D02*
D03*
X310020D02*
D03*
X324980D02*
D03*
D19*
X441379Y196373D02*
D03*
X429962D02*
D03*
X389094Y279297D02*
D03*
X400511D02*
D03*
X323209Y527500D02*
D03*
X311791D02*
D03*
X323209Y550000D02*
D03*
X311791D02*
D03*
X391709Y557000D02*
D03*
X380291D02*
D03*
X381291Y537000D02*
D03*
X392709D02*
D03*
X364291Y590000D02*
D03*
X375709D02*
D03*
X286791D02*
D03*
X298209D02*
D03*
X239291Y835000D02*
D03*
X250709D02*
D03*
X292363Y816645D02*
D03*
X303780D02*
D03*
D20*
X237815Y657500D02*
D03*
X227185D02*
D03*
X317285Y377400D02*
D03*
X327915D02*
D03*
X317285Y362400D02*
D03*
X327915D02*
D03*
X227185Y647500D02*
D03*
X237815D02*
D03*
D21*
X231890Y677500D02*
D03*
X238110D02*
D03*
X395413Y254297D02*
D03*
X389193D02*
D03*
X420710Y254400D02*
D03*
X426931D02*
D03*
X321990Y341900D02*
D03*
X328210D02*
D03*
X321990Y349900D02*
D03*
X328210D02*
D03*
X238110Y667500D02*
D03*
X231890D02*
D03*
D22*
X311439Y394900D02*
D03*
X328761D02*
D03*
D23*
X107000Y767291D02*
D03*
Y778709D02*
D03*
X190000D02*
D03*
Y767291D02*
D03*
X162000Y779000D02*
D03*
Y767583D02*
D03*
X135000Y778709D02*
D03*
Y767291D02*
D03*
X79000Y778709D02*
D03*
Y767291D02*
D03*
D24*
X221535Y630000D02*
D03*
X238465D02*
D03*
D48*
X71776Y369870D02*
X71774Y369870D01*
X105143Y352166D02*
X104674Y353049D01*
X104178Y353918D01*
X103656Y354771D01*
X103108Y355609D01*
X102535Y356429D01*
X101938Y357231D01*
X101316Y358015D01*
X100671Y358780D01*
X100003Y359524D01*
X99313Y360249D01*
X98601Y360951D01*
X97868Y361632D01*
X97115Y362291D01*
X96342Y362926D01*
X95551Y363538D01*
X94741Y364125D01*
X93914Y364688D01*
X93070Y365225D01*
X92210Y365736D01*
X91335Y366221D01*
X90446Y366679D01*
X89543Y367110D01*
X88627Y367514D01*
X87700Y367890D01*
X86762Y368237D01*
X85814Y368556D01*
X84856Y368845D01*
X83890Y369106D01*
X82917Y369337D01*
X81937Y369539D01*
X80952Y369711D01*
X79962Y369852D01*
X78967Y369964D01*
X77970Y370046D01*
X76971Y370097D01*
X75971Y370118D01*
X74971Y370109D01*
X73971Y370069D01*
X72973Y369999D01*
X71978Y369899D01*
X111994Y338801D02*
X112399Y338060D01*
X205276Y225000D02*
Y320039D01*
X105149Y352155D02*
X111994Y338801D01*
X60673Y368314D02*
X71774Y369870D01*
X71776Y369870D02*
X71978Y369899D01*
X105143Y352166D02*
X105149Y352155D01*
X136000Y341000D02*
X149055Y354055D01*
X120000Y325000D02*
X136000Y341000D01*
X149055Y354055D02*
X171260D01*
X205276Y320039D01*
X112399Y338060D02*
X120000Y325000D01*
X30000Y250709D02*
X80000D01*
X25591Y65000D02*
X30000Y250709D01*
D49*
X95586Y310790D02*
X96108Y309930D01*
X96660Y309088D01*
X97241Y308267D01*
X97852Y307467D01*
X98491Y306689D01*
X99156Y305934D01*
X99849Y305204D01*
X100567Y304499D01*
X101310Y303819D01*
X102076Y303167D01*
X102865Y302542D01*
X103676Y301946D01*
X104508Y301379D01*
X105359Y300842D01*
X106229Y300336D01*
X107116Y299861D01*
X108020Y299418D01*
X108939Y299008D01*
X109871Y298630D01*
X110817Y298286D01*
X111775Y297976D01*
X86867Y325894D02*
X87401Y324885D01*
X87962Y323890D01*
X30264Y369072D02*
X30472Y365000D01*
X55000Y405000D02*
X59501Y368993D01*
X111775Y297976D02*
X120000Y295472D01*
X171260Y275315D01*
X87962Y323890D02*
X95586Y310790D01*
X80000Y339291D02*
X86867Y325894D01*
X28425Y405000D02*
X30264Y369072D01*
X30000Y339291D02*
X30472Y365000D01*
D50*
X507500Y88000D02*
Y382700D01*
X443500Y24000D02*
X507500Y88000D01*
X301376Y540350D02*
X302266Y541240D01*
X300000Y541726D02*
X301376Y540350D01*
X302266Y541240D02*
X303408D01*
X304152Y541984D02*
X304287D01*
X310925Y548622D02*
X311791Y549488D01*
X303408Y541240D02*
X304152Y541984D01*
X304287D02*
X310925Y548622D01*
X310925D01*
X311791Y549488D02*
Y550000D01*
X360000Y560000D02*
X377291D01*
X371634Y547831D02*
X380291Y556488D01*
X371634Y541280D02*
Y547831D01*
X477000Y90100D02*
Y470700D01*
X401400Y24600D02*
X427400Y50600D01*
X477000Y470700D02*
X485200Y478900D01*
X437500Y50600D02*
X477000Y90100D01*
X427400Y50600D02*
X437500D01*
X485200Y478900D02*
Y532240D01*
X373700Y24600D02*
Y55815D01*
X382600Y64715D01*
X387510Y24710D02*
X412128Y49328D01*
Y64715D01*
X415179Y25000D02*
X442500D01*
X422560Y163140D02*
X443840D01*
X412128D02*
X422560D01*
X454600Y96200D02*
Y131100D01*
X422560Y163140D02*
X454600Y131100D01*
X402600Y74400D02*
X432800D01*
X454600Y96200D01*
X490000Y400315D02*
X507500Y382815D01*
X292363Y816133D02*
Y816645D01*
X216836Y806400D02*
X282629D01*
X292363Y816133D01*
X203236Y820000D02*
X216836Y806400D01*
X412548Y254348D02*
X412600Y254400D01*
X405100Y246900D02*
X412548Y254348D01*
X412600D01*
X395465D02*
X412548D01*
X360100Y109400D02*
Y196900D01*
X405100Y241900D02*
Y246900D01*
X360100Y196900D02*
X405100Y241900D01*
X390100Y94400D02*
X397600Y86900D01*
Y79400D02*
Y86900D01*
X375100Y94400D02*
X390100D01*
X397600Y79400D02*
X402600Y74400D01*
X360100Y109400D02*
X375100Y94400D01*
X412600Y254400D02*
X420710D01*
X395413Y254297D02*
X395465Y254348D01*
X445100Y231944D02*
Y251900D01*
Y231944D02*
X453171Y223873D01*
X443840Y163140D02*
X465651Y184951D01*
Y196373D01*
X396353Y163140D02*
X428641Y195428D01*
X382600Y163140D02*
X396353D01*
X428641Y195428D02*
X429529D01*
X438171Y223873D02*
X453171D01*
X429962Y215665D02*
X438171Y223873D01*
X429962Y196373D02*
Y215665D01*
X406316Y579980D02*
X413796Y572500D01*
X415000D01*
X404980Y579980D02*
X406316D01*
X372560Y533720D02*
X374895Y536055D01*
X380858D02*
X381291Y536488D01*
X371634Y533720D02*
X372560D01*
X374895Y536055D02*
X380858D01*
X381291Y536488D02*
Y537000D01*
X380291Y556488D02*
Y557000D01*
X379858Y557945D02*
X380291Y557512D01*
X377291Y560000D02*
X379346Y557945D01*
X380291Y557000D02*
Y557512D01*
X379346Y557945D02*
X379858D01*
X350000Y550866D02*
X363366Y537500D01*
X350000Y550866D02*
Y560000D01*
Y565000D01*
X357500Y572500D01*
X397500D01*
X404980Y579980D02*
Y590000D01*
X397500Y572500D02*
X404980Y579980D01*
X404754Y590226D02*
Y612274D01*
X404528Y612500D02*
X404754Y612274D01*
Y590226D02*
X404980Y590000D01*
X306667Y527500D02*
X311791D01*
X301376Y532791D02*
X306667Y527500D01*
X290000Y539679D02*
X293108Y536571D01*
X290000Y539679D02*
Y560000D01*
X300000Y541726D02*
Y560000D01*
X290004Y560004D02*
X307500Y577500D01*
X315000D01*
X324980Y587480D01*
Y588425D02*
X325532Y587874D01*
X327106D01*
X324980Y587480D02*
Y590000D01*
X335000Y572500D02*
Y573704D01*
X332500Y576204D02*
Y582480D01*
Y576204D02*
X335000Y573704D01*
X327106Y587874D02*
X332500Y582480D01*
X324980Y590000D02*
X324990Y590010D01*
X394638Y558709D02*
X418709D01*
X425000Y565000D02*
Y584000D01*
X418709Y558709D02*
X425000Y565000D01*
X392142Y557945D02*
X392709D01*
X393874D01*
X425000Y584000D02*
X432000Y591000D01*
X476500D01*
X485000Y582500D01*
X391709Y556488D02*
X392709Y555488D01*
X391709Y557512D02*
X392142Y557945D01*
X393874D02*
X394638Y558709D01*
X392709Y537000D02*
Y555488D01*
X437224Y622500D02*
X460000Y599724D01*
X427500Y622500D02*
X437224D01*
X443720Y632500D02*
X460000Y616221D01*
X427500Y632500D02*
X443720D01*
X442500Y660000D02*
X475000Y627500D01*
Y609724D02*
X485000Y599724D01*
X475000Y609724D02*
Y627500D01*
X460000Y615480D02*
Y616221D01*
X250709Y834488D02*
X251142Y834055D01*
X258445D02*
X270000Y822500D01*
X251142Y834055D02*
X258445D01*
X250709Y834488D02*
Y835000D01*
X232291Y767291D02*
X309791D01*
X190000D02*
X232291D01*
X247500Y782500D01*
X304213Y817327D02*
X342209D01*
X303780Y816894D02*
X304213Y817327D01*
X342209D02*
X342382Y817500D01*
X303780Y816645D02*
Y816894D01*
X442500Y660000D02*
Y785000D01*
X402500Y825000D02*
X442500Y785000D01*
X425000Y835000D02*
X465000Y795000D01*
Y687500D02*
X485000Y667500D01*
X465000Y687500D02*
Y795000D01*
X485000Y616221D02*
Y667500D01*
X250709Y835000D02*
X425000D01*
X369941Y716868D02*
X375000Y711809D01*
X369941Y716868D02*
Y817500D01*
X375709Y590000D02*
X390020D01*
X364291D02*
Y601791D01*
X375000Y612500D01*
X286791Y603819D02*
X295472Y612500D01*
X286791Y590000D02*
Y603819D01*
X298209Y590000D02*
X310020D01*
X324990Y590010D02*
Y612490D01*
X325000Y612500D01*
X295472D02*
X303106Y620134D01*
X366482D01*
X374116Y612500D01*
X375000D01*
X122500Y730000D02*
X232500D01*
X271260Y691240D01*
X107000Y745500D02*
X122500Y730000D01*
X135000Y752500D02*
X145000Y742500D01*
X307500D02*
X369871Y680129D01*
X145000Y742500D02*
X307500D01*
X162500Y760000D02*
X167500Y755000D01*
X311240D01*
X375000Y691240D01*
X383720Y699961D01*
Y797815D01*
X369871Y680129D02*
X395953D01*
X367500Y825000D02*
X402500D01*
X309791Y767291D02*
X367500Y825000D01*
X162500Y760000D02*
Y767150D01*
X162000Y767583D02*
X162067D01*
X162500Y767150D01*
X395953Y680129D02*
X404528Y671555D01*
X135000Y752500D02*
Y767291D01*
X271260Y691240D02*
X295472D01*
X107000Y745500D02*
Y767291D01*
X106890Y778819D02*
Y819890D01*
X316555Y680000D02*
X325000Y671555D01*
X262500Y680000D02*
X316555D01*
X225000Y717500D02*
X262500Y680000D01*
X110000Y717500D02*
X225000D01*
X79000Y748500D02*
Y767291D01*
Y748500D02*
X110000Y717500D01*
X231071Y834055D02*
X238858D01*
X239291Y834488D02*
Y835000D01*
X217016Y820000D02*
X231071Y834055D01*
X238858D02*
X239291Y834488D01*
X189457Y778709D02*
Y820000D01*
Y778709D02*
X190000D01*
X162000Y779000D02*
Y820000D01*
X134339Y778709D02*
Y820000D01*
X79220Y782000D02*
Y820000D01*
D51*
X316914Y461400D02*
X364700D01*
X448600Y545300D01*
X313543Y461400D02*
X316914D01*
X389000Y463800D02*
X446800Y521600D01*
X389000Y281616D02*
Y463800D01*
X412364Y84400D02*
X437364Y109400D01*
X427600Y483700D02*
X460000Y516100D01*
X427600Y280615D02*
Y483700D01*
X463100Y223944D02*
X463171Y223873D01*
X463100Y488100D02*
X472500Y497500D01*
X463100Y223944D02*
Y488100D01*
X323400Y526600D02*
X333000Y517000D01*
X389300D01*
X436000Y563700D01*
X348600Y103400D02*
Y215400D01*
X367600Y84400D02*
X382600D01*
X348600Y103400D02*
X367600Y84400D01*
X372600Y126900D02*
Y178723D01*
X426931Y233053D01*
Y254400D01*
X372600Y126900D02*
X411502Y87998D01*
X472500Y497500D02*
Y553996D01*
X485000Y566496D01*
X348600Y215400D02*
X387261Y254061D01*
X436000Y563700D02*
Y577000D01*
X446800Y521600D02*
Y531500D01*
X459122Y543822D02*
Y549122D01*
X446800Y531500D02*
X459122Y543822D01*
X460000Y516100D02*
Y533504D01*
X382500Y494000D02*
X442100Y553600D01*
X294406Y494000D02*
X382500D01*
X442100Y553600D02*
Y568200D01*
X448600Y545300D02*
Y561100D01*
X459122Y549122D02*
X460000Y550000D01*
X442100Y568200D02*
X448600Y574700D01*
X453996Y566496D02*
X460000D01*
X448600Y561100D02*
X453996Y566496D01*
X448600Y574700D02*
X477300D01*
X323400Y526600D02*
Y551758D01*
X272829Y646000D02*
X325000D01*
X269900Y643071D02*
X272829Y646000D01*
X245000Y543405D02*
X269900Y568305D01*
Y643071D01*
X477300Y574700D02*
X484000Y568000D01*
X436000Y577000D02*
X441992Y582992D01*
X325000Y646000D02*
X405000D01*
X416000Y657000D01*
Y678884D01*
X404528Y690356D02*
X416000Y678884D01*
X404528Y690356D02*
Y691240D01*
X342000Y674240D02*
Y693925D01*
X325000Y710925D02*
X342000Y693925D01*
Y663000D02*
Y674240D01*
X325000Y691240D02*
X342000Y674240D01*
X325000Y646000D02*
X342000Y663000D01*
X441992Y582992D02*
X460000D01*
X245000Y543405D02*
X294406Y494000D01*
X411502Y85025D02*
Y87998D01*
Y85025D02*
X412128Y84400D01*
X387261Y254061D02*
X388582D01*
X387174Y256241D02*
X388308Y255108D01*
X387174Y277377D02*
X389094Y279297D01*
X427174Y254644D02*
Y279168D01*
X387174Y256241D02*
Y277377D01*
D52*
X169173Y704213D02*
D03*
X190827D02*
D03*
D53*
X55000Y405000D02*
D03*
D54*
X28425D02*
D03*
D55*
X30236Y369000D02*
D03*
X59764D02*
D03*
X120000Y295236D02*
D03*
Y324764D02*
D03*
X250000Y334370D02*
D03*
Y295000D02*
D03*
X171260Y275315D02*
D03*
Y354055D02*
D03*
D56*
X490000Y400315D02*
D03*
Y420000D02*
D03*
Y439724D02*
D03*
X517598D02*
D03*
Y420000D02*
D03*
Y400315D02*
D03*
X244685Y225000D02*
D03*
X225000D02*
D03*
X205276D02*
D03*
Y197402D02*
D03*
X225000D02*
D03*
X244685D02*
D03*
X25591Y65000D02*
D03*
X45276D02*
D03*
X65000D02*
D03*
Y37402D02*
D03*
X45276D02*
D03*
X25591D02*
D03*
X115000Y148799D02*
D03*
X134685D02*
D03*
X154409D02*
D03*
Y121201D02*
D03*
X134685D02*
D03*
X115000D02*
D03*
X485000Y710315D02*
D03*
Y730000D02*
D03*
Y749724D02*
D03*
X512598D02*
D03*
Y730000D02*
D03*
Y710315D02*
D03*
D57*
X332500Y286800D02*
D03*
X30000Y812500D02*
D03*
X500000Y815000D02*
D03*
Y30000D02*
D03*
D58*
X453171Y223873D02*
D03*
X463171D02*
D03*
X360000Y560000D02*
D03*
X350000D02*
D03*
X417303Y279297D02*
D03*
X427303D02*
D03*
X427500Y622500D02*
D03*
Y632500D02*
D03*
X290000Y560000D02*
D03*
X300000D02*
D03*
D59*
X445100Y251900D02*
D03*
X320571Y816645D02*
D03*
X247500Y782500D02*
D03*
X335000Y572500D02*
D03*
X415000D02*
D03*
X270000Y822500D02*
D03*
X255000Y607500D02*
D03*
X114000Y370000D02*
D03*
X136000D02*
D03*
X120000Y255000D02*
D03*
X245000Y543405D02*
D03*
X231614D02*
D03*
X245000Y582500D02*
D03*
X231614D02*
D03*
X367000Y434500D02*
D03*
X330300Y422305D02*
D03*
X316914D02*
D03*
X330300Y461400D02*
D03*
X316914D02*
D03*
X437600Y109400D02*
D03*
D60*
X510000Y609764D02*
D03*
Y539764D02*
D03*
D61*
X485000Y533504D02*
D03*
Y550000D02*
D03*
Y566496D02*
D03*
Y582992D02*
D03*
Y599488D02*
D03*
Y615984D02*
D03*
X460000D02*
D03*
Y599488D02*
D03*
Y582992D02*
D03*
Y566496D02*
D03*
Y550000D02*
D03*
Y533504D02*
D03*
D62*
X397500Y817500D02*
D03*
D63*
X383720Y797815D02*
D03*
X369941Y817500D02*
D03*
X356161Y797815D02*
D03*
X342382Y817500D02*
D03*
X217016Y820000D02*
D03*
X203236D02*
D03*
X189457D02*
D03*
X175677D02*
D03*
X161898D02*
D03*
X148118D02*
D03*
X134339D02*
D03*
X120559D02*
D03*
X106780D02*
D03*
X93000D02*
D03*
X79220D02*
D03*
X65441D02*
D03*
D64*
X295472Y612500D02*
D03*
Y671555D02*
D03*
Y691240D02*
D03*
Y710925D02*
D03*
X325000D02*
D03*
Y691240D02*
D03*
Y671555D02*
D03*
Y612500D02*
D03*
X382600Y163140D02*
D03*
Y104085D02*
D03*
Y84400D02*
D03*
Y64715D02*
D03*
X412128D02*
D03*
Y84400D02*
D03*
Y104085D02*
D03*
Y163140D02*
D03*
X375000Y612500D02*
D03*
Y671555D02*
D03*
Y691240D02*
D03*
Y710925D02*
D03*
X404528D02*
D03*
Y691240D02*
D03*
Y671555D02*
D03*
Y612500D02*
D03*
X30000Y250709D02*
D03*
Y339291D02*
D03*
X80000D02*
D03*
Y250709D02*
D03*
D65*
X415179Y24600D02*
D03*
X401400D02*
D03*
X387620D02*
D03*
X373841D02*
D03*
D66*
X360061D02*
D03*
M02*
