G04*
G04 #@! TF.GenerationSoftware,Altium Limited,Altium Designer,23.10.1 (27)*
G04*
G04 Layer_Color=8421504*
%FSLAX25Y25*%
%MOIN*%
G70*
G04*
G04 #@! TF.SameCoordinates,AA2C939F-CB16-4FEC-AD20-74F2314AF5A0*
G04*
G04*
G04 #@! TF.FilePolarity,Positive*
G04*
G01*
G75*
%ADD17R,0.04134X0.02362*%
%ADD18R,0.06102X0.09252*%
%ADD19R,0.04134X0.06890*%
%ADD20R,0.06693X0.05118*%
%ADD21R,0.03780X0.05472*%
%ADD22R,0.08661X0.08465*%
%ADD23R,0.06890X0.04134*%
%ADD24R,0.08858X0.08071*%
D17*
X371831Y533760D02*
D03*
Y541240D02*
D03*
X363169Y537500D02*
D03*
X301831Y533760D02*
D03*
Y541240D02*
D03*
X293169Y537500D02*
D03*
D18*
X450691Y196373D02*
D03*
X465651D02*
D03*
X390020Y590000D02*
D03*
X404980D02*
D03*
X310020D02*
D03*
X324980D02*
D03*
D19*
X441379Y196373D02*
D03*
X429962D02*
D03*
X389094Y279297D02*
D03*
X400511D02*
D03*
X323209Y527500D02*
D03*
X311791D02*
D03*
X323209Y550000D02*
D03*
X311791D02*
D03*
X391709Y557000D02*
D03*
X380291D02*
D03*
X381291Y537000D02*
D03*
X392709D02*
D03*
X364291Y590000D02*
D03*
X375709D02*
D03*
X286791D02*
D03*
X298209D02*
D03*
X239291Y835000D02*
D03*
X250709D02*
D03*
X292363Y816645D02*
D03*
X303780D02*
D03*
D20*
X237815Y657500D02*
D03*
X227185D02*
D03*
X317285Y377400D02*
D03*
X327915D02*
D03*
X317285Y362400D02*
D03*
X327915D02*
D03*
X227185Y647500D02*
D03*
X237815D02*
D03*
D21*
X231890Y677500D02*
D03*
X238110D02*
D03*
X395413Y254297D02*
D03*
X389193D02*
D03*
X420710Y254400D02*
D03*
X426931D02*
D03*
X321990Y341900D02*
D03*
X328210D02*
D03*
X321990Y349900D02*
D03*
X328210D02*
D03*
X238110Y667500D02*
D03*
X231890D02*
D03*
D22*
X311439Y394900D02*
D03*
X328761D02*
D03*
D23*
X107000Y767291D02*
D03*
Y778709D02*
D03*
X190000D02*
D03*
Y767291D02*
D03*
X162000Y779000D02*
D03*
Y767583D02*
D03*
X135000Y778709D02*
D03*
Y767291D02*
D03*
X79000Y778709D02*
D03*
Y767291D02*
D03*
D24*
X221535Y630000D02*
D03*
X238465D02*
D03*
M02*
