G04*
G04 #@! TF.GenerationSoftware,Altium Limited,Altium Designer,23.10.1 (27)*
G04*
G04 Layer_Color=32896*
%FSLAX25Y25*%
%MOIN*%
G70*
G04*
G04 #@! TF.SameCoordinates,AA2C939F-CB16-4FEC-AD20-74F2314AF5A0*
G04*
G04*
G04 #@! TF.FilePolarity,Positive*
G04*
G01*
G75*
G36*
X13849Y500113D02*
X13944D01*
Y500094D01*
X14021D01*
Y500075D01*
X14097D01*
Y500056D01*
X14135D01*
Y500037D01*
X14212D01*
Y500018D01*
X14250D01*
Y499999D01*
X14307D01*
Y499979D01*
X14365D01*
Y499960D01*
X14403D01*
Y499941D01*
X14460D01*
Y499922D01*
X14499D01*
Y499903D01*
X14556D01*
Y499884D01*
X14594D01*
Y499865D01*
X14632D01*
Y499846D01*
X14690D01*
Y499826D01*
X14728D01*
Y499807D01*
X14785D01*
Y499788D01*
X14824D01*
Y499769D01*
X14862D01*
Y499750D01*
X14900D01*
Y499731D01*
X14957D01*
Y499712D01*
X14996D01*
Y499693D01*
X15034D01*
Y499674D01*
X15072D01*
Y499654D01*
X15130D01*
Y499635D01*
X15168D01*
Y499616D01*
X15206D01*
Y499597D01*
X15263D01*
Y499578D01*
X15302D01*
Y499559D01*
X15340D01*
Y499540D01*
X15397D01*
Y499520D01*
X15435D01*
Y499501D01*
X15474D01*
Y499482D01*
X15512D01*
Y499463D01*
X15550D01*
Y499444D01*
X15607D01*
Y499425D01*
X15646D01*
Y499406D01*
X15684D01*
Y499387D01*
X15722D01*
Y499368D01*
X15741D01*
Y499348D01*
X15779D01*
Y499329D01*
X15818D01*
Y499310D01*
X15856D01*
Y499291D01*
X15894D01*
Y499272D01*
X15932D01*
Y499253D01*
X15971D01*
Y499234D01*
X15990D01*
Y499215D01*
X16028D01*
Y499195D01*
X16066D01*
Y499176D01*
X16104D01*
Y499157D01*
X16124D01*
Y499138D01*
X16162D01*
Y499119D01*
X16181D01*
Y499100D01*
X16219D01*
Y499081D01*
X16238D01*
Y499062D01*
X16276D01*
Y499043D01*
X16315D01*
Y499023D01*
X16334D01*
Y499004D01*
X16372D01*
Y498985D01*
X16391D01*
Y498966D01*
X16430D01*
Y498947D01*
X16449D01*
Y498928D01*
X16487D01*
Y498909D01*
X16506D01*
Y498890D01*
X16544D01*
Y498871D01*
X16582D01*
Y498851D01*
X16601D01*
Y498832D01*
X16640D01*
Y498813D01*
X16659D01*
Y498794D01*
X16697D01*
Y498775D01*
X16716D01*
Y498756D01*
X16754D01*
Y498737D01*
X16793D01*
Y498718D01*
X16812D01*
Y498699D01*
X16850D01*
Y498679D01*
X16869D01*
Y498660D01*
X16907D01*
Y498641D01*
X16927D01*
Y498622D01*
X16965D01*
Y498603D01*
X17003D01*
Y498584D01*
X17022D01*
Y498565D01*
X17060D01*
Y498546D01*
X17079D01*
Y498526D01*
X17118D01*
Y498507D01*
X17137D01*
Y498488D01*
X17175D01*
Y498469D01*
X17213D01*
Y498450D01*
X17232D01*
Y498431D01*
X17271D01*
Y498412D01*
X17290D01*
Y498393D01*
X17309D01*
Y498374D01*
X17347D01*
Y498354D01*
X17366D01*
Y498335D01*
X17404D01*
Y498316D01*
X17424D01*
Y498297D01*
X17443D01*
Y498278D01*
X17481D01*
Y498259D01*
X17500D01*
Y498240D01*
X17519D01*
Y498220D01*
X17557D01*
Y498201D01*
X17576D01*
Y498182D01*
X17596D01*
Y498163D01*
X17615D01*
Y498144D01*
X17653D01*
Y498125D01*
X17672D01*
Y498106D01*
X17691D01*
Y498087D01*
X17729D01*
Y498068D01*
X17749D01*
Y498048D01*
X17768D01*
Y498029D01*
X17787D01*
Y498010D01*
X17825D01*
Y497991D01*
X17844D01*
Y497972D01*
X17863D01*
Y497953D01*
X17882D01*
Y497934D01*
X17921D01*
Y497915D01*
X17940D01*
Y497895D01*
X17959D01*
Y497876D01*
X17978D01*
Y497857D01*
X18016D01*
Y497838D01*
X18035D01*
Y497819D01*
X18054D01*
Y497800D01*
X18074D01*
Y497781D01*
X18112D01*
Y497762D01*
X18131D01*
Y497743D01*
X18150D01*
Y497723D01*
X18169D01*
Y497704D01*
X18188D01*
Y497685D01*
X18226D01*
Y497666D01*
X18246D01*
Y497647D01*
X18265D01*
Y497628D01*
X18284D01*
Y497609D01*
X18303D01*
Y497590D01*
X18341D01*
Y497571D01*
X18360D01*
Y497551D01*
X18379D01*
Y497532D01*
X18399D01*
Y497513D01*
X18418D01*
Y497494D01*
X18456D01*
Y497475D01*
X18475D01*
Y497456D01*
X18494D01*
Y497437D01*
X18513D01*
Y497418D01*
X18532D01*
Y497399D01*
X18552D01*
Y497379D01*
X18571D01*
Y497360D01*
X18590D01*
Y497341D01*
X18609D01*
Y497322D01*
X18628D01*
Y497303D01*
X18666D01*
Y497284D01*
X18685D01*
Y497265D01*
X18704D01*
Y497246D01*
X18724D01*
Y497226D01*
X18743D01*
Y497207D01*
X18762D01*
Y497188D01*
X18781D01*
Y497169D01*
X18800D01*
Y497150D01*
X18819D01*
Y497131D01*
X18838D01*
Y497112D01*
X18857D01*
Y497093D01*
X18877D01*
Y497074D01*
X18896D01*
Y497054D01*
X18915D01*
Y497035D01*
X18934D01*
Y497016D01*
X18953D01*
Y496997D01*
X18972D01*
Y496978D01*
X18991D01*
Y496959D01*
X19010D01*
Y496940D01*
X19029D01*
Y496920D01*
X19049D01*
Y496901D01*
X19068D01*
Y496882D01*
X19087D01*
Y496863D01*
X19106D01*
Y496844D01*
X19125D01*
Y496825D01*
X19144D01*
Y496787D01*
X19163D01*
Y496768D01*
X19182D01*
Y496748D01*
X19202D01*
Y496729D01*
X19221D01*
Y496710D01*
X19240D01*
Y496691D01*
X19259D01*
Y496672D01*
X19278D01*
Y496653D01*
X19297D01*
Y496634D01*
X19316D01*
Y496615D01*
X19335D01*
Y496595D01*
X19354D01*
Y496576D01*
X19374D01*
Y496557D01*
X19393D01*
Y496519D01*
X19412D01*
Y496500D01*
X19431D01*
Y496481D01*
X19450D01*
Y496462D01*
X19469D01*
Y496443D01*
X19488D01*
Y496423D01*
X19507D01*
Y496404D01*
X19526D01*
Y496385D01*
X19546D01*
Y496366D01*
X19565D01*
Y496328D01*
X19584D01*
Y496309D01*
X19603D01*
Y496290D01*
X19622D01*
Y496271D01*
X19641D01*
Y496251D01*
X19660D01*
Y496232D01*
X19679D01*
Y496213D01*
X19699D01*
Y496175D01*
X19718D01*
Y496156D01*
X19737D01*
Y496137D01*
X19756D01*
Y496118D01*
X19775D01*
Y496099D01*
X19794D01*
Y496079D01*
X19813D01*
Y496060D01*
X19832D01*
Y496041D01*
X19851D01*
Y496022D01*
X19871D01*
Y496003D01*
X19890D01*
Y495965D01*
X19909D01*
Y495946D01*
X19928D01*
Y495907D01*
X19947D01*
Y495888D01*
X20004D01*
Y495907D01*
X20062D01*
Y495926D01*
X20100D01*
Y495946D01*
X20157D01*
Y495965D01*
X20196D01*
Y495984D01*
X20253D01*
Y496003D01*
X20310D01*
Y496022D01*
X20368D01*
Y496041D01*
X20406D01*
Y496060D01*
X20463D01*
Y496079D01*
X20521D01*
Y496099D01*
X20578D01*
Y496118D01*
X20616D01*
Y496137D01*
X20674D01*
Y496156D01*
X20731D01*
Y496175D01*
X20807D01*
Y496194D01*
X20865D01*
Y496213D01*
X20922D01*
Y496232D01*
X20999D01*
Y496251D01*
X21056D01*
Y496271D01*
X21132D01*
Y496290D01*
X21209D01*
Y496309D01*
X21285D01*
Y496328D01*
X21381D01*
Y496347D01*
X21457D01*
Y496366D01*
X21553D01*
Y496385D01*
X21648D01*
Y496404D01*
X21763D01*
Y496423D01*
X21878D01*
Y496443D01*
X22031D01*
Y496462D01*
X22184D01*
Y496481D01*
X22375D01*
Y496500D01*
X22662D01*
Y496519D01*
X23350D01*
Y496500D01*
X23618D01*
Y496481D01*
X23828D01*
Y496462D01*
X23981D01*
Y496443D01*
X24115D01*
Y496423D01*
X24210D01*
Y496404D01*
X24325D01*
Y496385D01*
X24421D01*
Y496366D01*
X24516D01*
Y496347D01*
X24593D01*
Y496328D01*
X24669D01*
Y496309D01*
X24746D01*
Y496290D01*
X24822D01*
Y496271D01*
X24879D01*
Y496251D01*
X24956D01*
Y496232D01*
X25013D01*
Y496213D01*
X25090D01*
Y496194D01*
X25128D01*
Y496175D01*
X25204D01*
Y496156D01*
X25243D01*
Y496137D01*
X25319D01*
Y496118D01*
X25357D01*
Y496099D01*
X25415D01*
Y496079D01*
X25472D01*
Y496060D01*
X25510D01*
Y496041D01*
X25568D01*
Y496022D01*
X25606D01*
Y496003D01*
X25663D01*
Y495984D01*
X25701D01*
Y495965D01*
X25740D01*
Y495946D01*
X25797D01*
Y495926D01*
X25835D01*
Y495907D01*
X25874D01*
Y495888D01*
X25931D01*
Y495869D01*
X25969D01*
Y495850D01*
X26007D01*
Y495831D01*
X26065D01*
Y495812D01*
X26179D01*
Y495831D01*
X26199D01*
Y495850D01*
X26218D01*
Y495869D01*
X26256D01*
Y495888D01*
X26275D01*
Y495907D01*
X26294D01*
Y495926D01*
X26332D01*
Y495946D01*
X26351D01*
Y495965D01*
X26390D01*
Y495984D01*
X26409D01*
Y496003D01*
X26428D01*
Y496022D01*
X26466D01*
Y496041D01*
X26485D01*
Y496060D01*
X26524D01*
Y496079D01*
X26543D01*
Y496099D01*
X26581D01*
Y496118D01*
X26600D01*
Y496137D01*
X26638D01*
Y496156D01*
X26657D01*
Y496175D01*
X26696D01*
Y496194D01*
X26734D01*
Y496213D01*
X26753D01*
Y496232D01*
X26791D01*
Y496251D01*
X26810D01*
Y496271D01*
X26849D01*
Y496290D01*
X26868D01*
Y496309D01*
X26906D01*
Y496328D01*
X26944D01*
Y496347D01*
X26963D01*
Y496366D01*
X27001D01*
Y496385D01*
X27040D01*
Y496404D01*
X27059D01*
Y496423D01*
X27097D01*
Y496443D01*
X27135D01*
Y496462D01*
X27154D01*
Y496481D01*
X27193D01*
Y496500D01*
X27231D01*
Y496519D01*
X27269D01*
Y496538D01*
X27288D01*
Y496557D01*
X27326D01*
Y496576D01*
X27365D01*
Y496595D01*
X27403D01*
Y496615D01*
X27422D01*
Y496634D01*
X27460D01*
Y496653D01*
X27498D01*
Y496672D01*
X27537D01*
Y496691D01*
X27575D01*
Y496710D01*
X27613D01*
Y496729D01*
X27632D01*
Y496748D01*
X27671D01*
Y496768D01*
X27709D01*
Y496787D01*
X27747D01*
Y496806D01*
X27785D01*
Y496825D01*
X27823D01*
Y496844D01*
X27862D01*
Y496863D01*
X27900D01*
Y496882D01*
X27938D01*
Y496901D01*
X27976D01*
Y496920D01*
X28015D01*
Y496940D01*
X28053D01*
Y496959D01*
X28091D01*
Y496978D01*
X28129D01*
Y496997D01*
X28168D01*
Y497016D01*
X28206D01*
Y497035D01*
X28244D01*
Y497054D01*
X28282D01*
Y497074D01*
X28321D01*
Y497093D01*
X28378D01*
Y497112D01*
X28416D01*
Y497131D01*
X28454D01*
Y497150D01*
X28493D01*
Y497169D01*
X28531D01*
Y497188D01*
X28588D01*
Y497207D01*
X28626D01*
Y497226D01*
X28665D01*
Y497246D01*
X28722D01*
Y497265D01*
X28760D01*
Y497284D01*
X28818D01*
Y497303D01*
X28856D01*
Y497322D01*
X28894D01*
Y497341D01*
X28951D01*
Y497360D01*
X29009D01*
Y497379D01*
X29047D01*
Y497399D01*
X29104D01*
Y497418D01*
X29162D01*
Y497437D01*
X29200D01*
Y497456D01*
X29257D01*
Y497475D01*
X29315D01*
Y497494D01*
X29372D01*
Y497513D01*
X29429D01*
Y497532D01*
X29487D01*
Y497551D01*
X29563D01*
Y497571D01*
X29621D01*
Y497590D01*
X29678D01*
Y497609D01*
X29754D01*
Y497628D01*
X29812D01*
Y497647D01*
X29869D01*
Y497666D01*
X29945D01*
Y497685D01*
X30003D01*
Y497704D01*
X30079D01*
Y497723D01*
X30156D01*
Y497743D01*
X30213D01*
Y497762D01*
X30290D01*
Y497781D01*
X30366D01*
Y497800D01*
X30443D01*
Y497819D01*
X30519D01*
Y497838D01*
X30595D01*
Y497857D01*
X30691D01*
Y497876D01*
X30768D01*
Y497895D01*
X30844D01*
Y497915D01*
X30920D01*
Y497934D01*
X31016D01*
Y497953D01*
X31112D01*
Y497972D01*
X31207D01*
Y497991D01*
X31303D01*
Y498010D01*
X31398D01*
Y498029D01*
X31513D01*
Y498048D01*
X31685D01*
Y498068D01*
X31934D01*
Y498087D01*
X32278D01*
Y498106D01*
X32756D01*
Y498125D01*
X33043D01*
Y498144D01*
X33329D01*
Y498163D01*
X33807D01*
Y498144D01*
X33826D01*
Y498087D01*
X33807D01*
Y498048D01*
X33788D01*
Y498010D01*
X33769D01*
Y497991D01*
X33750D01*
Y497972D01*
X33731D01*
Y497934D01*
X33712D01*
Y497915D01*
X33693D01*
Y497895D01*
X33674D01*
Y497876D01*
X33654D01*
Y497838D01*
X33635D01*
Y497819D01*
X33616D01*
Y497800D01*
X33597D01*
Y497781D01*
X33578D01*
Y497762D01*
X33559D01*
Y497743D01*
X33540D01*
Y497723D01*
X33520D01*
Y497704D01*
X33501D01*
Y497685D01*
X33482D01*
Y497666D01*
X33463D01*
Y497647D01*
X33444D01*
Y497609D01*
X33425D01*
Y497590D01*
X33406D01*
Y497571D01*
X33387D01*
Y497551D01*
X33368D01*
Y497532D01*
X33349D01*
Y497513D01*
X33329D01*
Y497494D01*
X33310D01*
Y497475D01*
X33291D01*
Y497456D01*
X33272D01*
Y497437D01*
X33253D01*
Y497418D01*
X33234D01*
Y497399D01*
X33215D01*
Y497379D01*
X33195D01*
Y497360D01*
X33176D01*
Y497341D01*
X33157D01*
Y497322D01*
X33138D01*
Y497303D01*
X33119D01*
Y497284D01*
X33100D01*
Y497265D01*
X33081D01*
Y497246D01*
X33062D01*
Y497226D01*
X33043D01*
Y497207D01*
X33024D01*
Y497188D01*
X33004D01*
Y497169D01*
X32985D01*
Y497150D01*
X32966D01*
Y497131D01*
X32947D01*
Y497112D01*
X32928D01*
Y497093D01*
X32909D01*
Y497074D01*
X32890D01*
Y497054D01*
X32871D01*
Y497035D01*
X32851D01*
Y497016D01*
X32832D01*
Y496997D01*
X32813D01*
Y496978D01*
X32794D01*
Y496959D01*
X32775D01*
Y496940D01*
X32756D01*
Y496920D01*
X32737D01*
Y496901D01*
X32699D01*
Y496882D01*
X32679D01*
Y496863D01*
X32660D01*
Y496844D01*
X32641D01*
Y496825D01*
X32622D01*
Y496806D01*
X32603D01*
Y496787D01*
X32584D01*
Y496768D01*
X32546D01*
Y496748D01*
X32526D01*
Y496729D01*
X32507D01*
Y496710D01*
X32488D01*
Y496691D01*
X32469D01*
Y496672D01*
X32431D01*
Y496653D01*
X32412D01*
Y496634D01*
X32393D01*
Y496615D01*
X32373D01*
Y496595D01*
X32335D01*
Y496576D01*
X32316D01*
Y496557D01*
X32297D01*
Y496538D01*
X32259D01*
Y496519D01*
X32240D01*
Y496500D01*
X32221D01*
Y496481D01*
X32201D01*
Y496462D01*
X32163D01*
Y496443D01*
X32144D01*
Y496423D01*
X32106D01*
Y496404D01*
X32087D01*
Y496385D01*
X32068D01*
Y496366D01*
X32029D01*
Y496347D01*
X32010D01*
Y496328D01*
X31972D01*
Y496309D01*
X31953D01*
Y496290D01*
X31934D01*
Y496271D01*
X31896D01*
Y496251D01*
X31876D01*
Y496232D01*
X31838D01*
Y496213D01*
X31819D01*
Y496194D01*
X31781D01*
Y496175D01*
X31762D01*
Y496156D01*
X31723D01*
Y496137D01*
X31704D01*
Y496118D01*
X31685D01*
Y496099D01*
X31647D01*
Y496079D01*
X31628D01*
Y496060D01*
X31590D01*
Y496041D01*
X31571D01*
Y496022D01*
X31532D01*
Y496003D01*
X31513D01*
Y495984D01*
X31475D01*
Y495965D01*
X31437D01*
Y495946D01*
X31418D01*
Y495926D01*
X31379D01*
Y495907D01*
X31360D01*
Y495888D01*
X31322D01*
Y495869D01*
X31284D01*
Y495850D01*
X31265D01*
Y495831D01*
X31226D01*
Y495812D01*
X31207D01*
Y495793D01*
X31169D01*
Y495774D01*
X31150D01*
Y495754D01*
X31112D01*
Y495735D01*
X31073D01*
Y495716D01*
X31054D01*
Y495697D01*
X31016D01*
Y495678D01*
X30978D01*
Y495659D01*
X30959D01*
Y495640D01*
X30920D01*
Y495621D01*
X30882D01*
Y495601D01*
X30844D01*
Y495582D01*
X30806D01*
Y495563D01*
X30787D01*
Y495544D01*
X30749D01*
Y495525D01*
X30710D01*
Y495506D01*
X30672D01*
Y495487D01*
X30634D01*
Y495468D01*
X30615D01*
Y495448D01*
X30576D01*
Y495429D01*
X30538D01*
Y495410D01*
X30500D01*
Y495391D01*
X30462D01*
Y495372D01*
X30424D01*
Y495353D01*
X30385D01*
Y495334D01*
X30347D01*
Y495315D01*
X30309D01*
Y495296D01*
X30251D01*
Y495276D01*
X30213D01*
Y495257D01*
X30175D01*
Y495238D01*
X30118D01*
Y495219D01*
X30079D01*
Y495200D01*
X30041D01*
Y495181D01*
X29984D01*
Y495162D01*
X29945D01*
Y495143D01*
X29907D01*
Y495123D01*
X29869D01*
Y495104D01*
X29812D01*
Y495085D01*
X29774D01*
Y495066D01*
X29735D01*
Y495047D01*
X29678D01*
Y495028D01*
X29640D01*
Y495009D01*
X29601D01*
Y494990D01*
X29544D01*
Y494971D01*
X29506D01*
Y494951D01*
X29468D01*
Y494932D01*
X29410D01*
Y494913D01*
X29353D01*
Y494894D01*
X29296D01*
Y494875D01*
X29238D01*
Y494856D01*
X29181D01*
Y494837D01*
X29123D01*
Y494818D01*
X29066D01*
Y494799D01*
X29009D01*
Y494779D01*
X28951D01*
Y494760D01*
X28894D01*
Y494741D01*
X28837D01*
Y494722D01*
X28760D01*
Y494703D01*
X28703D01*
Y494684D01*
X28646D01*
Y494665D01*
X28588D01*
Y494646D01*
X28512D01*
Y494626D01*
X28454D01*
Y494607D01*
X28397D01*
Y494588D01*
X28321D01*
Y494569D01*
X28263D01*
Y494550D01*
X28206D01*
Y494531D01*
X28129D01*
Y494512D01*
X28053D01*
Y494493D01*
X27976D01*
Y494474D01*
X27919D01*
Y494454D01*
X27823D01*
Y494435D01*
X27747D01*
Y494416D01*
X27632D01*
Y494397D01*
X27537D01*
Y494340D01*
X27556D01*
Y494282D01*
X27575D01*
Y494225D01*
X27594D01*
Y494187D01*
X27613D01*
Y494129D01*
X27632D01*
Y494091D01*
X27651D01*
Y494034D01*
X27671D01*
Y493996D01*
X27690D01*
Y493938D01*
X27709D01*
Y493900D01*
X27728D01*
Y493843D01*
X27747D01*
Y493785D01*
X27766D01*
Y493747D01*
X27785D01*
Y493690D01*
X27804D01*
Y493651D01*
X27823D01*
Y493594D01*
X27843D01*
Y493537D01*
X27862D01*
Y493479D01*
X27881D01*
Y493441D01*
X27900D01*
Y493365D01*
X27919D01*
Y493327D01*
X27938D01*
Y493250D01*
X27957D01*
Y493193D01*
X27976D01*
Y493116D01*
X27996D01*
Y493040D01*
X28015D01*
Y492963D01*
X28034D01*
Y492868D01*
X28053D01*
Y492772D01*
X28072D01*
Y492657D01*
X28091D01*
Y492543D01*
X28110D01*
Y492409D01*
X28129D01*
Y492237D01*
X28148D01*
Y492084D01*
X28168D01*
Y491912D01*
X28187D01*
Y491759D01*
X28206D01*
Y491568D01*
X28225D01*
Y491396D01*
X28244D01*
Y491204D01*
X28263D01*
Y491032D01*
X28282D01*
Y490860D01*
X28301D01*
Y490688D01*
X28321D01*
Y490535D01*
X28340D01*
Y490382D01*
X28359D01*
Y490248D01*
X28378D01*
Y490115D01*
X28397D01*
Y489981D01*
X28416D01*
Y489866D01*
X28435D01*
Y489732D01*
X28454D01*
Y489618D01*
X28473D01*
Y489484D01*
X28493D01*
Y489369D01*
X28512D01*
Y489254D01*
X28531D01*
Y489140D01*
X28550D01*
Y489025D01*
X28569D01*
Y488910D01*
X28588D01*
Y488796D01*
X28607D01*
Y488681D01*
X28626D01*
Y488566D01*
X28646D01*
Y488451D01*
X28665D01*
Y488337D01*
X28684D01*
Y488222D01*
X28703D01*
Y488127D01*
X28722D01*
Y488012D01*
X28741D01*
Y487916D01*
X28760D01*
Y487821D01*
X28779D01*
Y487706D01*
X28798D01*
Y487610D01*
X28818D01*
Y487515D01*
X28837D01*
Y487419D01*
X28856D01*
Y487324D01*
X28875D01*
Y487247D01*
X28894D01*
Y487151D01*
X28913D01*
Y487075D01*
X28932D01*
Y486979D01*
X28951D01*
Y486903D01*
X28971D01*
Y486807D01*
X28990D01*
Y486750D01*
X29009D01*
Y486654D01*
X29028D01*
Y486578D01*
X29047D01*
Y486502D01*
X29066D01*
Y486406D01*
X29085D01*
Y486329D01*
X29104D01*
Y486253D01*
X29123D01*
Y486157D01*
X29143D01*
Y486081D01*
X29162D01*
Y486004D01*
X29181D01*
Y485928D01*
X29200D01*
Y485832D01*
X29219D01*
Y485756D01*
X29238D01*
Y485679D01*
X29257D01*
Y485603D01*
X29276D01*
Y485507D01*
X29296D01*
Y485450D01*
X29315D01*
Y485354D01*
X29334D01*
Y485297D01*
X29353D01*
Y485202D01*
X29372D01*
Y485144D01*
X29391D01*
Y485068D01*
X29410D01*
Y484991D01*
X29429D01*
Y484915D01*
X29449D01*
Y484838D01*
X29468D01*
Y484743D01*
X29487D01*
Y484666D01*
X29506D01*
Y484590D01*
X29525D01*
Y484513D01*
X29544D01*
Y484418D01*
X29563D01*
Y484341D01*
X29582D01*
Y484246D01*
X29601D01*
Y484150D01*
X29621D01*
Y484035D01*
X29640D01*
Y483940D01*
X29659D01*
Y483825D01*
X29678D01*
Y483710D01*
X29697D01*
Y483596D01*
X29716D01*
Y483481D01*
X29735D01*
Y483366D01*
X29754D01*
Y483271D01*
X29774D01*
Y483232D01*
X29831D01*
Y483251D01*
X29888D01*
Y483271D01*
X29926D01*
Y483290D01*
X29965D01*
Y483309D01*
X30022D01*
Y483328D01*
X30060D01*
Y483347D01*
X30099D01*
Y483366D01*
X30137D01*
Y483385D01*
X30175D01*
Y483404D01*
X30213D01*
Y483424D01*
X30251D01*
Y483443D01*
X30290D01*
Y483462D01*
X30328D01*
Y483481D01*
X30366D01*
Y483500D01*
X30404D01*
Y483519D01*
X30443D01*
Y483538D01*
X30481D01*
Y483557D01*
X30519D01*
Y483576D01*
X30557D01*
Y483596D01*
X30595D01*
Y483672D01*
X30576D01*
Y483729D01*
X30557D01*
Y483768D01*
X30538D01*
Y483825D01*
X30519D01*
Y483863D01*
X30500D01*
Y483902D01*
X30481D01*
Y483940D01*
X30462D01*
Y483978D01*
X30443D01*
Y484016D01*
X30424D01*
Y484074D01*
X30404D01*
Y484112D01*
X30385D01*
Y484150D01*
X30366D01*
Y484188D01*
X30347D01*
Y484227D01*
X30328D01*
Y484265D01*
X30309D01*
Y484303D01*
X30290D01*
Y484341D01*
X30270D01*
Y484379D01*
X30251D01*
Y484418D01*
X30232D01*
Y484456D01*
X30213D01*
Y484494D01*
X30194D01*
Y484532D01*
X30175D01*
Y484571D01*
X30156D01*
Y484609D01*
X30137D01*
Y484647D01*
X30118D01*
Y484685D01*
X30099D01*
Y484743D01*
X30079D01*
Y484781D01*
X30060D01*
Y484838D01*
X30041D01*
Y484896D01*
X30060D01*
Y484915D01*
X30079D01*
Y484934D01*
X30118D01*
Y484953D01*
X30156D01*
Y484972D01*
X30194D01*
Y484991D01*
X30232D01*
Y485010D01*
X30270D01*
Y485029D01*
X30309D01*
Y485049D01*
X30347D01*
Y485068D01*
X30385D01*
Y485087D01*
X30404D01*
Y485106D01*
X30443D01*
Y485125D01*
X30481D01*
Y485144D01*
X30519D01*
Y485163D01*
X30557D01*
Y485182D01*
X30595D01*
Y485202D01*
X30634D01*
Y485221D01*
X30672D01*
Y485240D01*
X30710D01*
Y485259D01*
X30749D01*
Y485278D01*
X30787D01*
Y485297D01*
X30825D01*
Y485316D01*
X30863D01*
Y485335D01*
X30901D01*
Y485354D01*
X30940D01*
Y485374D01*
X30978D01*
Y485393D01*
X31016D01*
Y485412D01*
X31054D01*
Y485431D01*
X31093D01*
Y485450D01*
X31131D01*
Y485469D01*
X31169D01*
Y485488D01*
X31188D01*
Y485584D01*
X31169D01*
Y485622D01*
X31150D01*
Y485679D01*
X31131D01*
Y485718D01*
X31112D01*
Y485775D01*
X31093D01*
Y485813D01*
X31073D01*
Y485851D01*
X31054D01*
Y485909D01*
X31035D01*
Y485947D01*
X31016D01*
Y486004D01*
X30997D01*
Y486043D01*
X30978D01*
Y486100D01*
X30959D01*
Y486138D01*
X30940D01*
Y486196D01*
X30920D01*
Y486234D01*
X30901D01*
Y486272D01*
X30882D01*
Y486329D01*
X30863D01*
Y486368D01*
X30844D01*
Y486425D01*
X30825D01*
Y486463D01*
X30806D01*
Y486521D01*
X30787D01*
Y486559D01*
X30768D01*
Y486616D01*
X30749D01*
Y486654D01*
X30729D01*
Y486712D01*
X30710D01*
Y486750D01*
X30691D01*
Y486807D01*
X30672D01*
Y486846D01*
X30653D01*
Y486884D01*
X30634D01*
Y486941D01*
X30615D01*
Y486979D01*
X30595D01*
Y487018D01*
X30576D01*
Y487075D01*
X30557D01*
Y487113D01*
X30538D01*
Y487171D01*
X30519D01*
Y487209D01*
X30500D01*
Y487247D01*
X30481D01*
Y487304D01*
X30462D01*
Y487362D01*
X30443D01*
Y487419D01*
X30424D01*
Y487496D01*
X30443D01*
Y487515D01*
X30462D01*
Y487534D01*
X30500D01*
Y487553D01*
X30557D01*
Y487572D01*
X30595D01*
Y487591D01*
X30653D01*
Y487610D01*
X30710D01*
Y487629D01*
X30749D01*
Y487648D01*
X30806D01*
Y487668D01*
X30863D01*
Y487687D01*
X30901D01*
Y487706D01*
X30959D01*
Y487725D01*
X30997D01*
Y487744D01*
X31054D01*
Y487763D01*
X31093D01*
Y487782D01*
X31150D01*
Y487802D01*
X31188D01*
Y487821D01*
X31245D01*
Y487840D01*
X31284D01*
Y487859D01*
X31341D01*
Y487878D01*
X31398D01*
Y487897D01*
X31437D01*
Y487916D01*
X31494D01*
Y487935D01*
X31532D01*
Y487954D01*
X31590D01*
Y487973D01*
X31647D01*
Y487993D01*
X31685D01*
Y488012D01*
X31743D01*
Y488031D01*
X31781D01*
Y488050D01*
X31838D01*
Y488069D01*
X31896D01*
Y488088D01*
X31953D01*
Y488107D01*
X31991D01*
Y488127D01*
X32048D01*
Y488146D01*
X32106D01*
Y488165D01*
X32182D01*
Y488184D01*
X32221D01*
Y488222D01*
X32201D01*
Y488260D01*
X32182D01*
Y488299D01*
X32163D01*
Y488337D01*
X32144D01*
Y488375D01*
X32125D01*
Y488394D01*
X32106D01*
Y488432D01*
X32087D01*
Y488451D01*
X32068D01*
Y488490D01*
X32048D01*
Y488509D01*
X32029D01*
Y488547D01*
X32010D01*
Y488566D01*
X31991D01*
Y488604D01*
X31972D01*
Y488624D01*
X31953D01*
Y488662D01*
X31934D01*
Y488681D01*
X31915D01*
Y488719D01*
X31896D01*
Y488738D01*
X31876D01*
Y488776D01*
X31857D01*
Y488796D01*
X31838D01*
Y488834D01*
X31819D01*
Y488853D01*
X31800D01*
Y488891D01*
X31781D01*
Y488910D01*
X31762D01*
Y488948D01*
X31743D01*
Y488968D01*
X31723D01*
Y489006D01*
X31704D01*
Y489025D01*
X31685D01*
Y489063D01*
X31666D01*
Y489082D01*
X31647D01*
Y489121D01*
X31628D01*
Y489140D01*
X31609D01*
Y489178D01*
X31590D01*
Y489197D01*
X31571D01*
Y489235D01*
X31551D01*
Y489254D01*
X31532D01*
Y489293D01*
X31513D01*
Y489312D01*
X31494D01*
Y489350D01*
X31475D01*
Y489369D01*
X31456D01*
Y489407D01*
X31437D01*
Y489427D01*
X31418D01*
Y489465D01*
X31398D01*
Y489484D01*
X31379D01*
Y489522D01*
X31360D01*
Y489541D01*
X31341D01*
Y489579D01*
X31322D01*
Y489599D01*
X31303D01*
Y489637D01*
X31284D01*
Y489656D01*
X31265D01*
Y489694D01*
X31245D01*
Y489713D01*
X31226D01*
Y489751D01*
X31207D01*
Y489771D01*
X31188D01*
Y489809D01*
X31169D01*
Y489828D01*
X31150D01*
Y489866D01*
X31131D01*
Y489885D01*
X31112D01*
Y489923D01*
X31093D01*
Y489943D01*
X31073D01*
Y489981D01*
X31054D01*
Y490000D01*
X31035D01*
Y490038D01*
X31016D01*
Y490057D01*
X30997D01*
Y490096D01*
X30978D01*
Y490115D01*
X30959D01*
Y490153D01*
X30940D01*
Y490172D01*
X30920D01*
Y490210D01*
X30901D01*
Y490229D01*
X30882D01*
Y490268D01*
X30863D01*
Y490287D01*
X30844D01*
Y490325D01*
X30825D01*
Y490344D01*
X30806D01*
Y490382D01*
X30787D01*
Y490402D01*
X30768D01*
Y490440D01*
X30749D01*
Y490459D01*
X30729D01*
Y490497D01*
X30710D01*
Y490516D01*
X30691D01*
Y490554D01*
X30672D01*
Y490574D01*
X30653D01*
Y490612D01*
X30634D01*
Y490631D01*
X30615D01*
Y490669D01*
X30595D01*
Y490688D01*
X30576D01*
Y490727D01*
X30557D01*
Y490765D01*
X30538D01*
Y490784D01*
X30519D01*
Y490822D01*
X30500D01*
Y490841D01*
X30481D01*
Y490879D01*
X30462D01*
Y490899D01*
X30443D01*
Y490937D01*
X30424D01*
Y490956D01*
X30404D01*
Y490994D01*
X30385D01*
Y491013D01*
X30366D01*
Y491051D01*
X30347D01*
Y491071D01*
X30328D01*
Y491109D01*
X30309D01*
Y491128D01*
X30290D01*
Y491166D01*
X30270D01*
Y491185D01*
X30251D01*
Y491223D01*
X30232D01*
Y491243D01*
X30213D01*
Y491281D01*
X30194D01*
Y491300D01*
X30175D01*
Y491338D01*
X30156D01*
Y491357D01*
X30137D01*
Y491396D01*
X30118D01*
Y491415D01*
X30099D01*
Y491453D01*
X30079D01*
Y491472D01*
X30060D01*
Y491510D01*
X30041D01*
Y491529D01*
X30022D01*
Y491568D01*
X30003D01*
Y491587D01*
X29984D01*
Y491606D01*
X29965D01*
Y491644D01*
X29945D01*
Y491663D01*
X29926D01*
Y491702D01*
X29907D01*
Y491721D01*
X29888D01*
Y491759D01*
X29869D01*
Y491778D01*
X29850D01*
Y491797D01*
X29831D01*
Y491835D01*
X29812D01*
Y491854D01*
X29793D01*
Y491893D01*
X29774D01*
Y491912D01*
X29754D01*
Y491950D01*
X29735D01*
Y492027D01*
X29754D01*
Y492046D01*
X29774D01*
Y492065D01*
X29793D01*
Y492084D01*
X29812D01*
Y492103D01*
X29850D01*
Y492122D01*
X29869D01*
Y492141D01*
X29907D01*
Y492160D01*
X29926D01*
Y492179D01*
X29965D01*
Y492199D01*
X29984D01*
Y492218D01*
X30022D01*
Y492237D01*
X30041D01*
Y492256D01*
X30079D01*
Y492275D01*
X30099D01*
Y492294D01*
X30137D01*
Y492313D01*
X30156D01*
Y492332D01*
X30194D01*
Y492351D01*
X30213D01*
Y492371D01*
X30251D01*
Y492390D01*
X30290D01*
Y492409D01*
X30309D01*
Y492428D01*
X30347D01*
Y492447D01*
X30366D01*
Y492466D01*
X30404D01*
Y492485D01*
X30424D01*
Y492504D01*
X30462D01*
Y492523D01*
X30481D01*
Y492543D01*
X30519D01*
Y492562D01*
X30557D01*
Y492581D01*
X30576D01*
Y492600D01*
X30615D01*
Y492619D01*
X30634D01*
Y492638D01*
X30672D01*
Y492657D01*
X30691D01*
Y492676D01*
X30729D01*
Y492696D01*
X30749D01*
Y492715D01*
X30787D01*
Y492734D01*
X30806D01*
Y492753D01*
X30844D01*
Y492772D01*
X30882D01*
Y492791D01*
X30901D01*
Y492810D01*
X30940D01*
Y492829D01*
X30959D01*
Y492848D01*
X30997D01*
Y492868D01*
X31016D01*
Y492887D01*
X31054D01*
Y492906D01*
X31073D01*
Y492925D01*
X31112D01*
Y492944D01*
X31131D01*
Y492963D01*
X31169D01*
Y492982D01*
X31207D01*
Y493002D01*
X31226D01*
Y493021D01*
X31265D01*
Y493040D01*
X31284D01*
Y493059D01*
X31322D01*
Y493078D01*
X31341D01*
Y493097D01*
X31379D01*
Y493116D01*
X31398D01*
Y493135D01*
X31437D01*
Y493154D01*
X31475D01*
Y493174D01*
X31494D01*
Y493193D01*
X31532D01*
Y493212D01*
X31551D01*
Y493231D01*
X31590D01*
Y493250D01*
X31609D01*
Y493269D01*
X31647D01*
Y493288D01*
X31666D01*
Y493307D01*
X31704D01*
Y493327D01*
X31723D01*
Y493346D01*
X31762D01*
Y493365D01*
X31800D01*
Y493384D01*
X31819D01*
Y493403D01*
X31857D01*
Y493422D01*
X31876D01*
Y493441D01*
X31915D01*
Y493460D01*
X31934D01*
Y493479D01*
X31972D01*
Y493499D01*
X31991D01*
Y493518D01*
X32029D01*
Y493537D01*
X32068D01*
Y493556D01*
X32087D01*
Y493575D01*
X32125D01*
Y493594D01*
X32144D01*
Y493613D01*
X32182D01*
Y493632D01*
X32201D01*
Y493651D01*
X32240D01*
Y493671D01*
X32259D01*
Y493690D01*
X32297D01*
Y493709D01*
X32316D01*
Y493728D01*
X32354D01*
Y493747D01*
X32393D01*
Y493766D01*
X32412D01*
Y493785D01*
X32450D01*
Y493804D01*
X32469D01*
Y493823D01*
X32507D01*
Y493843D01*
X32526D01*
Y493862D01*
X32565D01*
Y493881D01*
X32584D01*
Y493900D01*
X32622D01*
Y493919D01*
X32641D01*
Y493938D01*
X32679D01*
Y493957D01*
X32718D01*
Y493976D01*
X32737D01*
Y493996D01*
X32775D01*
Y494015D01*
X32794D01*
Y494034D01*
X32832D01*
Y494053D01*
X32851D01*
Y494072D01*
X32890D01*
Y494091D01*
X32909D01*
Y494110D01*
X32947D01*
Y494129D01*
X32966D01*
Y494148D01*
X33004D01*
Y494168D01*
X33043D01*
Y494187D01*
X33062D01*
Y494206D01*
X33100D01*
Y494225D01*
X33119D01*
Y494244D01*
X33157D01*
Y494263D01*
X33176D01*
Y494282D01*
X33215D01*
Y494301D01*
X33234D01*
Y494321D01*
X33272D01*
Y494340D01*
X33310D01*
Y494359D01*
X33329D01*
Y494378D01*
X33368D01*
Y494397D01*
X33387D01*
Y494416D01*
X33425D01*
Y494435D01*
X33444D01*
Y494454D01*
X33482D01*
Y494474D01*
X33501D01*
Y494493D01*
X33540D01*
Y494512D01*
X33559D01*
Y494531D01*
X33597D01*
Y494550D01*
X33635D01*
Y494569D01*
X33654D01*
Y494588D01*
X33693D01*
Y494607D01*
X33712D01*
Y494626D01*
X33750D01*
Y494646D01*
X33769D01*
Y494665D01*
X33807D01*
Y494684D01*
X33826D01*
Y494703D01*
X33865D01*
Y494722D01*
X33903D01*
Y494741D01*
X33922D01*
Y494760D01*
X33960D01*
Y494779D01*
X33979D01*
Y494799D01*
X34018D01*
Y494818D01*
X34037D01*
Y494837D01*
X34075D01*
Y494856D01*
X34094D01*
Y494875D01*
X34132D01*
Y494894D01*
X34151D01*
Y494913D01*
X34190D01*
Y494932D01*
X34228D01*
Y494951D01*
X34247D01*
Y494971D01*
X34285D01*
Y494990D01*
X34304D01*
Y495009D01*
X34343D01*
Y495028D01*
X34362D01*
Y495047D01*
X34400D01*
Y495066D01*
X34419D01*
Y495085D01*
X34457D01*
Y495104D01*
X34495D01*
Y495123D01*
X34534D01*
Y495143D01*
X34553D01*
Y495162D01*
X34591D01*
Y495181D01*
X34629D01*
Y495200D01*
X34668D01*
Y495219D01*
X34706D01*
Y495238D01*
X34725D01*
Y495257D01*
X34763D01*
Y495276D01*
X34801D01*
Y495296D01*
X34840D01*
Y495315D01*
X34878D01*
Y495334D01*
X34897D01*
Y495353D01*
X34935D01*
Y495372D01*
X34973D01*
Y495391D01*
X35012D01*
Y495410D01*
X35031D01*
Y495429D01*
X35069D01*
Y495448D01*
X35107D01*
Y495468D01*
X35146D01*
Y495487D01*
X35184D01*
Y495506D01*
X35203D01*
Y495525D01*
X35241D01*
Y495544D01*
X35279D01*
Y495563D01*
X35318D01*
Y495582D01*
X35356D01*
Y495601D01*
X35375D01*
Y495621D01*
X35413D01*
Y495640D01*
X35451D01*
Y495659D01*
X35490D01*
Y495678D01*
X35528D01*
Y495697D01*
X35547D01*
Y495716D01*
X35585D01*
Y495735D01*
X35623D01*
Y495754D01*
X35662D01*
Y495774D01*
X35681D01*
Y495793D01*
X35719D01*
Y495812D01*
X35757D01*
Y495831D01*
X35796D01*
Y495850D01*
X35834D01*
Y495869D01*
X35872D01*
Y495888D01*
X35891D01*
Y495907D01*
X35949D01*
Y495926D01*
X35987D01*
Y495946D01*
X36044D01*
Y495965D01*
X36140D01*
Y495946D01*
X36159D01*
Y495888D01*
X36178D01*
Y495850D01*
X36197D01*
Y495812D01*
X36216D01*
Y495774D01*
X36235D01*
Y495735D01*
X36254D01*
Y495697D01*
X36273D01*
Y495659D01*
X36293D01*
Y495621D01*
X36312D01*
Y495582D01*
X36331D01*
Y495544D01*
X36350D01*
Y495506D01*
X36369D01*
Y495468D01*
X36388D01*
Y495429D01*
X36407D01*
Y495391D01*
X36426D01*
Y495353D01*
X36446D01*
Y495315D01*
X36465D01*
Y495276D01*
X36484D01*
Y495238D01*
X36503D01*
Y495200D01*
X36522D01*
Y495162D01*
X36541D01*
Y495123D01*
X36560D01*
Y495085D01*
X36579D01*
Y495047D01*
X36598D01*
Y495009D01*
X36618D01*
Y494971D01*
X36637D01*
Y494932D01*
X36656D01*
Y494894D01*
X36675D01*
Y494856D01*
X36694D01*
Y494818D01*
X36713D01*
Y494779D01*
X36732D01*
Y494741D01*
X36751D01*
Y494703D01*
X36770D01*
Y494665D01*
X36790D01*
Y494626D01*
X36809D01*
Y494569D01*
X36828D01*
Y494531D01*
X36847D01*
Y494493D01*
X36866D01*
Y494454D01*
X36885D01*
Y494416D01*
X36904D01*
Y494378D01*
X36923D01*
Y494340D01*
X36943D01*
Y494301D01*
X36962D01*
Y494263D01*
X36981D01*
Y494225D01*
X37000D01*
Y494187D01*
X37019D01*
Y494148D01*
X37038D01*
Y494110D01*
X37057D01*
Y494072D01*
X37076D01*
Y494034D01*
X37095D01*
Y493996D01*
X37115D01*
Y493957D01*
X37134D01*
Y493919D01*
X37153D01*
Y493881D01*
X37172D01*
Y493843D01*
X37191D01*
Y493804D01*
X37210D01*
Y493766D01*
X37229D01*
Y493709D01*
X37248D01*
Y493671D01*
X37268D01*
Y493632D01*
X37287D01*
Y493594D01*
X37306D01*
Y493556D01*
X37325D01*
Y493518D01*
X37344D01*
Y493479D01*
X37363D01*
Y493441D01*
X37382D01*
Y493403D01*
X37401D01*
Y493365D01*
X37420D01*
Y493327D01*
X37440D01*
Y493288D01*
X37459D01*
Y493250D01*
X37478D01*
Y493212D01*
X37497D01*
Y493174D01*
X37516D01*
Y493135D01*
X37535D01*
Y493097D01*
X37554D01*
Y493059D01*
X37573D01*
Y493021D01*
X37593D01*
Y492982D01*
X37612D01*
Y492944D01*
X37631D01*
Y492906D01*
X37650D01*
Y492848D01*
X37669D01*
Y492810D01*
X37688D01*
Y492772D01*
X37707D01*
Y492734D01*
X37726D01*
Y492696D01*
X37745D01*
Y492657D01*
X37765D01*
Y492619D01*
X37784D01*
Y492562D01*
X37803D01*
Y492523D01*
X37822D01*
Y492485D01*
X37841D01*
Y492447D01*
X37860D01*
Y492409D01*
X37879D01*
Y492351D01*
X37898D01*
Y492313D01*
X37918D01*
Y492275D01*
X37937D01*
Y492218D01*
X37956D01*
Y492179D01*
X37975D01*
Y492141D01*
X37994D01*
Y492084D01*
X38013D01*
Y492046D01*
X38032D01*
Y491988D01*
X38051D01*
Y491950D01*
X38070D01*
Y491893D01*
X38090D01*
Y491835D01*
X38109D01*
Y491778D01*
X38128D01*
Y491721D01*
X38147D01*
Y491644D01*
X38166D01*
Y491568D01*
X38147D01*
Y491548D01*
X38109D01*
Y491529D01*
X38070D01*
Y491510D01*
X38032D01*
Y491491D01*
X37994D01*
Y491472D01*
X37956D01*
Y491453D01*
X37918D01*
Y491434D01*
X37860D01*
Y491415D01*
X37822D01*
Y491396D01*
X37765D01*
Y491376D01*
X37726D01*
Y491357D01*
X37669D01*
Y491338D01*
X37612D01*
Y491319D01*
X37554D01*
Y491300D01*
X37516D01*
Y491281D01*
X37459D01*
Y491262D01*
X37382D01*
Y491243D01*
X37325D01*
Y491223D01*
X37287D01*
Y491204D01*
X37210D01*
Y491185D01*
X37153D01*
Y491166D01*
X37115D01*
Y491147D01*
X37057D01*
Y491128D01*
X37000D01*
Y491109D01*
X36943D01*
Y491090D01*
X36885D01*
Y491071D01*
X36828D01*
Y491051D01*
X36770D01*
Y491032D01*
X36713D01*
Y491013D01*
X36656D01*
Y490994D01*
X36598D01*
Y490975D01*
X36541D01*
Y490956D01*
X36484D01*
Y490937D01*
X36426D01*
Y490918D01*
X36369D01*
Y490899D01*
X36312D01*
Y490879D01*
X36254D01*
Y490860D01*
X36197D01*
Y490841D01*
X36140D01*
Y490822D01*
X36082D01*
Y490803D01*
X36025D01*
Y490784D01*
X35968D01*
Y490765D01*
X35910D01*
Y490746D01*
X35853D01*
Y490727D01*
X35796D01*
Y490707D01*
X35738D01*
Y490688D01*
X35681D01*
Y490669D01*
X35623D01*
Y490650D01*
X35566D01*
Y490631D01*
X35509D01*
Y490612D01*
X35451D01*
Y490593D01*
X35394D01*
Y490574D01*
X35337D01*
Y490554D01*
X35279D01*
Y490535D01*
X35222D01*
Y490516D01*
X35165D01*
Y490497D01*
X35107D01*
Y490478D01*
X35050D01*
Y490459D01*
X34993D01*
Y490440D01*
X34935D01*
Y490421D01*
X34878D01*
Y490402D01*
X34821D01*
Y490382D01*
X34763D01*
Y490363D01*
X34706D01*
Y490344D01*
X34648D01*
Y490325D01*
X34591D01*
Y490306D01*
X34534D01*
Y490287D01*
X34457D01*
Y490268D01*
X34400D01*
Y490248D01*
X34343D01*
Y490229D01*
X34285D01*
Y490210D01*
X34209D01*
Y490191D01*
X34151D01*
Y490172D01*
X34094D01*
Y490153D01*
X34018D01*
Y490134D01*
X33960D01*
Y490115D01*
X33884D01*
Y490096D01*
X33807D01*
Y490076D01*
X33750D01*
Y490057D01*
X33674D01*
Y490038D01*
X33597D01*
Y490019D01*
X33520D01*
Y490000D01*
X33463D01*
Y489981D01*
X33387D01*
Y489962D01*
X33310D01*
Y489943D01*
X33234D01*
Y489923D01*
X33176D01*
Y489904D01*
X33138D01*
Y489885D01*
X33157D01*
Y489828D01*
X33176D01*
Y489751D01*
X33195D01*
Y489694D01*
X33215D01*
Y489637D01*
X33234D01*
Y489579D01*
X33253D01*
Y489522D01*
X33272D01*
Y489465D01*
X33291D01*
Y489388D01*
X33310D01*
Y489331D01*
X33329D01*
Y489274D01*
X33349D01*
Y489216D01*
X33368D01*
Y489140D01*
X33387D01*
Y489082D01*
X33406D01*
Y489025D01*
X33425D01*
Y488948D01*
X33444D01*
Y488891D01*
X33463D01*
Y488834D01*
X33482D01*
Y488757D01*
X33501D01*
Y488700D01*
X33520D01*
Y488643D01*
X33540D01*
Y488585D01*
X33559D01*
Y488509D01*
X33578D01*
Y488451D01*
X33597D01*
Y488394D01*
X33616D01*
Y488337D01*
X33635D01*
Y488260D01*
X33654D01*
Y488203D01*
X33674D01*
Y488127D01*
X33693D01*
Y488069D01*
X33712D01*
Y488012D01*
X33731D01*
Y487973D01*
X33750D01*
Y487916D01*
X33769D01*
Y487859D01*
X33788D01*
Y487802D01*
X33807D01*
Y487744D01*
X33826D01*
Y487668D01*
X33845D01*
Y487553D01*
X33865D01*
Y487534D01*
X33845D01*
Y487515D01*
X33807D01*
Y487496D01*
X33769D01*
Y487476D01*
X33731D01*
Y487457D01*
X33674D01*
Y487438D01*
X33635D01*
Y487419D01*
X33578D01*
Y487400D01*
X33520D01*
Y487381D01*
X33482D01*
Y487362D01*
X33425D01*
Y487343D01*
X33368D01*
Y487324D01*
X33310D01*
Y487304D01*
X33272D01*
Y487285D01*
X33215D01*
Y487266D01*
X33157D01*
Y487247D01*
X33100D01*
Y487228D01*
X33043D01*
Y487209D01*
X32985D01*
Y487190D01*
X32947D01*
Y487171D01*
X32890D01*
Y487151D01*
X32832D01*
Y487132D01*
X32775D01*
Y487113D01*
X32718D01*
Y487094D01*
X32660D01*
Y487075D01*
X32603D01*
Y487056D01*
X32546D01*
Y487037D01*
X32507D01*
Y487018D01*
X32450D01*
Y486999D01*
X32393D01*
Y486979D01*
X32335D01*
Y486960D01*
X32278D01*
Y486941D01*
X32240D01*
Y486922D01*
X32182D01*
Y486903D01*
X32144D01*
Y486884D01*
X32068D01*
Y486807D01*
X32087D01*
Y486731D01*
X32106D01*
Y486673D01*
X32125D01*
Y486616D01*
X32144D01*
Y486540D01*
X32163D01*
Y486482D01*
X32182D01*
Y486425D01*
X32201D01*
Y486368D01*
X32221D01*
Y486291D01*
X32240D01*
Y486234D01*
X32259D01*
Y486176D01*
X32278D01*
Y486119D01*
X32297D01*
Y486043D01*
X32316D01*
Y485985D01*
X32335D01*
Y485928D01*
X32354D01*
Y485871D01*
X32373D01*
Y485794D01*
X32393D01*
Y485737D01*
X32412D01*
Y485679D01*
X32431D01*
Y485622D01*
X32450D01*
Y485546D01*
X32469D01*
Y485488D01*
X32488D01*
Y485412D01*
X32507D01*
Y485354D01*
X32526D01*
Y485278D01*
X32546D01*
Y485221D01*
X32565D01*
Y485125D01*
X32584D01*
Y485029D01*
X32565D01*
Y485010D01*
X32526D01*
Y484991D01*
X32488D01*
Y484972D01*
X32469D01*
Y484953D01*
X32412D01*
Y484934D01*
X32373D01*
Y484915D01*
X32335D01*
Y484896D01*
X32297D01*
Y484876D01*
X32240D01*
Y484857D01*
X32201D01*
Y484838D01*
X32163D01*
Y484819D01*
X32106D01*
Y484800D01*
X32068D01*
Y484781D01*
X32029D01*
Y484762D01*
X31972D01*
Y484743D01*
X31934D01*
Y484724D01*
X31876D01*
Y484704D01*
X31838D01*
Y484685D01*
X31800D01*
Y484666D01*
X31743D01*
Y484647D01*
X31704D01*
Y484628D01*
X31647D01*
Y484609D01*
X31609D01*
Y484590D01*
X31571D01*
Y484571D01*
X31513D01*
Y484551D01*
X31475D01*
Y484532D01*
X31418D01*
Y484513D01*
X31379D01*
Y484494D01*
X31341D01*
Y484475D01*
X31284D01*
Y484456D01*
X31245D01*
Y484437D01*
X31188D01*
Y484418D01*
X31150D01*
Y484399D01*
X31112D01*
Y484379D01*
X31073D01*
Y484360D01*
X31035D01*
Y484341D01*
X31016D01*
Y484322D01*
X31035D01*
Y484246D01*
X31054D01*
Y484188D01*
X31073D01*
Y484150D01*
X31093D01*
Y484093D01*
X31112D01*
Y484054D01*
X31131D01*
Y483997D01*
X31150D01*
Y483959D01*
X31169D01*
Y483921D01*
X31188D01*
Y483863D01*
X31207D01*
Y483825D01*
X31226D01*
Y483787D01*
X31245D01*
Y483749D01*
X31265D01*
Y483691D01*
X31284D01*
Y483653D01*
X31303D01*
Y483615D01*
X31322D01*
Y483576D01*
X31341D01*
Y483519D01*
X31360D01*
Y483481D01*
X31379D01*
Y483443D01*
X31398D01*
Y483404D01*
X31418D01*
Y483366D01*
X31437D01*
Y483328D01*
X31456D01*
Y483271D01*
X31475D01*
Y483194D01*
X31456D01*
Y483175D01*
X31437D01*
Y483156D01*
X31418D01*
Y483137D01*
X31360D01*
Y483118D01*
X31303D01*
Y483099D01*
X31245D01*
Y483079D01*
X31188D01*
Y483060D01*
X31131D01*
Y483041D01*
X31073D01*
Y483022D01*
X31035D01*
Y483003D01*
X30978D01*
Y482984D01*
X30920D01*
Y482965D01*
X30863D01*
Y482946D01*
X30825D01*
Y482927D01*
X30768D01*
Y482907D01*
X30710D01*
Y482888D01*
X30653D01*
Y482869D01*
X30615D01*
Y482850D01*
X30557D01*
Y482831D01*
X30519D01*
Y482812D01*
X30462D01*
Y482793D01*
X30404D01*
Y482774D01*
X30347D01*
Y482754D01*
X30290D01*
Y482735D01*
X30232D01*
Y482716D01*
X30194D01*
Y482697D01*
X30137D01*
Y482678D01*
X30079D01*
Y482659D01*
X30022D01*
Y482640D01*
X29965D01*
Y482621D01*
X29907D01*
Y482601D01*
X29831D01*
Y482582D01*
X29812D01*
Y482525D01*
X29831D01*
Y482181D01*
X29812D01*
Y482047D01*
X29793D01*
Y481932D01*
X29774D01*
Y481856D01*
X29754D01*
Y481760D01*
X29735D01*
Y481684D01*
X29716D01*
Y481627D01*
X29697D01*
Y481550D01*
X29678D01*
Y481493D01*
X29659D01*
Y481435D01*
X29640D01*
Y481378D01*
X29621D01*
Y481321D01*
X29601D01*
Y481282D01*
X29582D01*
Y481225D01*
X29563D01*
Y481168D01*
X29544D01*
Y481130D01*
X29525D01*
Y481072D01*
X29506D01*
Y481034D01*
X29487D01*
Y480996D01*
X29468D01*
Y480957D01*
X29449D01*
Y480900D01*
X29429D01*
Y480862D01*
X29410D01*
Y480824D01*
X29391D01*
Y480785D01*
X29372D01*
Y480747D01*
X29353D01*
Y480709D01*
X29334D01*
Y480671D01*
X29315D01*
Y480632D01*
X29296D01*
Y480613D01*
X29276D01*
Y480575D01*
X29257D01*
Y480537D01*
X29238D01*
Y480499D01*
X29219D01*
Y480460D01*
X29200D01*
Y480422D01*
X29181D01*
Y480384D01*
X29162D01*
Y480346D01*
X29143D01*
Y480307D01*
X29123D01*
Y480288D01*
X29104D01*
Y480250D01*
X29085D01*
Y480212D01*
X29066D01*
Y480174D01*
X29047D01*
Y480135D01*
X29028D01*
Y480116D01*
X29009D01*
Y480078D01*
X28990D01*
Y480059D01*
X28971D01*
Y480021D01*
X28951D01*
Y479982D01*
X28932D01*
Y479963D01*
X28913D01*
Y479944D01*
X28894D01*
Y479906D01*
X28875D01*
Y479887D01*
X28856D01*
Y479849D01*
X28837D01*
Y479830D01*
X28818D01*
Y479810D01*
X28798D01*
Y479791D01*
X28779D01*
Y479772D01*
X28760D01*
Y479734D01*
X28741D01*
Y479715D01*
X28722D01*
Y479696D01*
X28703D01*
Y479676D01*
X28684D01*
Y479657D01*
X28665D01*
Y479638D01*
X28646D01*
Y479619D01*
X28626D01*
Y479600D01*
X28607D01*
Y479581D01*
X28588D01*
Y479562D01*
X28569D01*
Y479543D01*
X28550D01*
Y479524D01*
X28531D01*
Y479504D01*
X28512D01*
Y479485D01*
X28493D01*
Y479466D01*
X28454D01*
Y479447D01*
X28435D01*
Y479428D01*
X28416D01*
Y479409D01*
X28397D01*
Y479390D01*
X28359D01*
Y479371D01*
X28340D01*
Y479352D01*
X28301D01*
Y479332D01*
X28282D01*
Y479313D01*
X28244D01*
Y479294D01*
X28225D01*
Y479275D01*
X28187D01*
Y479256D01*
X28148D01*
Y479237D01*
X28129D01*
Y479218D01*
X28091D01*
Y479199D01*
X28053D01*
Y479179D01*
X28015D01*
Y479160D01*
X27976D01*
Y479141D01*
X27938D01*
Y479122D01*
X27900D01*
Y479103D01*
X27862D01*
Y479084D01*
X27843D01*
Y479065D01*
X27823D01*
Y479046D01*
X27804D01*
Y479027D01*
X27785D01*
Y479007D01*
X27766D01*
Y478988D01*
X27747D01*
Y478969D01*
X27728D01*
Y478950D01*
X27709D01*
Y478931D01*
X27690D01*
Y478893D01*
X27671D01*
Y478874D01*
X27651D01*
Y478855D01*
X27632D01*
Y478835D01*
X27613D01*
Y478816D01*
X27594D01*
Y478797D01*
X27575D01*
Y478778D01*
X27556D01*
Y478759D01*
X27537D01*
Y478740D01*
X27518D01*
Y478721D01*
X27498D01*
Y478701D01*
X27479D01*
Y478682D01*
X27460D01*
Y478663D01*
X27441D01*
Y478644D01*
X27422D01*
Y478625D01*
X27403D01*
Y478606D01*
X27384D01*
Y478587D01*
X27365D01*
Y478568D01*
X27346D01*
Y478549D01*
X27326D01*
Y478530D01*
X27307D01*
Y478510D01*
X27288D01*
Y478491D01*
X27269D01*
Y478472D01*
X27250D01*
Y478453D01*
X27212D01*
Y478434D01*
X27193D01*
Y478415D01*
X27174D01*
Y478396D01*
X27154D01*
Y478376D01*
X27135D01*
Y478357D01*
X27116D01*
Y478338D01*
X27097D01*
Y478319D01*
X27059D01*
Y478300D01*
X27040D01*
Y478281D01*
X27021D01*
Y478262D01*
X27001D01*
Y478243D01*
X26963D01*
Y478224D01*
X26944D01*
Y478204D01*
X26925D01*
Y478185D01*
X26887D01*
Y478166D01*
X26868D01*
Y478147D01*
X26829D01*
Y478128D01*
X26810D01*
Y478109D01*
X26791D01*
Y478090D01*
X26753D01*
Y478071D01*
X26734D01*
Y478052D01*
X26696D01*
Y478032D01*
X26676D01*
Y478013D01*
X26638D01*
Y477994D01*
X26619D01*
Y477975D01*
X26581D01*
Y477956D01*
X26562D01*
Y477937D01*
X26524D01*
Y477918D01*
X26485D01*
Y477899D01*
X26466D01*
Y477879D01*
X26428D01*
Y477860D01*
X26409D01*
Y477841D01*
X26371D01*
Y477822D01*
X26332D01*
Y477803D01*
X26294D01*
Y477784D01*
X26256D01*
Y477765D01*
X26218D01*
Y477746D01*
X26179D01*
Y477727D01*
X26122D01*
Y477707D01*
X26026D01*
Y477727D01*
X26007D01*
Y477746D01*
X25854D01*
Y477765D01*
X25816D01*
Y477784D01*
X25797D01*
Y477803D01*
X25759D01*
Y477822D01*
X25701D01*
Y477841D01*
X25663D01*
Y477860D01*
X25644D01*
Y477879D01*
X25625D01*
Y477899D01*
X25606D01*
Y477918D01*
X25587D01*
Y478013D01*
X25568D01*
Y478052D01*
X25587D01*
Y478166D01*
X25606D01*
Y478243D01*
X25625D01*
Y478281D01*
X25644D01*
Y478338D01*
X25663D01*
Y478396D01*
X25682D01*
Y478434D01*
X25701D01*
Y478472D01*
X25721D01*
Y478530D01*
X25740D01*
Y478568D01*
X25759D01*
Y478606D01*
X25778D01*
Y478644D01*
X25797D01*
Y478701D01*
X25816D01*
Y478740D01*
X25835D01*
Y478778D01*
X25854D01*
Y478835D01*
X25874D01*
Y478855D01*
X25721D01*
Y478874D01*
X25568D01*
Y478893D01*
X25453D01*
Y478912D01*
X25357D01*
Y478931D01*
X25262D01*
Y478950D01*
X25147D01*
Y478969D01*
X25071D01*
Y478988D01*
X24975D01*
Y479007D01*
X24879D01*
Y479027D01*
X24784D01*
Y479046D01*
X24707D01*
Y479065D01*
X24612D01*
Y479084D01*
X24516D01*
Y479103D01*
X24421D01*
Y479122D01*
X24344D01*
Y479141D01*
X24249D01*
Y479160D01*
X24153D01*
Y479179D01*
X24057D01*
Y479199D01*
X23962D01*
Y479218D01*
X23866D01*
Y479237D01*
X23752D01*
Y479256D01*
X23637D01*
Y479275D01*
X23503D01*
Y479294D01*
X23331D01*
Y479313D01*
X23044D01*
Y479294D01*
X22891D01*
Y479275D01*
X22776D01*
Y479256D01*
X22643D01*
Y479237D01*
X22509D01*
Y479218D01*
X22260D01*
Y479199D01*
X21821D01*
Y479179D01*
X21190D01*
Y479160D01*
X20769D01*
Y479141D01*
X20693D01*
Y479122D01*
X20674D01*
Y479103D01*
X20635D01*
Y479084D01*
X20616D01*
Y479065D01*
X20578D01*
Y479046D01*
X20559D01*
Y479027D01*
X20540D01*
Y479007D01*
X20521D01*
Y478988D01*
X20502D01*
Y478969D01*
X20463D01*
Y478950D01*
X20444D01*
Y478931D01*
X20425D01*
Y478912D01*
X20406D01*
Y478893D01*
X20387D01*
Y478874D01*
X20349D01*
Y478855D01*
X20329D01*
Y478835D01*
X20310D01*
Y478816D01*
X20272D01*
Y478797D01*
X20253D01*
Y478778D01*
X20234D01*
Y478759D01*
X20196D01*
Y478740D01*
X20177D01*
Y478721D01*
X20157D01*
Y478701D01*
X20119D01*
Y478682D01*
X20100D01*
Y478663D01*
X20081D01*
Y478644D01*
X20043D01*
Y478625D01*
X20024D01*
Y478606D01*
X19985D01*
Y478587D01*
X19966D01*
Y478568D01*
X19947D01*
Y478549D01*
X19909D01*
Y478530D01*
X19890D01*
Y478510D01*
X19851D01*
Y478491D01*
X19832D01*
Y478472D01*
X19794D01*
Y478453D01*
X19775D01*
Y478434D01*
X19737D01*
Y478415D01*
X19718D01*
Y478396D01*
X19679D01*
Y478376D01*
X19660D01*
Y478357D01*
X19622D01*
Y478338D01*
X19603D01*
Y478319D01*
X19565D01*
Y478300D01*
X19526D01*
Y478281D01*
X19488D01*
Y478262D01*
X19469D01*
Y478243D01*
X19431D01*
Y478224D01*
X19393D01*
Y478204D01*
X19354D01*
Y478185D01*
X19316D01*
Y478166D01*
X19278D01*
Y478147D01*
X19240D01*
Y478128D01*
X19202D01*
Y478109D01*
X19144D01*
Y478090D01*
X19068D01*
Y478109D01*
X19049D01*
Y478128D01*
X18991D01*
Y478147D01*
X18877D01*
Y478166D01*
X18857D01*
Y478204D01*
X18838D01*
Y478262D01*
X18800D01*
Y478281D01*
X18762D01*
Y478319D01*
X18743D01*
Y478530D01*
X18762D01*
Y478587D01*
X18781D01*
Y478644D01*
X18800D01*
Y478701D01*
X18819D01*
Y478740D01*
X18838D01*
Y478778D01*
X18857D01*
Y478816D01*
X18877D01*
Y478855D01*
X18896D01*
Y478893D01*
X18915D01*
Y478931D01*
X18934D01*
Y478969D01*
X18953D01*
Y479007D01*
X18972D01*
Y479027D01*
X18991D01*
Y479065D01*
X19010D01*
Y479084D01*
X19029D01*
Y479122D01*
X19049D01*
Y479141D01*
X19068D01*
Y479179D01*
X19087D01*
Y479199D01*
X19106D01*
Y479237D01*
X19125D01*
Y479256D01*
X19144D01*
Y479294D01*
X19163D01*
Y479313D01*
X19182D01*
Y479332D01*
X19202D01*
Y479371D01*
X19221D01*
Y479390D01*
X19240D01*
Y479409D01*
X19259D01*
Y479428D01*
X19278D01*
Y479466D01*
X19297D01*
Y479485D01*
X19316D01*
Y479504D01*
X19335D01*
Y479524D01*
X19354D01*
Y479562D01*
X19374D01*
Y479581D01*
X19354D01*
Y479600D01*
X19316D01*
Y479619D01*
X19297D01*
Y479638D01*
X19278D01*
Y479657D01*
X19259D01*
Y479676D01*
X19240D01*
Y479696D01*
X19221D01*
Y479715D01*
X19182D01*
Y479734D01*
X19163D01*
Y479753D01*
X19144D01*
Y479772D01*
X19125D01*
Y479791D01*
X19106D01*
Y479810D01*
X19087D01*
Y479830D01*
X19068D01*
Y479849D01*
X19049D01*
Y479868D01*
X19029D01*
Y479887D01*
X19010D01*
Y479906D01*
X18991D01*
Y479925D01*
X18972D01*
Y479944D01*
X18953D01*
Y479963D01*
X18934D01*
Y479982D01*
X18915D01*
Y480001D01*
X18896D01*
Y480040D01*
X18877D01*
Y480059D01*
X18857D01*
Y480078D01*
X18838D01*
Y480116D01*
X18819D01*
Y480135D01*
X18800D01*
Y480155D01*
X18781D01*
Y480193D01*
X18762D01*
Y480212D01*
X18743D01*
Y480250D01*
X18724D01*
Y480269D01*
X18704D01*
Y480288D01*
X18685D01*
Y480327D01*
X18666D01*
Y480346D01*
X18647D01*
Y480384D01*
X18628D01*
Y480422D01*
X18609D01*
Y480441D01*
X18590D01*
Y480479D01*
X18571D01*
Y480518D01*
X18552D01*
Y480556D01*
X18532D01*
Y480594D01*
X18513D01*
Y480632D01*
X18494D01*
Y480671D01*
X18475D01*
Y480709D01*
X18456D01*
Y480766D01*
X18437D01*
Y480824D01*
X18418D01*
Y480900D01*
X18399D01*
Y480996D01*
X18379D01*
Y481455D01*
X18399D01*
Y481569D01*
X18418D01*
Y481646D01*
X18437D01*
Y481722D01*
X18456D01*
Y481799D01*
X18475D01*
Y481856D01*
X18494D01*
Y481913D01*
X18513D01*
Y481952D01*
X18532D01*
Y482009D01*
X18552D01*
Y482047D01*
X18571D01*
Y482104D01*
X18590D01*
Y482143D01*
X18609D01*
Y482200D01*
X18628D01*
Y482238D01*
X18647D01*
Y482276D01*
X18666D01*
Y482315D01*
X18685D01*
Y482353D01*
X18704D01*
Y482391D01*
X18724D01*
Y482430D01*
X18743D01*
Y482468D01*
X18762D01*
Y482506D01*
X18781D01*
Y482544D01*
X18800D01*
Y482582D01*
X18819D01*
Y482621D01*
X18838D01*
Y482659D01*
X18857D01*
Y482697D01*
X18877D01*
Y482735D01*
X18896D01*
Y482774D01*
X18915D01*
Y482812D01*
X18934D01*
Y482850D01*
X18953D01*
Y482907D01*
X18972D01*
Y482946D01*
X18991D01*
Y482984D01*
X19010D01*
Y483041D01*
X19029D01*
Y483099D01*
X19049D01*
Y483156D01*
X19068D01*
Y483251D01*
X19049D01*
Y483290D01*
X19029D01*
Y483309D01*
X19010D01*
Y483347D01*
X18991D01*
Y483366D01*
X18972D01*
Y483404D01*
X18953D01*
Y483424D01*
X18934D01*
Y483462D01*
X18915D01*
Y483481D01*
X18896D01*
Y483519D01*
X18877D01*
Y483557D01*
X18857D01*
Y483576D01*
X18838D01*
Y483615D01*
X18819D01*
Y483634D01*
X18800D01*
Y483672D01*
X18781D01*
Y483691D01*
X18762D01*
Y483729D01*
X18743D01*
Y483768D01*
X18724D01*
Y483806D01*
X18704D01*
Y483825D01*
X18685D01*
Y483863D01*
X18666D01*
Y483902D01*
X18647D01*
Y483940D01*
X18628D01*
Y483978D01*
X18609D01*
Y484016D01*
X18590D01*
Y484054D01*
X18571D01*
Y484093D01*
X18552D01*
Y484131D01*
X18532D01*
Y484169D01*
X18513D01*
Y484207D01*
X18494D01*
Y484246D01*
X18475D01*
Y484284D01*
X18456D01*
Y484341D01*
X18437D01*
Y484379D01*
X18418D01*
Y484437D01*
X18399D01*
Y484475D01*
X18379D01*
Y484532D01*
X18360D01*
Y484571D01*
X18341D01*
Y484628D01*
X18322D01*
Y484685D01*
X18303D01*
Y484743D01*
X18284D01*
Y484800D01*
X18265D01*
Y484857D01*
X18246D01*
Y484934D01*
X18226D01*
Y485010D01*
X18207D01*
Y485106D01*
X18188D01*
Y485240D01*
X18169D01*
Y485909D01*
X18188D01*
Y486176D01*
X18207D01*
Y486348D01*
X18226D01*
Y486482D01*
X18246D01*
Y486597D01*
X18265D01*
Y486693D01*
X18284D01*
Y486769D01*
X18303D01*
Y486846D01*
X18322D01*
Y486922D01*
X18341D01*
Y486979D01*
X18360D01*
Y487037D01*
X18379D01*
Y487094D01*
X18399D01*
Y487151D01*
X18418D01*
Y487209D01*
X18437D01*
Y487247D01*
X18456D01*
Y487304D01*
X18475D01*
Y487343D01*
X18494D01*
Y487400D01*
X18513D01*
Y487438D01*
X18532D01*
Y487476D01*
X18552D01*
Y487515D01*
X18571D01*
Y487553D01*
X18590D01*
Y487591D01*
X18609D01*
Y487629D01*
X18628D01*
Y487668D01*
X18647D01*
Y487706D01*
X18666D01*
Y487725D01*
X18685D01*
Y487763D01*
X18704D01*
Y487802D01*
X18724D01*
Y487840D01*
X18743D01*
Y487859D01*
X18762D01*
Y487897D01*
X18781D01*
Y487935D01*
X18800D01*
Y487954D01*
X18819D01*
Y487993D01*
X18838D01*
Y488031D01*
X18857D01*
Y488050D01*
X18877D01*
Y488088D01*
X18896D01*
Y488107D01*
X18915D01*
Y488146D01*
X18934D01*
Y488165D01*
X18953D01*
Y488203D01*
X18972D01*
Y488222D01*
X18991D01*
Y488279D01*
X18972D01*
Y488299D01*
X18953D01*
Y488318D01*
X18934D01*
Y488337D01*
X18915D01*
Y488356D01*
X18877D01*
Y488375D01*
X18857D01*
Y488394D01*
X18838D01*
Y488413D01*
X18819D01*
Y488432D01*
X18800D01*
Y488451D01*
X18781D01*
Y488471D01*
X18762D01*
Y488490D01*
X18743D01*
Y488509D01*
X18724D01*
Y488528D01*
X18704D01*
Y488566D01*
X18685D01*
Y488585D01*
X18666D01*
Y488604D01*
X18647D01*
Y488624D01*
X18628D01*
Y488643D01*
X18609D01*
Y488662D01*
X18590D01*
Y488681D01*
X18571D01*
Y488700D01*
X18552D01*
Y488719D01*
X18532D01*
Y488757D01*
X18513D01*
Y488776D01*
X18494D01*
Y488796D01*
X18475D01*
Y488815D01*
X18456D01*
Y488834D01*
X18437D01*
Y488853D01*
X18418D01*
Y488872D01*
X18399D01*
Y488891D01*
X18379D01*
Y488910D01*
X18360D01*
Y488948D01*
X18341D01*
Y488968D01*
X18322D01*
Y488987D01*
X18303D01*
Y489006D01*
X18284D01*
Y489025D01*
X18265D01*
Y489063D01*
X18246D01*
Y489082D01*
X18226D01*
Y489102D01*
X18207D01*
Y489121D01*
X18188D01*
Y489159D01*
X18169D01*
Y489178D01*
X18150D01*
Y489197D01*
X18131D01*
Y489235D01*
X18112D01*
Y489254D01*
X18093D01*
Y489293D01*
X18074D01*
Y489312D01*
X18054D01*
Y489350D01*
X18035D01*
Y489388D01*
X18016D01*
Y489407D01*
X17997D01*
Y489446D01*
X17978D01*
Y489484D01*
X17959D01*
Y489522D01*
X17940D01*
Y489560D01*
X17921D01*
Y489599D01*
X17901D01*
Y489637D01*
X17882D01*
Y489675D01*
X17863D01*
Y489713D01*
X17844D01*
Y489751D01*
X17825D01*
Y489790D01*
X17806D01*
Y489828D01*
X17787D01*
Y489866D01*
X17768D01*
Y489904D01*
X17749D01*
Y489943D01*
X17729D01*
Y490000D01*
X17710D01*
Y490038D01*
X17691D01*
Y490076D01*
X17672D01*
Y490134D01*
X17653D01*
Y490191D01*
X17634D01*
Y490248D01*
X17615D01*
Y490344D01*
X17596D01*
Y490612D01*
X17615D01*
Y490688D01*
X17634D01*
Y490746D01*
X17653D01*
Y490803D01*
X17672D01*
Y490860D01*
X17691D01*
Y490899D01*
X17710D01*
Y490937D01*
X17729D01*
Y490975D01*
X17749D01*
Y491013D01*
X17768D01*
Y491071D01*
X17787D01*
Y491109D01*
X17806D01*
Y491147D01*
X17825D01*
Y491185D01*
X17844D01*
Y491223D01*
X17863D01*
Y491262D01*
X17882D01*
Y491319D01*
X17901D01*
Y491357D01*
X17921D01*
Y491415D01*
X17940D01*
Y491453D01*
X17959D01*
Y491529D01*
X17978D01*
Y491587D01*
X17997D01*
Y491644D01*
X18016D01*
Y491702D01*
X18035D01*
Y491778D01*
X18054D01*
Y491854D01*
X18074D01*
Y491950D01*
X18093D01*
Y492027D01*
X18112D01*
Y492141D01*
X18131D01*
Y492294D01*
X18150D01*
Y492485D01*
X18169D01*
Y492657D01*
X18188D01*
Y492791D01*
X18207D01*
Y492925D01*
X18226D01*
Y493059D01*
X18246D01*
Y493193D01*
X18265D01*
Y493307D01*
X18284D01*
Y493403D01*
X18303D01*
Y493499D01*
X18322D01*
Y493594D01*
X18341D01*
Y493671D01*
X18360D01*
Y493747D01*
X18379D01*
Y493823D01*
X18399D01*
Y493900D01*
X18418D01*
Y493957D01*
X18437D01*
Y494015D01*
X18456D01*
Y494091D01*
X18475D01*
Y494148D01*
X18494D01*
Y494187D01*
X18513D01*
Y494244D01*
X18532D01*
Y494301D01*
X18552D01*
Y494340D01*
X18571D01*
Y494397D01*
X18590D01*
Y494435D01*
X18609D01*
Y494474D01*
X18628D01*
Y494512D01*
X18647D01*
Y494550D01*
X18666D01*
Y494588D01*
X18685D01*
Y494626D01*
X18704D01*
Y494684D01*
X18685D01*
Y494703D01*
X18647D01*
Y494722D01*
X18609D01*
Y494741D01*
X18571D01*
Y494760D01*
X18552D01*
Y494779D01*
X18513D01*
Y494799D01*
X18475D01*
Y494818D01*
X18456D01*
Y494837D01*
X18418D01*
Y494856D01*
X18379D01*
Y494875D01*
X18360D01*
Y494894D01*
X18322D01*
Y494913D01*
X18284D01*
Y494932D01*
X18265D01*
Y494951D01*
X18226D01*
Y494971D01*
X18207D01*
Y494990D01*
X18169D01*
Y495009D01*
X18131D01*
Y495028D01*
X18112D01*
Y495047D01*
X18074D01*
Y495066D01*
X18035D01*
Y495085D01*
X18016D01*
Y495104D01*
X17978D01*
Y495123D01*
X17959D01*
Y495143D01*
X17921D01*
Y495162D01*
X17882D01*
Y495181D01*
X17863D01*
Y495200D01*
X17825D01*
Y495219D01*
X17806D01*
Y495238D01*
X17768D01*
Y495257D01*
X17749D01*
Y495276D01*
X17710D01*
Y495296D01*
X17691D01*
Y495315D01*
X17653D01*
Y495334D01*
X17634D01*
Y495353D01*
X17615D01*
Y495372D01*
X17576D01*
Y495391D01*
X17557D01*
Y495410D01*
X17519D01*
Y495429D01*
X17500D01*
Y495448D01*
X17481D01*
Y495468D01*
X17443D01*
Y495487D01*
X17424D01*
Y495506D01*
X17404D01*
Y495525D01*
X17366D01*
Y495544D01*
X17347D01*
Y495563D01*
X17328D01*
Y495582D01*
X17290D01*
Y495601D01*
X17271D01*
Y495621D01*
X17252D01*
Y495640D01*
X17213D01*
Y495659D01*
X17194D01*
Y495678D01*
X17175D01*
Y495697D01*
X17137D01*
Y495716D01*
X17118D01*
Y495735D01*
X17099D01*
Y495754D01*
X17060D01*
Y495774D01*
X17041D01*
Y495793D01*
X17022D01*
Y495812D01*
X17003D01*
Y495831D01*
X16965D01*
Y495850D01*
X16946D01*
Y495869D01*
X16927D01*
Y495888D01*
X16907D01*
Y495907D01*
X16888D01*
Y495926D01*
X16850D01*
Y495946D01*
X16831D01*
Y495965D01*
X16812D01*
Y495984D01*
X16793D01*
Y496003D01*
X16774D01*
Y496022D01*
X16754D01*
Y496041D01*
X16716D01*
Y496060D01*
X16697D01*
Y496079D01*
X16678D01*
Y496099D01*
X16659D01*
Y496118D01*
X16640D01*
Y496137D01*
X16621D01*
Y496156D01*
X16582D01*
Y496175D01*
X16563D01*
Y496194D01*
X16544D01*
Y496213D01*
X16525D01*
Y496232D01*
X16506D01*
Y496251D01*
X16468D01*
Y496271D01*
X16449D01*
Y496290D01*
X16430D01*
Y496309D01*
X16410D01*
Y496328D01*
X16391D01*
Y496347D01*
X16372D01*
Y496366D01*
X16353D01*
Y496385D01*
X16334D01*
Y496404D01*
X16315D01*
Y496423D01*
X16296D01*
Y496443D01*
X16276D01*
Y496462D01*
X16257D01*
Y496481D01*
X16219D01*
Y496500D01*
X16200D01*
Y496519D01*
X16181D01*
Y496538D01*
X16162D01*
Y496557D01*
X16143D01*
Y496576D01*
X16124D01*
Y496595D01*
X16104D01*
Y496615D01*
X16085D01*
Y496634D01*
X16066D01*
Y496653D01*
X16047D01*
Y496672D01*
X16028D01*
Y496691D01*
X16009D01*
Y496710D01*
X15990D01*
Y496729D01*
X15971D01*
Y496748D01*
X15951D01*
Y496768D01*
X15932D01*
Y496787D01*
X15913D01*
Y496806D01*
X15894D01*
Y496825D01*
X15875D01*
Y496844D01*
X15856D01*
Y496863D01*
X15837D01*
Y496882D01*
X15818D01*
Y496920D01*
X15799D01*
Y496940D01*
X15779D01*
Y496959D01*
X15760D01*
Y496978D01*
X15741D01*
Y496997D01*
X15722D01*
Y497016D01*
X15703D01*
Y497054D01*
X15684D01*
Y497074D01*
X15665D01*
Y497093D01*
X15646D01*
Y497112D01*
X15627D01*
Y497131D01*
X15607D01*
Y497150D01*
X15588D01*
Y497188D01*
X15569D01*
Y497207D01*
X15550D01*
Y497226D01*
X15531D01*
Y497246D01*
X15512D01*
Y497265D01*
X15493D01*
Y497303D01*
X15474D01*
Y497322D01*
X15454D01*
Y497341D01*
X15435D01*
Y497360D01*
X15416D01*
Y497379D01*
X15397D01*
Y497399D01*
X15378D01*
Y497437D01*
X15359D01*
Y497456D01*
X15340D01*
Y497475D01*
X15321D01*
Y497494D01*
X15302D01*
Y497513D01*
X15282D01*
Y497532D01*
X15263D01*
Y497571D01*
X15244D01*
Y497590D01*
X15225D01*
Y497609D01*
X15206D01*
Y497628D01*
X15187D01*
Y497647D01*
X15168D01*
Y497666D01*
X15149D01*
Y497704D01*
X15130D01*
Y497723D01*
X15110D01*
Y497743D01*
X15091D01*
Y497762D01*
X15072D01*
Y497781D01*
X15053D01*
Y497800D01*
X15034D01*
Y497838D01*
X15015D01*
Y497857D01*
X14996D01*
Y497876D01*
X14976D01*
Y497895D01*
X14957D01*
Y497915D01*
X14938D01*
Y497934D01*
X14919D01*
Y497972D01*
X14900D01*
Y497991D01*
X14881D01*
Y498010D01*
X14862D01*
Y498029D01*
X14843D01*
Y498048D01*
X14824D01*
Y498087D01*
X14805D01*
Y498106D01*
X14785D01*
Y498144D01*
X14766D01*
Y498163D01*
X14747D01*
Y498182D01*
X14728D01*
Y498220D01*
X14709D01*
Y498240D01*
X14690D01*
Y498278D01*
X14671D01*
Y498297D01*
X14651D01*
Y498335D01*
X14632D01*
Y498354D01*
X14613D01*
Y498393D01*
X14594D01*
Y498412D01*
X14575D01*
Y498450D01*
X14556D01*
Y498488D01*
X14537D01*
Y498507D01*
X14518D01*
Y498546D01*
X14499D01*
Y498584D01*
X14480D01*
Y498603D01*
X14460D01*
Y498641D01*
X14441D01*
Y498679D01*
X14422D01*
Y498699D01*
X14403D01*
Y498737D01*
X14384D01*
Y498756D01*
X14365D01*
Y498794D01*
X14346D01*
Y498832D01*
X14326D01*
Y498851D01*
X14307D01*
Y498890D01*
X14288D01*
Y498928D01*
X14269D01*
Y498947D01*
X14250D01*
Y498985D01*
X14231D01*
Y499023D01*
X14212D01*
Y499043D01*
X14193D01*
Y499081D01*
X14174D01*
Y499119D01*
X14154D01*
Y499157D01*
X14135D01*
Y499195D01*
X14116D01*
Y499234D01*
X14097D01*
Y499272D01*
X14078D01*
Y499310D01*
X14059D01*
Y499348D01*
X14040D01*
Y499387D01*
X14021D01*
Y499425D01*
X14002D01*
Y499463D01*
X13982D01*
Y499501D01*
X13963D01*
Y499540D01*
X13944D01*
Y499578D01*
X13925D01*
Y499616D01*
X13906D01*
Y499654D01*
X13887D01*
Y499693D01*
X13868D01*
Y499731D01*
X13849D01*
Y499769D01*
X13829D01*
Y499807D01*
X13810D01*
Y499846D01*
X13791D01*
Y499903D01*
X13772D01*
Y499941D01*
X13753D01*
Y499960D01*
X13734D01*
Y499999D01*
X13715D01*
Y500037D01*
X13696D01*
Y500113D01*
X13715D01*
Y500132D01*
X13849D01*
Y500113D01*
D02*
G37*
%LPC*%
G36*
X25090Y492963D02*
X24726D01*
Y492944D01*
X24650D01*
Y492925D01*
X24593D01*
Y492906D01*
X24554D01*
Y492887D01*
X24516D01*
Y492868D01*
X24497D01*
Y492848D01*
X24459D01*
Y492829D01*
X24440D01*
Y492810D01*
X24421D01*
Y492791D01*
X24382D01*
Y492772D01*
X24363D01*
Y492734D01*
X24344D01*
Y492715D01*
X24325D01*
Y492696D01*
X24306D01*
Y492657D01*
X24287D01*
Y492638D01*
X24268D01*
Y492600D01*
X24249D01*
Y492562D01*
X24229D01*
Y492504D01*
X24210D01*
Y492447D01*
X24191D01*
Y492371D01*
X24172D01*
Y492256D01*
X24153D01*
Y492122D01*
X24172D01*
Y492007D01*
X24191D01*
Y491931D01*
X24210D01*
Y491874D01*
X24229D01*
Y491835D01*
X24249D01*
Y491797D01*
X24268D01*
Y491759D01*
X24287D01*
Y491740D01*
X24306D01*
Y491702D01*
X24325D01*
Y491682D01*
X24344D01*
Y491663D01*
X24363D01*
Y491644D01*
X24382D01*
Y491625D01*
X24401D01*
Y491606D01*
X24421D01*
Y491587D01*
X24440D01*
Y491568D01*
X24459D01*
Y491548D01*
X24478D01*
Y491529D01*
X24497D01*
Y491510D01*
X24535D01*
Y491491D01*
X24554D01*
Y491472D01*
X24593D01*
Y491453D01*
X24631D01*
Y491434D01*
X24669D01*
Y491415D01*
X24707D01*
Y491396D01*
X24765D01*
Y491376D01*
X24822D01*
Y491357D01*
X24956D01*
Y491338D01*
X25071D01*
Y491357D01*
X25185D01*
Y491376D01*
X25262D01*
Y491396D01*
X25300D01*
Y491415D01*
X25357D01*
Y491434D01*
X25396D01*
Y491453D01*
X25415D01*
Y491472D01*
X25453D01*
Y491491D01*
X25472D01*
Y491510D01*
X25510D01*
Y491529D01*
X25529D01*
Y491548D01*
X25548D01*
Y491568D01*
X25568D01*
Y491587D01*
X25587D01*
Y491606D01*
X25606D01*
Y491644D01*
X25625D01*
Y491663D01*
X25644D01*
Y491682D01*
X25663D01*
Y491721D01*
X25682D01*
Y491759D01*
X25701D01*
Y491797D01*
X25721D01*
Y491835D01*
X25740D01*
Y491893D01*
X25759D01*
Y491988D01*
X25778D01*
Y492275D01*
X25759D01*
Y492371D01*
X25740D01*
Y492390D01*
Y492409D01*
Y492428D01*
X25721D01*
Y492466D01*
X25701D01*
Y492504D01*
X25682D01*
Y492543D01*
X25663D01*
Y492581D01*
X25644D01*
Y492619D01*
X25625D01*
Y492638D01*
X25606D01*
Y492657D01*
X25587D01*
Y492676D01*
X25568D01*
Y492715D01*
X25548D01*
Y492734D01*
X25529D01*
Y492753D01*
X25510D01*
Y492772D01*
X25472D01*
Y492791D01*
X25453D01*
Y492810D01*
X25434D01*
Y492829D01*
X25396D01*
Y492848D01*
X25357D01*
Y492868D01*
X25319D01*
Y492887D01*
X25281D01*
Y492906D01*
X25223D01*
Y492925D01*
X25166D01*
Y492944D01*
X25090D01*
Y492963D01*
D02*
G37*
G36*
X21916Y491319D02*
X21897D01*
Y491300D01*
X21400D01*
Y491262D01*
X21419D01*
Y491243D01*
X21438D01*
Y491223D01*
X21457D01*
Y491185D01*
X21496D01*
Y491166D01*
X21515D01*
Y491147D01*
X21534D01*
Y491128D01*
X21572D01*
Y491109D01*
X21629D01*
Y491090D01*
X21687D01*
Y491109D01*
X21706D01*
Y491128D01*
X21725D01*
Y491147D01*
X21744D01*
Y491166D01*
X21763D01*
Y491185D01*
X21802D01*
Y491204D01*
X21821D01*
Y491223D01*
X21840D01*
Y491243D01*
X21859D01*
Y491262D01*
X21897D01*
Y491281D01*
X21916D01*
Y491319D01*
D02*
G37*
G36*
X20750Y490402D02*
X20731D01*
Y490363D01*
X20750D01*
Y490344D01*
X20769D01*
Y490325D01*
X20788D01*
Y490306D01*
X20807D01*
Y490287D01*
X20827D01*
Y490268D01*
X20846D01*
Y490248D01*
X20865D01*
Y490229D01*
X20884D01*
Y490210D01*
X20903D01*
Y490191D01*
X20922D01*
Y490172D01*
X20941D01*
Y490153D01*
X20979D01*
Y490134D01*
X20999D01*
Y490115D01*
X21018D01*
Y490096D01*
X21151D01*
Y490115D01*
X21209D01*
Y490134D01*
X21266D01*
Y490153D01*
X21304D01*
Y490172D01*
X21343D01*
Y490191D01*
X21400D01*
Y490210D01*
X21438D01*
Y490229D01*
X21476D01*
Y490248D01*
X21515D01*
Y490268D01*
X21572D01*
Y490287D01*
X21610D01*
Y490306D01*
X21668D01*
Y490325D01*
X21725D01*
Y490344D01*
X21840D01*
Y490325D01*
X21897D01*
Y490306D01*
X21935D01*
Y490287D01*
X21993D01*
Y490268D01*
X22031D01*
Y490248D01*
X22069D01*
Y490229D01*
X22107D01*
Y490210D01*
X22146D01*
Y490191D01*
X22184D01*
Y490172D01*
X22222D01*
Y490153D01*
X22260D01*
Y490134D01*
X22298D01*
Y490115D01*
X22337D01*
Y490096D01*
X22375D01*
Y490076D01*
X22432D01*
Y490057D01*
X22471D01*
Y490038D01*
X22509D01*
Y490019D01*
X22566D01*
Y490000D01*
X22700D01*
Y490019D01*
X22757D01*
Y490038D01*
X22796D01*
Y490057D01*
X22853D01*
Y490076D01*
X22891D01*
Y490096D01*
X22929D01*
Y490115D01*
X22968D01*
Y490134D01*
X23006D01*
Y490153D01*
X23044D01*
Y490172D01*
X23082D01*
Y490191D01*
X23121D01*
Y490210D01*
X23159D01*
Y490248D01*
X23140D01*
Y490229D01*
X23101D01*
Y490210D01*
X23063D01*
Y490191D01*
X23025D01*
Y490172D01*
X22987D01*
Y490153D01*
X22949D01*
Y490134D01*
X22910D01*
Y490115D01*
X22872D01*
Y490096D01*
X22834D01*
Y490076D01*
X22776D01*
Y490057D01*
X22738D01*
Y490038D01*
X22681D01*
Y490019D01*
X22585D01*
Y490038D01*
X22528D01*
Y490057D01*
X22490D01*
Y490076D01*
X22432D01*
Y490096D01*
X22394D01*
Y490115D01*
X22356D01*
Y490134D01*
X22318D01*
Y490153D01*
X22279D01*
Y490172D01*
X22241D01*
Y490191D01*
X22203D01*
Y490210D01*
X22165D01*
Y490229D01*
X22127D01*
Y490248D01*
X22088D01*
Y490268D01*
X22050D01*
Y490287D01*
X22012D01*
Y490306D01*
X21954D01*
Y490325D01*
X21916D01*
Y490344D01*
X21859D01*
Y490363D01*
X21706D01*
Y490344D01*
X21648D01*
Y490325D01*
X21591D01*
Y490306D01*
X21553D01*
Y490287D01*
X21496D01*
Y490268D01*
X21457D01*
Y490248D01*
X21419D01*
Y490229D01*
X21381D01*
Y490210D01*
X21324D01*
Y490191D01*
X21285D01*
Y490172D01*
X21247D01*
Y490153D01*
X21190D01*
Y490134D01*
X21132D01*
Y490115D01*
X21037D01*
Y490134D01*
X21018D01*
Y490153D01*
X20979D01*
Y490172D01*
X20960D01*
Y490191D01*
X20941D01*
Y490210D01*
X20922D01*
Y490229D01*
X20903D01*
Y490248D01*
X20884D01*
Y490268D01*
X20865D01*
Y490287D01*
X20846D01*
Y490306D01*
X20827D01*
Y490325D01*
X20807D01*
Y490344D01*
X20788D01*
Y490363D01*
X20769D01*
Y490382D01*
X20750D01*
Y490402D01*
D02*
G37*
G36*
X19756Y493040D02*
X19507D01*
Y493021D01*
X19431D01*
Y493002D01*
X19374D01*
Y492982D01*
X19335D01*
Y492963D01*
X19297D01*
Y492944D01*
X19278D01*
Y492925D01*
X19240D01*
Y492906D01*
X19221D01*
Y492887D01*
X19202D01*
Y492868D01*
X19182D01*
Y492848D01*
X19163D01*
Y492829D01*
X19144D01*
Y492810D01*
X19125D01*
Y492791D01*
X19106D01*
Y492753D01*
X19087D01*
Y492734D01*
X19068D01*
Y492696D01*
X19049D01*
Y492657D01*
X19029D01*
Y492619D01*
X19010D01*
Y492581D01*
X18991D01*
Y492523D01*
X18972D01*
Y492447D01*
X18953D01*
Y492351D01*
X18934D01*
Y492103D01*
X18953D01*
Y491988D01*
X18972D01*
Y491931D01*
X18991D01*
Y491874D01*
X19010D01*
Y491835D01*
X19029D01*
Y491816D01*
X19049D01*
Y491778D01*
X19068D01*
Y491740D01*
X19087D01*
Y491721D01*
X19106D01*
Y491702D01*
X19125D01*
Y491682D01*
X19144D01*
Y491663D01*
X19163D01*
Y491644D01*
X19182D01*
Y491625D01*
X19221D01*
Y491606D01*
X19240D01*
Y491587D01*
X19278D01*
Y491568D01*
X19316D01*
Y491548D01*
X19374D01*
Y491529D01*
X19507D01*
Y491510D01*
X19603D01*
Y491529D01*
X19718D01*
Y491548D01*
X19775D01*
Y491568D01*
X19813D01*
Y491587D01*
X19851D01*
Y491606D01*
X19871D01*
Y491625D01*
X19890D01*
Y491644D01*
X19928D01*
Y491663D01*
X19947D01*
Y491702D01*
X19966D01*
Y491721D01*
X19985D01*
Y491740D01*
X20004D01*
Y491759D01*
X20024D01*
Y491797D01*
X20043D01*
Y491835D01*
X20062D01*
Y491874D01*
X20081D01*
Y491931D01*
X20100D01*
Y491988D01*
X20119D01*
Y492065D01*
X20138D01*
Y492199D01*
X20157D01*
Y492504D01*
X20138D01*
Y492619D01*
X20119D01*
Y492676D01*
X20100D01*
Y492734D01*
X20081D01*
Y492772D01*
X20062D01*
Y492810D01*
X20043D01*
Y492848D01*
X20024D01*
Y492868D01*
X20004D01*
Y492887D01*
X19985D01*
Y492906D01*
X19966D01*
Y492925D01*
X19947D01*
Y492944D01*
X19928D01*
Y492963D01*
X19909D01*
Y492982D01*
X19871D01*
Y493002D01*
X19832D01*
Y493021D01*
X19756D01*
Y493040D01*
D02*
G37*
%LPD*%
M02*
