M48
;Layer_Color=9474304
;FILE_FORMAT=2:4
INCH,LZ
;TYPE=PLATED
T01F00S00C0.0300
T02F00S00C0.0394
T03F00S00C0.0433
T04F00S00C0.0472
T05F00S00C0.0516
T06F00S00C0.0531
T07F00S00C0.0551
T08F00S00C0.0630
T09F00S00C0.0780
T10F00S00C0.0866
T11F00S00C0.1224
T12F00S00C0.2100
%
T01
X045317Y022387
X046317
X04273Y02793
X04173
X036Y056
X035
X04275Y06225
X03Y056
X029
X04275Y06325
T02
X035616Y079781
X038372
X03975Y08175
X036994
X034238
X021702Y082
X020324
X018946
X017568
X01619
X014812
X013434
X012056
X010678
X0093
X007922
X006544
T03
X017126Y027531
X025Y0295
X012Y029524
Y032476
X005976Y0369
X003024
X017126Y035406
X025Y033437
T04
X002843Y0405
X0055
T05
X0485Y05335
Y055
Y05665
Y058299
Y059949
Y061598
X046
Y059949
Y058299
Y05665
Y055
Y05335
T06
X036006Y00246
X037384
X038762
X04014
X041518
T07
X03826Y006471
Y00844
Y010409
X041213
Y00844
Y006471
Y016314
X03826
X008Y025071
X003
Y033929
X008
X0325Y06125
X0375
X040453
X029547
Y067156
Y069124
Y071093
X0325
Y069124
Y067156
X0375
Y069124
Y071093
X040453
Y069124
Y067156
T08
X04376Y01094
X04451Y02519
X012Y0255
X0114Y037
X0136
X031691Y042231
X03303
Y04614
X031691
X0367Y04345
X0335Y05725
X0415
X0245Y05825
X023161
Y054341
X0245
X0255Y06075
X032057Y081664
X027Y08225
X02475Y07825
T09
X002559Y00374
X004528
X0065
Y0065
X004528
X002559
X0115Y01212
X013469
X015441
Y01488
X013469
X0115
X020528Y01974
X0225
X024469
Y0225
X0225
X020528
X049Y040031
Y042
Y043972
X05176
Y042
Y040031
X05126Y071031
Y073
Y074972
X0485
Y073
Y071031
T10
X016917Y070421
X019083
T11
X051Y053976
Y060976
T12
X05Y003
X03325Y02868
X05Y0815
X003Y08125
M30
